Cuprum-Bold.ufo
<glyph name="exclam" format="2">
  <advance width="260"/>
  <unicode hex="0021"/>
  <outline>
    <contour>
      <point x="80" y="185" type="line"/>
      <point x="180" y="185" type="line"/>
      <point x="200" y="700" type="line"/>
      <point x="60" y="700" type="line"/>
    </contour>
    <contour>
      <point x="70" y="-10" type="line"/>
      <point x="190" y="-10" type="line"/>
      <point x="190" y="110" type="line"/>
      <point x="70" y="110" type="line"/>
    </contour>
  </outline>
</glyph>
<glyph name="quotedbl" format="2">
  <advance width="370"/>
  <unicode hex="0022"/>
  <outline>
    <contour>
      <point x="235" y="465" type="line"/>
      <point x="305" y="465" type="line"/>
      <point x="330" y="700" type="line"/>
      <point x="210" y="700" type="line"/>
    </contour>
    <contour>
      <point x="65" y="465" type="line"/>
      <point x="135" y="465" type="line"/>
      <point x="160" y="700" type="line"/>
      <point x="40" y="700" type="line"/>
    </contour>
  </outline>
</glyph>
<glyph name="numbersign" format="2">
  <advance width="590"/>
  <unicode hex="0023"/>
  <outline>
    <contour>
      <point x="80" y="0" type="line"/>
      <point x="195" y="0" type="line"/>
      <point x="225" y="195" type="line"/>
      <point x="315" y="195" type="line"/>
      <point x="285" y="0" type="line"/>
      <point x="400" y="0" type="line"/>
      <point x="430" y="195" type="line"/>
      <point x="540" y="195" type="line"/>
      <point x="540" y="275" type="line"/>
      <point x="443" y="275" type="line"/>
      <point x="466" y="425" type="line"/>
      <point x="570" y="425" type="line"/>
      <point x="570" y="505" type="line"/>
      <point x="480" y="505" type="line"/>
      <point x="510" y="700" type="line"/>
      <point x="395" y="700" type="line"/>
      <point x="365" y="505" type="line"/>
      <point x="275" y="505" type="line"/>
      <point x="305" y="700" type="line"/>
      <point x="190" y="700" type="line"/>
      <point x="160" y="505" type="line"/>
      <point x="50" y="505" type="line"/>
      <point x="50" y="425" type="line"/>
      <point x="147" y="425" type="line"/>
      <point x="124" y="275" type="line"/>
      <point x="20" y="275" type="line"/>
      <point x="20" y="195" type="line"/>
      <point x="110" y="195" type="line"/>
    </contour>
    <contour>
      <point x="228" y="275" type="line"/>
      <point x="251" y="425" type="line"/>
      <point x="362" y="425" type="line"/>
      <point x="339" y="275" type="line"/>
    </contour>
  </outline>
</glyph>
<glyph name="dollar" format="2">
  <advance width="465"/>
  <unicode hex="0024"/>
  <outline>
    <contour>
      <point x="200" y="-90" type="line"/>
      <point x="270" y="-90" type="line"/>
      <point x="270" y="-4" type="line"/>
      <point x="386" y="14"/>
      <point x="435" y="79"/>
      <point x="435" y="180" type="curve" smooth="yes"/>
      <point x="435" y="315"/>
      <point x="348" y="354"/>
      <point x="270" y="392" type="curve"/>
      <point x="270" y="635" type="line"/>
      <point x="395" y="635" type="line"/>
      <point x="395" y="690" type="line"/>
      <point x="370" y="698"/>
      <point x="324" y="707"/>
      <point x="270" y="709" type="curve"/>
      <point x="270" y="790" type="line"/>
      <point x="200" y="790" type="line"/>
      <point x="200" y="708" type="line"/>
      <point x="88" y="697"/>
      <point x="30" y="630"/>
      <point x="30" y="530" type="curve" smooth="yes"/>
      <point x="30" y="386"/>
      <point x="121" y="345"/>
      <point x="200" y="308" type="curve"/>
      <point x="200" y="66" type="line"/>
      <point x="35" y="65" type="line"/>
      <point x="35" y="10" type="line"/>
      <point x="65" y="0"/>
      <point x="125" y="-10"/>
      <point x="195" y="-10" type="curve" smooth="yes"/>
      <point x="200" y="-10" type="line"/>
    </contour>
    <contour>
      <point x="270" y="85" type="curve"/>
      <point x="270" y="269" type="line"/>
      <point x="297" y="248"/>
      <point x="315" y="221"/>
      <point x="315" y="180" type="curve" smooth="yes"/>
      <point x="315" y="136"/>
      <point x="301" y="104"/>
    </contour>
    <contour>
      <point x="200" y="432" type="line"/>
      <point x="170" y="454"/>
      <point x="150" y="483"/>
      <point x="150" y="530" type="curve" smooth="yes"/>
      <point x="150" y="574"/>
      <point x="168" y="606"/>
      <point x="200" y="623" type="curve"/>
    </contour>
  </outline>
</glyph>
<glyph name="percent" format="2">
  <advance width="720"/>
  <unicode hex="0025"/>
  <outline>
    <contour>
      <point x="105" y="0" type="line"/>
      <point x="225" y="0" type="line"/>
      <point x="615" y="700" type="line"/>
      <point x="495" y="700" type="line"/>
    </contour>
    <contour>
      <point x="540" y="-10" type="curve" smooth="yes"/>
      <point x="635" y="-10"/>
      <point x="695" y="50"/>
      <point x="695" y="140" type="curve" smooth="yes"/>
      <point x="695" y="230"/>
      <point x="635" y="290"/>
      <point x="540" y="290" type="curve" smooth="yes"/>
      <point x="445" y="290"/>
      <point x="385" y="230"/>
      <point x="385" y="140" type="curve" smooth="yes"/>
      <point x="385" y="50"/>
      <point x="445" y="-10"/>
    </contour>
    <contour>
      <point x="540" y="60" type="curve" smooth="yes"/>
      <point x="510" y="60"/>
      <point x="485" y="85"/>
      <point x="485" y="140" type="curve" smooth="yes"/>
      <point x="485" y="195"/>
      <point x="510" y="220"/>
      <point x="540" y="220" type="curve" smooth="yes"/>
      <point x="570" y="220"/>
      <point x="595" y="195"/>
      <point x="595" y="140" type="curve" smooth="yes"/>
      <point x="595" y="85"/>
      <point x="570" y="60"/>
    </contour>
    <contour>
      <point x="180" y="410" type="curve" smooth="yes"/>
      <point x="275" y="410"/>
      <point x="335" y="470"/>
      <point x="335" y="560" type="curve" smooth="yes"/>
      <point x="335" y="650"/>
      <point x="275" y="710"/>
      <point x="180" y="710" type="curve" smooth="yes"/>
      <point x="85" y="710"/>
      <point x="25" y="650"/>
      <point x="25" y="560" type="curve" smooth="yes"/>
      <point x="25" y="470"/>
      <point x="85" y="410"/>
    </contour>
    <contour>
      <point x="180" y="480" type="curve" smooth="yes"/>
      <point x="150" y="480"/>
      <point x="125" y="505"/>
      <point x="125" y="560" type="curve" smooth="yes"/>
      <point x="125" y="615"/>
      <point x="150" y="640"/>
      <point x="180" y="640" type="curve" smooth="yes"/>
      <point x="210" y="640"/>
      <point x="235" y="615"/>
      <point x="235" y="560" type="curve" smooth="yes"/>
      <point x="235" y="505"/>
      <point x="210" y="480"/>
    </contour>
  </outline>
</glyph>
<glyph name="ampersand" format="2">
  <advance width="545"/>
  <unicode hex="0026"/>
  <outline>
    <contour>
      <point x="210" y="-10" type="curve" smooth="yes"/>
      <point x="284" y="-10"/>
      <point x="324" y="16"/>
      <point x="358" y="68" type="curve"/>
      <point x="405" y="0" type="line"/>
      <point x="535" y="0" type="line"/>
      <point x="415" y="170" type="line"/>
      <point x="505" y="390" type="line"/>
      <point x="385" y="390" type="line"/>
      <point x="340" y="275" type="line"/>
      <point x="255" y="400"/>
      <point x="240" y="462"/>
      <point x="240" y="530" type="curve" smooth="yes"/>
      <point x="240" y="595"/>
      <point x="280" y="635"/>
      <point x="325" y="635" type="curve" smooth="yes"/>
      <point x="465" y="635" type="line"/>
      <point x="465" y="690" type="line"/>
      <point x="435" y="700"/>
      <point x="375" y="710"/>
      <point x="305" y="710" type="curve" smooth="yes"/>
      <point x="190" y="710"/>
      <point x="120" y="640"/>
      <point x="120" y="530" type="curve" smooth="yes"/>
      <point x="120" y="430"/>
      <point x="160" y="350"/>
      <point x="295" y="160" type="curve"/>
      <point x="275" y="95"/>
      <point x="245" y="65"/>
      <point x="215" y="65" type="curve" smooth="yes"/>
      <point x="190" y="65"/>
      <point x="150" y="85"/>
      <point x="150" y="180" type="curve" smooth="yes"/>
      <point x="150" y="330" type="line"/>
      <point x="55" y="330" type="line"/>
      <point x="45" y="300"/>
      <point x="35" y="240"/>
      <point x="35" y="180" type="curve" smooth="yes"/>
      <point x="35" y="60"/>
      <point x="105" y="-10"/>
    </contour>
  </outline>
</glyph>
<glyph name="quotesingle" format="2">
  <advance width="200"/>
  <unicode hex="0027"/>
  <outline>
    <contour>
      <point x="65" y="465" type="line"/>
      <point x="135" y="465" type="line"/>
      <point x="160" y="700" type="line"/>
      <point x="40" y="700" type="line"/>
    </contour>
  </outline>
</glyph>
<glyph name="parenleft" format="2">
  <advance width="266"/>
  <unicode hex="0028"/>
  <outline>
    <contour>
      <point x="210" y="-190" type="curve"/>
      <point x="266" y="-160" type="line"/>
      <point x="205" y="-20"/>
      <point x="180" y="110"/>
      <point x="180" y="280" type="curve"/>
      <point x="180" y="450"/>
      <point x="205" y="580"/>
      <point x="266" y="720" type="curve"/>
      <point x="210" y="750" type="line"/>
      <point x="90" y="600"/>
      <point x="50" y="410"/>
      <point x="50" y="280" type="curve"/>
      <point x="50" y="150"/>
      <point x="90" y="-40"/>
    </contour>
  </outline>
</glyph>
<glyph name="parenright" format="2">
  <advance width="266"/>
  <unicode hex="0029"/>
  <outline>
    <contour>
      <point x="56" y="-190" type="line"/>
      <point x="176" y="-40"/>
      <point x="216" y="150"/>
      <point x="216" y="280" type="curve" smooth="yes"/>
      <point x="216" y="410"/>
      <point x="176" y="600"/>
      <point x="56" y="750" type="curve"/>
      <point x="0" y="720" type="line"/>
      <point x="61" y="580"/>
      <point x="86" y="450"/>
      <point x="86" y="280" type="curve" smooth="yes"/>
      <point x="86" y="110"/>
      <point x="61" y="-20"/>
      <point x="0" y="-160" type="curve"/>
    </contour>
  </outline>
</glyph>
<glyph name="asterisk" format="2">
  <advance width="450"/>
  <unicode hex="002A"/>
  <outline>
    <contour>
      <point x="163" y="310" type="line"/>
      <point x="225" y="428" type="line"/>
      <point x="287" y="310" type="line"/>
      <point x="373" y="357" type="line"/>
      <point x="311" y="474" type="line"/>
      <point x="430" y="500" type="line"/>
      <point x="408" y="592" type="line"/>
      <point x="275" y="563" type="line"/>
      <point x="275" y="700" type="line"/>
      <point x="175" y="700" type="line"/>
      <point x="175" y="563" type="line"/>
      <point x="42" y="592" type="line"/>
      <point x="20" y="500" type="line"/>
      <point x="139" y="474" type="line"/>
      <point x="77" y="357" type="line"/>
    </contour>
  </outline>
</glyph>
<glyph name="plus" format="2">
  <advance width="450"/>
  <unicode hex="002B"/>
  <outline>
    <contour>
      <point x="180" y="90" type="line"/>
      <point x="270" y="90" type="line"/>
      <point x="270" y="260" type="line"/>
      <point x="420" y="260" type="line"/>
      <point x="420" y="340" type="line"/>
      <point x="270" y="340" type="line"/>
      <point x="270" y="510" type="line"/>
      <point x="180" y="510" type="line"/>
      <point x="180" y="340" type="line"/>
      <point x="30" y="340" type="line"/>
      <point x="30" y="260" type="line"/>
      <point x="180" y="260" type="line"/>
    </contour>
  </outline>
</glyph>
<glyph name="slash" format="2">
  <advance width="420"/>
  <unicode hex="002F"/>
  <outline>
    <contour>
      <point x="0" y="0" type="line"/>
      <point x="120" y="0" type="line"/>
      <point x="420" y="700" type="line"/>
      <point x="300" y="700" type="line"/>
    </contour>
  </outline>
</glyph>
<glyph name="one" format="2">
  <advance width="305"/>
  <unicode hex="0031"/>
  <outline>
    <contour>
      <point x="115" y="0" type="line"/>
      <point x="235" y="0" type="line"/>
      <point x="235" y="700" type="line"/>
      <point x="170" y="700" type="line"/>
      <point x="100" y="700"/>
      <point x="40" y="690"/>
      <point x="10" y="680" type="curve"/>
      <point x="10" y="620" type="line"/>
      <point x="115" y="620" type="line"/>
    </contour>
  </outline>
</glyph>
<glyph name="three" format="2">
  <advance width="435"/>
  <unicode hex="0033"/>
  <outline>
    <contour>
      <point x="175" y="-10" type="curve" smooth="yes"/>
      <point x="330" y="-10"/>
      <point x="400" y="60"/>
      <point x="400" y="190" type="curve" smooth="yes"/>
      <point x="400" y="270"/>
      <point x="355" y="345"/>
      <point x="285" y="368" type="curve"/>
      <point x="285" y="372" type="line"/>
      <point x="340" y="400"/>
      <point x="380" y="450"/>
      <point x="380" y="525" type="curve" smooth="yes"/>
      <point x="380" y="640"/>
      <point x="310" y="710"/>
      <point x="185" y="710" type="curve" smooth="yes"/>
      <point x="115" y="710"/>
      <point x="55" y="700"/>
      <point x="25" y="690" type="curve"/>
      <point x="25" y="635" type="line"/>
      <point x="155" y="635" type="line" smooth="yes"/>
      <point x="220" y="635"/>
      <point x="260" y="595"/>
      <point x="260" y="525" type="curve" smooth="yes"/>
      <point x="260" y="445"/>
      <point x="220" y="405"/>
      <point x="145" y="405" type="curve" smooth="yes"/>
      <point x="75" y="405" type="line"/>
      <point x="75" y="326" type="line"/>
      <point x="155" y="326" type="line" smooth="yes"/>
      <point x="240" y="326"/>
      <point x="280" y="285"/>
      <point x="280" y="190" type="curve" smooth="yes"/>
      <point x="280" y="105"/>
      <point x="240" y="65"/>
      <point x="155" y="65" type="curve" smooth="yes"/>
      <point x="15" y="65" type="line"/>
      <point x="15" y="10" type="line"/>
      <point x="45" y="0"/>
      <point x="105" y="-10"/>
    </contour>
  </outline>
</glyph>
<glyph name="four" format="2">
  <advance width="485"/>
  <unicode hex="0034"/>
  <outline>
    <contour>
      <point x="285" y="0" type="line"/>
      <point x="405" y="0" type="line"/>
      <point x="405" y="170" type="line"/>
      <point x="460" y="170" type="line"/>
      <point x="460" y="250" type="line"/>
      <point x="405" y="250" type="line"/>
      <point x="405" y="700" type="line"/>
      <point x="275" y="700" type="line"/>
      <point x="25" y="260" type="line"/>
      <point x="25" y="170" type="line"/>
      <point x="285" y="170" type="line"/>
    </contour>
    <contour>
      <point x="135" y="250" type="line"/>
      <point x="281" y="520" type="line"/>
      <point x="285" y="520" type="line"/>
      <point x="285" y="250" type="line"/>
    </contour>
  </outline>
</glyph>
<glyph name="six" format="2">
  <advance width="475"/>
  <unicode hex="0036"/>
  <outline>
    <contour>
      <point x="245" y="-10" type="curve" smooth="yes"/>
      <point x="375" y="-10"/>
      <point x="445" y="60"/>
      <point x="445" y="205" type="curve" smooth="yes"/>
      <point x="445" y="355"/>
      <point x="375" y="425"/>
      <point x="260" y="425" type="curve" smooth="yes"/>
      <point x="235" y="425"/>
      <point x="195" y="420"/>
      <point x="165" y="410" type="curve"/>
      <point x="165" y="585"/>
      <point x="215" y="635"/>
      <point x="285" y="635" type="curve" smooth="yes"/>
      <point x="415" y="635" type="line"/>
      <point x="415" y="690" type="line"/>
      <point x="385" y="700"/>
      <point x="325" y="710"/>
      <point x="255" y="710" type="curve" smooth="yes"/>
      <point x="125" y="710"/>
      <point x="45" y="620"/>
      <point x="45" y="420" type="curve" smooth="yes"/>
      <point x="45" y="200" type="line" smooth="yes"/>
      <point x="45" y="60"/>
      <point x="115" y="-10"/>
    </contour>
    <contour>
      <point x="245" y="60" type="curve" smooth="yes"/>
      <point x="200" y="60"/>
      <point x="165" y="100"/>
      <point x="165" y="200" type="curve" smooth="yes"/>
      <point x="165" y="355" type="line"/>
      <point x="215" y="355" type="line"/>
      <point x="300" y="355"/>
      <point x="325" y="315"/>
      <point x="325" y="205" type="curve" smooth="yes"/>
      <point x="325" y="100"/>
      <point x="290" y="60"/>
    </contour>
  </outline>
</glyph>
<glyph name="seven" format="2">
  <advance width="430"/>
  <unicode hex="0037"/>
  <outline>
    <contour>
      <point x="105" y="0" type="curve"/>
      <point x="225" y="0" type="line"/>
      <point x="255" y="190"/>
      <point x="310" y="380"/>
      <point x="400" y="610" type="curve"/>
      <point x="400" y="700" type="line"/>
      <point x="20" y="700" type="line"/>
      <point x="20" y="620" type="line"/>
      <point x="285" y="620" type="line"/>
      <point x="195" y="390"/>
      <point x="135" y="190"/>
    </contour>
  </outline>
</glyph>
<glyph name="eight" format="2">
  <advance width="500"/>
  <unicode hex="0038"/>
  <outline>
    <contour>
      <point x="250" y="-10" type="curve"/>
      <point x="395" y="-10"/>
      <point x="465" y="60"/>
      <point x="465" y="180" type="curve" smooth="yes"/>
      <point x="465" y="277"/>
      <point x="405" y="335"/>
      <point x="335" y="363" type="curve"/>
      <point x="335" y="367" type="line"/>
      <point x="390" y="385"/>
      <point x="450" y="440"/>
      <point x="450" y="535" type="curve" smooth="yes"/>
      <point x="450" y="640"/>
      <point x="380" y="710"/>
      <point x="250" y="710" type="curve"/>
      <point x="120" y="710"/>
      <point x="50" y="640"/>
      <point x="50" y="535" type="curve" smooth="yes"/>
      <point x="50" y="440"/>
      <point x="110" y="385"/>
      <point x="165" y="367" type="curve"/>
      <point x="165" y="363" type="line"/>
      <point x="95" y="335"/>
      <point x="35" y="277"/>
      <point x="35" y="180" type="curve" smooth="yes"/>
      <point x="35" y="60"/>
      <point x="105" y="-10"/>
    </contour>
    <contour>
      <point x="250" y="60" type="curve"/>
      <point x="195" y="60"/>
      <point x="155" y="100"/>
      <point x="155" y="180" type="curve" smooth="yes"/>
      <point x="155" y="255"/>
      <point x="195" y="290"/>
      <point x="250" y="320" type="curve"/>
      <point x="305" y="290"/>
      <point x="345" y="255"/>
      <point x="345" y="180" type="curve" smooth="yes"/>
      <point x="345" y="100"/>
      <point x="305" y="60"/>
    </contour>
    <contour>
      <point x="250" y="409" type="curve"/>
      <point x="205" y="425"/>
      <point x="170" y="465"/>
      <point x="170" y="535" type="curve" smooth="yes"/>
      <point x="170" y="600"/>
      <point x="210" y="640"/>
      <point x="250" y="640" type="curve"/>
      <point x="290" y="640"/>
      <point x="330" y="600"/>
      <point x="330" y="535" type="curve" smooth="yes"/>
      <point x="330" y="465"/>
      <point x="295" y="425"/>
    </contour>
  </outline>
</glyph>
<glyph name="nine" format="2">
  <advance width="475"/>
  <unicode hex="0039"/>
  <outline>
    <contour>
      <point x="220" y="-10" type="curve"/>
      <point x="350" y="-10"/>
      <point x="430" y="80"/>
      <point x="430" y="280" type="curve" smooth="yes"/>
      <point x="430" y="500" type="line" smooth="yes"/>
      <point x="430" y="640"/>
      <point x="360" y="710"/>
      <point x="230" y="710" type="curve" smooth="yes"/>
      <point x="100" y="710"/>
      <point x="30" y="640"/>
      <point x="30" y="495" type="curve" smooth="yes"/>
      <point x="30" y="345"/>
      <point x="100" y="275"/>
      <point x="215" y="275" type="curve" smooth="yes"/>
      <point x="240" y="275"/>
      <point x="280" y="280"/>
      <point x="310" y="290" type="curve"/>
      <point x="310" y="115"/>
      <point x="260" y="65"/>
      <point x="190" y="65" type="curve" smooth="yes"/>
      <point x="60" y="65" type="line"/>
      <point x="60" y="10" type="line"/>
      <point x="90" y="0"/>
      <point x="150" y="-10"/>
    </contour>
    <contour>
      <point x="260" y="345" type="line"/>
      <point x="175" y="345"/>
      <point x="150" y="385"/>
      <point x="150" y="495" type="curve" smooth="yes"/>
      <point x="150" y="600"/>
      <point x="185" y="640"/>
      <point x="230" y="640" type="curve" smooth="yes"/>
      <point x="275" y="640"/>
      <point x="310" y="600"/>
      <point x="310" y="500" type="curve" smooth="yes"/>
      <point x="310" y="345" type="line"/>
    </contour>
  </outline>
</glyph>
<glyph name="colon" format="2">
  <advance width="200"/>
  <unicode hex="003A"/>
  <outline>
    <contour>
      <point x="40" y="380" type="line"/>
      <point x="160" y="380" type="line"/>
      <point x="160" y="500" type="line"/>
      <point x="40" y="500" type="line"/>
    </contour>
    <contour>
      <point x="40" y="-10" type="line"/>
      <point x="160" y="-10" type="line"/>
      <point x="160" y="110" type="line"/>
      <point x="40" y="110" type="line"/>
    </contour>
  </outline>
</glyph>
<glyph name="semicolon" format="2">
  <advance width="190"/>
  <unicode hex="003B"/>
  <outline>
    <contour>
      <point x="40" y="-120" type="line"/>
      <point x="120" y="-120" type="line"/>
      <point x="160" y="110" type="line"/>
      <point x="40" y="110" type="line"/>
    </contour>
    <contour>
      <point x="40" y="380" type="line"/>
      <point x="160" y="380" type="line"/>
      <point x="160" y="500" type="line"/>
      <point x="40" y="500" type="line"/>
    </contour>
  </outline>
</glyph>
<glyph name="less" format="2">
  <advance width="405"/>
  <unicode hex="003C"/>
  <outline>
    <contour>
      <point x="365" y="5" type="line"/>
      <point x="365" y="125" type="line"/>
      <point x="155" y="252" type="line"/>
      <point x="155" y="257" type="line"/>
      <point x="365" y="380" type="line"/>
      <point x="365" y="500" type="line"/>
      <point x="40" y="305" type="line"/>
      <point x="40" y="200" type="line"/>
    </contour>
  </outline>
</glyph>
<glyph name="equal" format="2">
  <advance width="450"/>
  <unicode hex="003D"/>
  <outline>
    <contour>
      <point x="30" y="345" type="line"/>
      <point x="420" y="345" type="line"/>
      <point x="420" y="430" type="line"/>
      <point x="30" y="430" type="line"/>
    </contour>
    <contour>
      <point x="30" y="170" type="line"/>
      <point x="420" y="170" type="line"/>
      <point x="420" y="255" type="line"/>
      <point x="30" y="255" type="line"/>
    </contour>
  </outline>
</glyph>
<glyph name="greater" format="2">
  <advance width="405"/>
  <unicode hex="003E"/>
  <outline>
    <contour>
      <point x="40" y="5" type="line"/>
      <point x="365" y="200" type="line"/>
      <point x="365" y="305" type="line"/>
      <point x="40" y="500" type="line"/>
      <point x="40" y="380" type="line"/>
      <point x="250" y="257" type="line"/>
      <point x="250" y="252" type="line"/>
      <point x="40" y="125" type="line"/>
    </contour>
  </outline>
</glyph>
<glyph name="question" format="2">
  <advance width="395"/>
  <unicode hex="003F"/>
  <outline>
    <contour>
      <point x="105" y="185" type="curve"/>
      <point x="205" y="185" type="line"/>
      <point x="215" y="330"/>
      <point x="365" y="350"/>
      <point x="365" y="520" type="curve" smooth="yes"/>
      <point x="365" y="640"/>
      <point x="295" y="710"/>
      <point x="170" y="710" type="curve" smooth="yes"/>
      <point x="100" y="710"/>
      <point x="40" y="700"/>
      <point x="10" y="690" type="curve"/>
      <point x="10" y="635" type="line"/>
      <point x="140" y="635" type="line" smooth="yes"/>
      <point x="205" y="635"/>
      <point x="245" y="595"/>
      <point x="245" y="520" type="curve" smooth="yes"/>
      <point x="245" y="380"/>
      <point x="105" y="370"/>
    </contour>
    <contour>
      <point x="95" y="-10" type="line"/>
      <point x="215" y="-10" type="line"/>
      <point x="215" y="110" type="line"/>
      <point x="95" y="110" type="line"/>
    </contour>
  </outline>
</glyph>
<glyph name="at" format="2">
  <advance width="850"/>
  <unicode hex="0040"/>
  <outline>
    <contour>
      <point x="440" y="-90" type="curve" smooth="yes"/>
      <point x="510" y="-90"/>
      <point x="570" y="-80"/>
      <point x="600" y="-70" type="curve"/>
      <point x="600" y="-15" type="line"/>
      <point x="460" y="-15" type="line" smooth="yes"/>
      <point x="255" y="-15"/>
      <point x="155" y="85"/>
      <point x="155" y="310" type="curve" smooth="yes"/>
      <point x="155" y="540"/>
      <point x="255" y="640"/>
      <point x="420" y="640" type="curve" smooth="yes"/>
      <point x="595" y="640"/>
      <point x="695" y="540"/>
      <point x="695" y="365" type="curve" smooth="yes"/>
      <point x="695" y="200"/>
      <point x="650" y="155"/>
      <point x="605" y="155" type="curve"/>
      <point x="605" y="520" type="line"/>
      <point x="575" y="530"/>
      <point x="515" y="540"/>
      <point x="460" y="540" type="curve" smooth="yes"/>
      <point x="305" y="540"/>
      <point x="235" y="470"/>
      <point x="235" y="300" type="curve" smooth="yes"/>
      <point x="235" y="150"/>
      <point x="315" y="80"/>
      <point x="400" y="80" type="curve" smooth="yes"/>
      <point x="445" y="80"/>
      <point x="475" y="95"/>
      <point x="500" y="120" type="curve"/>
      <point x="505" y="120" type="line"/>
      <point x="520" y="90" type="line"/>
      <point x="725" y="90"/>
      <point x="805" y="170"/>
      <point x="805" y="365" type="curve" smooth="yes"/>
      <point x="805" y="570"/>
      <point x="665" y="710"/>
      <point x="420" y="710" type="curve" smooth="yes"/>
      <point x="185" y="710"/>
      <point x="45" y="570"/>
      <point x="45" y="310" type="curve" smooth="yes"/>
      <point x="45" y="50"/>
      <point x="185" y="-90"/>
    </contour>
    <contour>
      <point x="430" y="150" type="curve" smooth="yes"/>
      <point x="395" y="150"/>
      <point x="355" y="190"/>
      <point x="355" y="300" type="curve" smooth="yes"/>
      <point x="355" y="430"/>
      <point x="395" y="470"/>
      <point x="460" y="470" type="curve" smooth="yes"/>
      <point x="485" y="470" type="line"/>
      <point x="485" y="170" type="line"/>
      <point x="475" y="160"/>
      <point x="455" y="150"/>
    </contour>
  </outline>
</glyph>
<glyph name="A" format="2">
  <advance width="540"/>
  <unicode hex="0041"/>
  <anchor x="270" y="0" name="bottom"/>
  <anchor x="486" y="10" name="ogonek"/>
  <anchor x="270" y="700" name="top"/>
  <outline>
    <contour>
      <point x="15" y="0" type="line"/>
      <point x="140" y="0" type="line"/>
      <point x="184" y="175" type="line"/>
      <point x="356" y="175" type="line"/>
      <point x="400" y="0" type="line"/>
      <point x="525" y="0" type="line"/>
      <point x="345" y="700" type="line"/>
      <point x="195" y="700" type="line"/>
    </contour>
    <contour>
      <point x="200" y="255" type="line"/>
      <point x="268" y="540" type="line"/>
      <point x="272" y="540" type="line"/>
      <point x="339" y="255" type="line"/>
    </contour>
  </outline>
</glyph>
<glyph name="C" format="2">
  <advance width="455"/>
  <unicode hex="0043"/>
  <outline>
    <contour>
      <point x="280" y="-10" type="curve" smooth="yes"/>
      <point x="350" y="-10"/>
      <point x="410" y="0"/>
      <point x="440" y="10" type="curve"/>
      <point x="440" y="65" type="line"/>
      <point x="320" y="65" type="line" smooth="yes"/>
      <point x="225" y="65"/>
      <point x="165" y="125"/>
      <point x="165" y="350" type="curve" smooth="yes"/>
      <point x="165" y="575"/>
      <point x="225" y="635"/>
      <point x="310" y="635" type="curve" smooth="yes"/>
      <point x="430" y="635" type="line"/>
      <point x="430" y="690" type="line"/>
      <point x="400" y="700"/>
      <point x="340" y="710"/>
      <point x="270" y="710" type="curve" smooth="yes"/>
      <point x="125" y="710"/>
      <point x="45" y="630"/>
      <point x="45" y="350" type="curve" smooth="yes"/>
      <point x="45" y="70"/>
      <point x="125" y="-10"/>
    </contour>
  </outline>
</glyph>
<glyph name="D" format="2">
  <advance width="545"/>
  <unicode hex="0044"/>
  <outline>
    <contour>
      <point x="245" y="-10" type="curve" smooth="yes"/>
      <point x="410" y="-10"/>
      <point x="500" y="80"/>
      <point x="500" y="350" type="curve" smooth="yes"/>
      <point x="500" y="620"/>
      <point x="410" y="710"/>
      <point x="245" y="710" type="curve" smooth="yes"/>
      <point x="170" y="710"/>
      <point x="120" y="705"/>
      <point x="70" y="690" type="curve"/>
      <point x="70" y="10" type="line"/>
      <point x="120" y="-5"/>
      <point x="170" y="-10"/>
    </contour>
    <contour>
      <point x="190" y="65" type="line"/>
      <point x="190" y="635" type="line"/>
      <point x="245" y="635" type="line" smooth="yes"/>
      <point x="325" y="635"/>
      <point x="380" y="575"/>
      <point x="380" y="350" type="curve" smooth="yes"/>
      <point x="380" y="125"/>
      <point x="325" y="65"/>
      <point x="245" y="65" type="curve" smooth="yes"/>
    </contour>
  </outline>
</glyph>
<glyph name="E" format="2">
  <advance width="475"/>
  <unicode hex="0045"/>
  <anchor x="238" y="0" name="bottom"/>
  <anchor x="427" y="10" name="ogonek"/>
  <anchor x="238" y="700" name="top"/>
  <anchor x="20" y="700" name="topleft"/>
  <outline>
    <contour>
      <point x="70" y="0" type="line"/>
      <point x="435" y="0" type="line"/>
      <point x="435" y="80" type="line"/>
      <point x="190" y="80" type="line"/>
      <point x="190" y="325" type="line"/>
      <point x="405" y="325" type="line"/>
      <point x="405" y="405" type="line"/>
      <point x="190" y="405" type="line"/>
      <point x="190" y="620" type="line"/>
      <point x="435" y="620" type="line"/>
      <point x="435" y="700" type="line"/>
      <point x="70" y="700" type="line"/>
    </contour>
  </outline>
</glyph>
<glyph name="F" format="2">
  <advance width="455"/>
  <unicode hex="0046"/>
  <outline>
    <contour>
      <point x="70" y="0" type="line"/>
      <point x="190" y="0" type="line"/>
      <point x="190" y="310" type="line"/>
      <point x="395" y="310" type="line"/>
      <point x="395" y="390" type="line"/>
      <point x="190" y="390" type="line"/>
      <point x="190" y="620" type="line"/>
      <point x="435" y="620" type="line"/>
      <point x="435" y="700" type="line"/>
      <point x="70" y="700" type="line"/>
    </contour>
  </outline>
</glyph>
<glyph name="G" format="2">
  <advance width="525"/>
  <unicode hex="0047"/>
  <outline>
    <contour>
      <point x="300" y="-10" type="curve" smooth="yes"/>
      <point x="375" y="-10"/>
      <point x="435" y="0"/>
      <point x="465" y="10" type="curve"/>
      <point x="465" y="380" type="line"/>
      <point x="345" y="380" type="line"/>
      <point x="345" y="65" type="line"/>
      <point x="320" y="65" type="line" smooth="yes"/>
      <point x="225" y="65"/>
      <point x="165" y="125"/>
      <point x="165" y="350" type="curve" smooth="yes"/>
      <point x="165" y="575"/>
      <point x="225" y="635"/>
      <point x="310" y="635" type="curve" smooth="yes"/>
      <point x="440" y="635" type="line"/>
      <point x="440" y="690" type="line"/>
      <point x="410" y="700"/>
      <point x="350" y="710"/>
      <point x="280" y="710" type="curve" smooth="yes"/>
      <point x="125" y="710"/>
      <point x="45" y="630"/>
      <point x="45" y="350" type="curve" smooth="yes"/>
      <point x="45" y="70"/>
      <point x="125" y="-10"/>
    </contour>
  </outline>
</glyph>
<glyph name="I" format="2">
  <advance width="260"/>
  <unicode hex="0049"/>
  <anchor x="130" y="0" name="bottom"/>
  <anchor x="234" y="10" name="ogonek"/>
  <anchor x="130" y="700" name="top"/>
  <anchor x="20" y="700" name="topleft"/>
  <outline>
    <contour>
      <point x="70" y="0" type="line"/>
      <point x="190" y="0" type="line"/>
      <point x="190" y="700" type="line"/>
      <point x="70" y="700" type="line"/>
    </contour>
  </outline>
</glyph>
<glyph name="J" format="2">
  <advance width="375"/>
  <unicode hex="004A"/>
  <outline>
    <contour>
      <point x="100" y="-10" type="curve" smooth="yes"/>
      <point x="245" y="-10"/>
      <point x="315" y="60"/>
      <point x="315" y="240" type="curve" smooth="yes"/>
      <point x="315" y="700" type="line"/>
      <point x="195" y="700" type="line"/>
      <point x="195" y="240" type="line" smooth="yes"/>
      <point x="195" y="105"/>
      <point x="155" y="65"/>
      <point x="100" y="65" type="curve" smooth="yes"/>
      <point x="0" y="65" type="line"/>
      <point x="0" y="10" type="line"/>
      <point x="25" y="0"/>
      <point x="60" y="-10"/>
    </contour>
  </outline>
</glyph>
<glyph name="K" format="2">
  <advance width="520"/>
  <unicode hex="004B"/>
  <anchor x="270" y="0" name="bottom"/>
  <outline>
    <contour>
      <point x="70" y="0" type="line"/>
      <point x="190" y="0" type="line"/>
      <point x="190" y="330" type="line"/>
      <point x="375" y="0" type="line"/>
      <point x="510" y="0" type="line"/>
      <point x="305" y="355" type="line"/>
      <point x="490" y="700" type="line"/>
      <point x="355" y="700" type="line"/>
      <point x="190" y="380" type="line"/>
      <point x="190" y="700" type="line"/>
      <point x="70" y="700" type="line"/>
    </contour>
  </outline>
</glyph>
<glyph name="M" format="2">
  <advance width="760"/>
  <unicode hex="004D"/>
  <outline>
    <contour>
      <point x="50" y="0" type="line"/>
      <point x="165" y="0" type="line"/>
      <point x="192" y="474" type="line"/>
      <point x="196" y="474" type="line"/>
      <point x="325" y="85" type="line"/>
      <point x="435" y="85" type="line"/>
      <point x="564" y="474" type="line"/>
      <point x="568" y="474" type="line"/>
      <point x="595" y="0" type="line"/>
      <point x="710" y="0" type="line"/>
      <point x="670" y="700" type="line"/>
      <point x="540" y="700" type="line"/>
      <point x="382" y="225" type="line"/>
      <point x="378" y="225" type="line"/>
      <point x="220" y="700" type="line"/>
      <point x="90" y="700" type="line"/>
    </contour>
  </outline>
</glyph>
<glyph name="N" format="2">
  <advance width="570"/>
  <unicode hex="004E"/>
  <anchor x="280" y="0" name="bottom"/>
  <anchor x="283" y="700" name="top"/>
  <outline>
    <contour>
      <point x="70" y="0" type="line"/>
      <point x="185" y="0" type="line"/>
      <point x="185" y="460" type="line"/>
      <point x="190" y="460" type="line"/>
      <point x="380" y="0" type="line"/>
      <point x="500" y="0" type="line"/>
      <point x="500" y="700" type="line"/>
      <point x="385" y="700" type="line"/>
      <point x="385" y="240" type="line"/>
      <point x="380" y="240" type="line"/>
      <point x="190" y="700" type="line"/>
      <point x="70" y="700" type="line"/>
    </contour>
  </outline>
</glyph>
<glyph name="Q" format="2">
  <advance width="555"/>
  <unicode hex="0051"/>
  <outline>
    <contour>
      <point x="275" y="-10" type="curve" smooth="yes"/>
      <point x="550" y="-10" type="line"/>
      <point x="550" y="40" type="line"/>
      <point x="520" y="50"/>
      <point x="490" y="60"/>
      <point x="430" y="60" type="curve"/>
      <point x="470" y="110"/>
      <point x="505" y="200"/>
      <point x="505" y="350" type="curve" smooth="yes"/>
      <point x="505" y="620"/>
      <point x="415" y="710"/>
      <point x="275" y="710" type="curve" smooth="yes"/>
      <point x="135" y="710"/>
      <point x="45" y="620"/>
      <point x="45" y="350" type="curve" smooth="yes"/>
      <point x="45" y="80"/>
      <point x="135" y="-10"/>
    </contour>
    <contour>
      <point x="275" y="60" type="curve" smooth="yes"/>
      <point x="225" y="60"/>
      <point x="165" y="110"/>
      <point x="165" y="350" type="curve" smooth="yes"/>
      <point x="165" y="580"/>
      <point x="220" y="640"/>
      <point x="275" y="640" type="curve" smooth="yes"/>
      <point x="330" y="640"/>
      <point x="385" y="580"/>
      <point x="385" y="350" type="curve" smooth="yes"/>
      <point x="385" y="120"/>
      <point x="330" y="60"/>
    </contour>
  </outline>
</glyph>
<glyph name="U" format="2">
  <advance width="550"/>
  <unicode hex="0055"/>
  <anchor x="275" y="0" name="bottom"/>
  <anchor x="495" y="10" name="ogonek"/>
  <anchor x="275" y="700" name="top"/>
  <anchor x="515" y="700" name="topright"/>
  <outline>
    <contour>
      <point x="275" y="-10" type="curve" smooth="yes"/>
      <point x="420" y="-10"/>
      <point x="490" y="60"/>
      <point x="490" y="240" type="curve" smooth="yes"/>
      <point x="490" y="700" type="line"/>
      <point x="370" y="700" type="line"/>
      <point x="370" y="240" type="line" smooth="yes"/>
      <point x="370" y="100"/>
      <point x="330" y="60"/>
      <point x="275" y="60" type="curve" smooth="yes"/>
      <point x="220" y="60"/>
      <point x="180" y="100"/>
      <point x="180" y="240" type="curve" smooth="yes"/>
      <point x="180" y="700" type="line"/>
      <point x="60" y="700" type="line"/>
      <point x="60" y="240" type="line" smooth="yes"/>
      <point x="60" y="60"/>
      <point x="130" y="-10"/>
    </contour>
  </outline>
</glyph>
<glyph name="V" format="2">
  <advance width="520"/>
  <unicode hex="0056"/>
  <outline>
    <contour>
      <point x="185" y="0" type="line"/>
      <point x="335" y="0" type="line"/>
      <point x="505" y="700" type="line"/>
      <point x="380" y="700" type="line"/>
      <point x="262" y="155" type="line"/>
      <point x="258" y="155" type="line"/>
      <point x="140" y="700" type="line"/>
      <point x="15" y="700" type="line"/>
    </contour>
  </outline>
</glyph>
<glyph name="W" format="2">
  <advance width="750"/>
  <unicode hex="0057"/>
  <outline>
    <contour>
      <point x="140" y="0" type="line"/>
      <point x="270" y="0" type="line"/>
      <point x="373" y="390" type="line"/>
      <point x="377" y="390" type="line"/>
      <point x="480" y="0" type="line"/>
      <point x="610" y="0" type="line"/>
      <point x="735" y="700" type="line"/>
      <point x="610" y="700" type="line"/>
      <point x="525" y="195" type="line"/>
      <point x="521" y="195" type="line"/>
      <point x="425" y="570" type="line"/>
      <point x="325" y="570" type="line"/>
      <point x="229" y="195" type="line"/>
      <point x="225" y="195" type="line"/>
      <point x="140" y="700" type="line"/>
      <point x="15" y="700" type="line"/>
    </contour>
  </outline>
</glyph>
<glyph name="X" format="2">
  <advance width="490"/>
  <unicode hex="0058"/>
  <outline>
    <contour>
      <point x="10" y="0" type="line"/>
      <point x="135" y="0" type="line"/>
      <point x="245" y="285" type="line"/>
      <point x="355" y="0" type="line"/>
      <point x="480" y="0" type="line"/>
      <point x="335" y="360" type="line"/>
      <point x="465" y="700" type="line"/>
      <point x="340" y="700" type="line"/>
      <point x="245" y="440" type="line"/>
      <point x="150" y="700" type="line"/>
      <point x="25" y="700" type="line"/>
      <point x="155" y="360" type="line"/>
    </contour>
  </outline>
</glyph>
<glyph name="Y" format="2">
  <advance width="480"/>
  <unicode hex="0059"/>
  <anchor x="240" y="0" name="bottom"/>
  <anchor x="240" y="700" name="top"/>
  <anchor x="20" y="700" name="topleft"/>
  <outline>
    <contour>
      <point x="180" y="0" type="line"/>
      <point x="300" y="0" type="line"/>
      <point x="300" y="210" type="line"/>
      <point x="475" y="700" type="line"/>
      <point x="350" y="700" type="line"/>
      <point x="240" y="359" type="line"/>
      <point x="130" y="700" type="line"/>
      <point x="5" y="700" type="line"/>
      <point x="180" y="210" type="line"/>
    </contour>
  </outline>
</glyph>
<glyph name="Z" format="2">
  <advance width="435"/>
  <unicode hex="005A"/>
  <outline>
    <contour>
      <point x="20" y="0" type="line"/>
      <point x="410" y="0" type="line"/>
      <point x="410" y="80" type="line"/>
      <point x="155" y="80" type="line"/>
      <point x="415" y="625" type="line"/>
      <point x="415" y="700" type="line"/>
      <point x="25" y="700" type="line"/>
      <point x="25" y="620" type="line"/>
      <point x="280" y="620" type="line"/>
      <point x="20" y="75" type="line"/>
    </contour>
  </outline>
</glyph>
<glyph name="bracketleft" format="2">
  <advance width="285"/>
  <unicode hex="005B"/>
  <outline>
    <contour>
      <point x="70" y="-180" type="line"/>
      <point x="285" y="-180" type="line"/>
      <point x="285" y="-110" type="line"/>
      <point x="190" y="-110" type="line"/>
      <point x="190" y="670" type="line"/>
      <point x="285" y="670" type="line"/>
      <point x="285" y="740" type="line"/>
      <point x="70" y="740" type="line"/>
    </contour>
  </outline>
</glyph>
<glyph name="bracketright" format="2">
  <advance width="285"/>
  <unicode hex="005D"/>
  <outline>
    <contour>
      <point x="0" y="-180" type="line"/>
      <point x="215" y="-180" type="line"/>
      <point x="215" y="740" type="line"/>
      <point x="0" y="740" type="line"/>
      <point x="0" y="670" type="line"/>
      <point x="95" y="670" type="line"/>
      <point x="95" y="-110" type="line"/>
      <point x="0" y="-110" type="line"/>
    </contour>
  </outline>
</glyph>
<glyph name="asciicircum" format="2">
  <advance width="475"/>
  <unicode hex="005E"/>
  <outline>
    <contour>
      <point x="115" y="395" type="line"/>
      <point x="235" y="595" type="line"/>
      <point x="240" y="595" type="line"/>
      <point x="360" y="395" type="line"/>
      <point x="445" y="450" type="line"/>
      <point x="290" y="700" type="line"/>
      <point x="185" y="700" type="line"/>
      <point x="30" y="450" type="line"/>
    </contour>
  </outline>
</glyph>
<glyph name="grave" format="2">
  <advance width="200"/>
  <unicode hex="0060"/>
  <outline>
    <contour>
      <point x="99" y="560" type="line"/>
      <point x="174" y="560" type="line"/>
      <point x="139" y="690" type="line"/>
      <point x="24" y="690" type="line"/>
    </contour>
  </outline>
</glyph>
<glyph name="c" format="2">
  <advance width="395"/>
  <unicode hex="0063"/>
  <outline>
    <contour>
      <point x="250" y="-10" type="curve" smooth="yes"/>
      <point x="300" y="-10"/>
      <point x="350" y="0"/>
      <point x="380" y="10" type="curve"/>
      <point x="380" y="60" type="line"/>
      <point x="270" y="60" type="line" smooth="yes"/>
      <point x="200" y="60"/>
      <point x="160" y="100"/>
      <point x="160" y="250" type="curve" smooth="yes"/>
      <point x="160" y="400"/>
      <point x="200" y="440"/>
      <point x="260" y="440" type="curve" smooth="yes"/>
      <point x="370" y="440" type="line"/>
      <point x="370" y="490" type="line"/>
      <point x="340" y="500"/>
      <point x="290" y="510"/>
      <point x="240" y="510" type="curve" smooth="yes"/>
      <point x="110" y="510"/>
      <point x="40" y="440"/>
      <point x="40" y="250" type="curve" smooth="yes"/>
      <point x="40" y="60"/>
      <point x="110" y="-10"/>
    </contour>
  </outline>
</glyph>
<glyph name="d" format="2">
  <advance width="495"/>
  <unicode hex="0064"/>
  <anchor x="248" y="0" name="bottom"/>
  <anchor x="318" y="595" name="center"/>
  <anchor x="248" y="500" name="top"/>
  <anchor x="475" y="500" name="topright"/>
  <outline>
    <contour>
      <point x="210" y="-10" type="curve" smooth="yes"/>
      <point x="265" y="-10"/>
      <point x="299" y="10"/>
      <point x="320" y="30" type="curve"/>
      <point x="325" y="30" type="line"/>
      <point x="340" y="0" type="line"/>
      <point x="425" y="0" type="line"/>
      <point x="425" y="700" type="line"/>
      <point x="305" y="700" type="line"/>
      <point x="305" y="485" type="line"/>
      <point x="284" y="500"/>
      <point x="255" y="510"/>
      <point x="220" y="510" type="curve" smooth="yes"/>
      <point x="110" y="510"/>
      <point x="40" y="440"/>
      <point x="40" y="250" type="curve" smooth="yes"/>
      <point x="40" y="60"/>
      <point x="110" y="-10"/>
    </contour>
    <contour>
      <point x="250" y="60" type="curve" smooth="yes"/>
      <point x="200" y="60"/>
      <point x="160" y="100"/>
      <point x="160" y="250" type="curve" smooth="yes"/>
      <point x="160" y="400"/>
      <point x="200" y="440"/>
      <point x="250" y="440" type="curve" smooth="yes"/>
      <point x="275" y="440"/>
      <point x="295" y="430"/>
      <point x="305" y="420" type="curve"/>
      <point x="305" y="80" type="line"/>
      <point x="290" y="70"/>
      <point x="275" y="60"/>
    </contour>
  </outline>
</glyph>
<glyph name="f" format="2">
  <advance width="340"/>
  <unicode hex="0066"/>
  <outline>
    <contour>
      <point x="75" y="0" type="line"/>
      <point x="195" y="0" type="line"/>
      <point x="195" y="415" type="line"/>
      <point x="200" y="415" type="line" smooth="yes"/>
      <point x="250" y="415"/>
      <point x="300" y="425"/>
      <point x="330" y="435" type="curve"/>
      <point x="330" y="490" type="line"/>
      <point x="195" y="490" type="line"/>
      <point x="195" y="530" type="line" smooth="yes"/>
      <point x="195" y="610"/>
      <point x="230" y="630"/>
      <point x="270" y="630" type="curve" smooth="yes"/>
      <point x="350" y="630" type="line"/>
      <point x="350" y="680" type="line"/>
      <point x="325" y="690"/>
      <point x="270" y="700"/>
      <point x="230" y="700" type="curve" smooth="yes"/>
      <point x="145" y="700"/>
      <point x="75" y="670"/>
      <point x="75" y="530" type="curve" smooth="yes"/>
      <point x="75" y="490" type="line"/>
      <point x="20" y="490" type="line"/>
      <point x="20" y="415" type="line"/>
      <point x="75" y="415" type="line"/>
    </contour>
  </outline>
</glyph>
<glyph name="g" format="2">
  <advance width="490"/>
  <unicode hex="0067"/>
  <anchor x="240" y="500" name="top"/>
  <outline>
    <contour>
      <point x="210" y="-210" type="curve" smooth="yes"/>
      <point x="355" y="-210"/>
      <point x="425" y="-140"/>
      <point x="425" y="40" type="curve" smooth="yes"/>
      <point x="425" y="480" type="line"/>
      <point x="375" y="500"/>
      <point x="330" y="510"/>
      <point x="260" y="510" type="curve" smooth="yes"/>
      <point x="110" y="510"/>
      <point x="40" y="440"/>
      <point x="40" y="250" type="curve" smooth="yes"/>
      <point x="40" y="60"/>
      <point x="110" y="-10"/>
      <point x="220" y="-10" type="curve" smooth="yes"/>
      <point x="255" y="-10"/>
      <point x="285" y="0"/>
      <point x="305" y="15" type="curve"/>
      <point x="305" y="-100"/>
      <point x="265" y="-140"/>
      <point x="190" y="-140" type="curve" smooth="yes"/>
      <point x="80" y="-140" type="line"/>
      <point x="80" y="-190" type="line"/>
      <point x="110" y="-200"/>
      <point x="160" y="-210"/>
    </contour>
    <contour>
      <point x="250" y="60" type="curve" smooth="yes"/>
      <point x="200" y="60"/>
      <point x="160" y="100"/>
      <point x="160" y="250" type="curve" smooth="yes"/>
      <point x="160" y="400"/>
      <point x="200" y="440"/>
      <point x="260" y="440" type="curve" smooth="yes"/>
      <point x="305" y="440" type="line"/>
      <point x="305" y="80" type="line"/>
      <point x="295" y="70"/>
      <point x="275" y="60"/>
    </contour>
  </outline>
</glyph>
<glyph name="h" format="2">
  <advance width="510"/>
  <unicode hex="0068"/>
  <outline>
    <contour>
      <point x="70" y="0" type="line"/>
      <point x="190" y="0" type="line"/>
      <point x="190" y="420" type="line"/>
      <point x="200" y="430"/>
      <point x="220" y="440"/>
      <point x="245" y="440" type="curve" smooth="yes"/>
      <point x="285" y="440"/>
      <point x="325" y="420"/>
      <point x="325" y="350" type="curve" smooth="yes"/>
      <point x="325" y="0" type="line"/>
      <point x="445" y="0" type="line"/>
      <point x="445" y="350" type="line" smooth="yes"/>
      <point x="445" y="480"/>
      <point x="375" y="510"/>
      <point x="290" y="510" type="curve" smooth="yes"/>
      <point x="250" y="510"/>
      <point x="215" y="500"/>
      <point x="190" y="480" type="curve"/>
      <point x="190" y="700" type="line"/>
      <point x="70" y="700" type="line"/>
    </contour>
  </outline>
</glyph>
<glyph name="i" format="2">
  <advance width="260"/>
  <unicode hex="0069"/>
  <anchor x="130" y="0" name="bottom"/>
  <outline>
    <contour>
      <point x="70" y="0" type="line"/>
      <point x="190" y="0" type="line"/>
      <point x="190" y="500" type="line"/>
      <point x="70" y="500" type="line"/>
    </contour>
    <contour>
      <point x="70" y="560" type="line"/>
      <point x="190" y="560" type="line"/>
      <point x="190" y="680" type="line"/>
      <point x="70" y="680" type="line"/>
    </contour>
  </outline>
</glyph>
<glyph name="j" format="2">
  <advance width="265"/>
  <unicode hex="006A"/>
  <outline>
    <contour>
      <point x="40" y="-210" type="curve" smooth="yes"/>
      <point x="125" y="-210"/>
      <point x="195" y="-180"/>
      <point x="195" y="-40" type="curve" smooth="yes"/>
      <point x="195" y="500" type="line"/>
      <point x="75" y="500" type="line"/>
      <point x="75" y="-40" type="line" smooth="yes"/>
      <point x="75" y="-110"/>
      <point x="45" y="-140"/>
      <point x="10" y="-140" type="curve" smooth="yes"/>
      <point x="-60" y="-140" type="line"/>
      <point x="-60" y="-190" type="line"/>
      <point x="-35" y="-200"/>
      <point x="0" y="-210"/>
    </contour>
    <contour>
      <point x="75" y="560" type="line"/>
      <point x="195" y="560" type="line"/>
      <point x="195" y="680" type="line"/>
      <point x="75" y="680" type="line"/>
    </contour>
  </outline>
</glyph>
<glyph name="k" format="2">
  <advance width="460"/>
  <unicode hex="006B"/>
  <anchor x="250" y="0" name="bottom"/>
  <outline>
    <contour>
      <point x="70" y="0" type="line"/>
      <point x="190" y="0" type="line"/>
      <point x="190" y="245" type="line"/>
      <point x="320" y="0" type="line"/>
      <point x="450" y="0" type="line"/>
      <point x="305" y="265" type="line"/>
      <point x="440" y="500" type="line"/>
      <point x="310" y="500" type="line"/>
      <point x="190" y="285" type="line"/>
      <point x="190" y="700" type="line"/>
      <point x="70" y="700" type="line"/>
    </contour>
  </outline>
</glyph>
<glyph name="m" format="2">
  <advance width="740"/>
  <unicode hex="006D"/>
  <outline>
    <contour>
      <point x="65" y="0" type="line"/>
      <point x="185" y="0" type="line"/>
      <point x="185" y="420" type="line"/>
      <point x="195" y="430"/>
      <point x="215" y="440"/>
      <point x="240" y="440" type="curve" smooth="yes"/>
      <point x="270" y="440"/>
      <point x="310" y="420"/>
      <point x="310" y="350" type="curve" smooth="yes"/>
      <point x="310" y="0" type="line"/>
      <point x="430" y="0" type="line"/>
      <point x="430" y="350" type="line"/>
      <point x="430" y="380"/>
      <point x="425" y="410"/>
      <point x="420" y="425" type="curve"/>
      <point x="435" y="433"/>
      <point x="455" y="440"/>
      <point x="480" y="440" type="curve" smooth="yes"/>
      <point x="515" y="440"/>
      <point x="555" y="420"/>
      <point x="555" y="350" type="curve" smooth="yes"/>
      <point x="555" y="0" type="line"/>
      <point x="675" y="0" type="line"/>
      <point x="675" y="350" type="line" smooth="yes"/>
      <point x="675" y="480"/>
      <point x="605" y="510"/>
      <point x="525" y="510" type="curve" smooth="yes"/>
      <point x="465" y="510"/>
      <point x="425" y="495"/>
      <point x="395" y="470" type="curve"/>
      <point x="370" y="495"/>
      <point x="335" y="510"/>
      <point x="285" y="510" type="curve" smooth="yes"/>
      <point x="225" y="510"/>
      <point x="191" y="490"/>
      <point x="170" y="470" type="curve"/>
      <point x="165" y="470" type="line"/>
      <point x="150" y="500" type="line"/>
      <point x="65" y="500" type="line"/>
    </contour>
  </outline>
</glyph>
<glyph name="n" format="2">
  <advance width="505"/>
  <unicode hex="006E"/>
  <anchor x="257" y="0" name="bottom"/>
  <anchor x="242" y="500" name="top"/>
  <outline>
    <contour>
      <point x="65" y="0" type="line"/>
      <point x="185" y="0" type="line"/>
      <point x="185" y="420" type="line"/>
      <point x="195" y="430"/>
      <point x="215" y="440"/>
      <point x="240" y="440" type="curve" smooth="yes"/>
      <point x="280" y="440"/>
      <point x="320" y="420"/>
      <point x="320" y="350" type="curve" smooth="yes"/>
      <point x="320" y="0" type="line"/>
      <point x="440" y="0" type="line"/>
      <point x="440" y="350" type="line" smooth="yes"/>
      <point x="440" y="480"/>
      <point x="370" y="510"/>
      <point x="285" y="510" type="curve" smooth="yes"/>
      <point x="225" y="510"/>
      <point x="191" y="490"/>
      <point x="170" y="470" type="curve"/>
      <point x="165" y="470" type="line"/>
      <point x="150" y="500" type="line"/>
      <point x="65" y="500" type="line"/>
    </contour>
  </outline>
</glyph>
<glyph name="o" format="2">
  <advance width="480"/>
  <unicode hex="006F"/>
  <anchor x="240" y="0" name="bottom"/>
  <anchor x="240" y="250" name="center"/>
  <anchor x="432" y="10" name="ogonek"/>
  <anchor x="240" y="500" name="top"/>
  <anchor x="387" y="500" name="topright"/>
  <outline>
    <contour>
      <point x="240" y="-10" type="curve"/>
      <point x="370" y="-10"/>
      <point x="440" y="60"/>
      <point x="440" y="250" type="curve"/>
      <point x="440" y="440"/>
      <point x="370" y="510"/>
      <point x="240" y="510" type="curve"/>
      <point x="110" y="510"/>
      <point x="40" y="440"/>
      <point x="40" y="250" type="curve" smooth="yes"/>
      <point x="40" y="60"/>
      <point x="110" y="-10"/>
    </contour>
    <contour>
      <point x="240" y="55" type="curve"/>
      <point x="195" y="55"/>
      <point x="160" y="95"/>
      <point x="160" y="250" type="curve" smooth="yes"/>
      <point x="160" y="405"/>
      <point x="195" y="445"/>
      <point x="240" y="445" type="curve"/>
      <point x="285" y="445"/>
      <point x="320" y="405"/>
      <point x="320" y="250" type="curve"/>
      <point x="320" y="95"/>
      <point x="285" y="55"/>
    </contour>
  </outline>
</glyph>
<glyph name="q" format="2">
  <advance width="490"/>
  <unicode hex="0071"/>
  <outline>
    <contour>
      <point x="305" y="-200" type="line"/>
      <point x="425" y="-200" type="line"/>
      <point x="425" y="480" type="line"/>
      <point x="375" y="500"/>
      <point x="330" y="510"/>
      <point x="260" y="510" type="curve" smooth="yes"/>
      <point x="110" y="510"/>
      <point x="40" y="440"/>
      <point x="40" y="250" type="curve" smooth="yes"/>
      <point x="40" y="60"/>
      <point x="110" y="-10"/>
      <point x="220" y="-10" type="curve" smooth="yes"/>
      <point x="255" y="-10"/>
      <point x="284" y="0"/>
      <point x="305" y="15" type="curve"/>
    </contour>
    <contour>
      <point x="250" y="60" type="curve" smooth="yes"/>
      <point x="200" y="60"/>
      <point x="160" y="100"/>
      <point x="160" y="250" type="curve" smooth="yes"/>
      <point x="160" y="400"/>
      <point x="200" y="440"/>
      <point x="260" y="440" type="curve" smooth="yes"/>
      <point x="305" y="440" type="line"/>
      <point x="305" y="80" type="line"/>
      <point x="295" y="70"/>
      <point x="275" y="60"/>
    </contour>
  </outline>
</glyph>
<glyph name="t" format="2">
  <advance width="365"/>
  <unicode hex="0074"/>
  <outline>
    <contour>
      <point x="230" y="-10" type="curve" smooth="yes"/>
      <point x="270" y="-10"/>
      <point x="325" y="0"/>
      <point x="350" y="10" type="curve"/>
      <point x="350" y="60" type="line"/>
      <point x="260" y="60" type="line" smooth="yes"/>
      <point x="230" y="60"/>
      <point x="195" y="80"/>
      <point x="195" y="160" type="curve" smooth="yes"/>
      <point x="195" y="415" type="line"/>
      <point x="200" y="415" type="line"/>
      <point x="250" y="415"/>
      <point x="300" y="425"/>
      <point x="330" y="435" type="curve"/>
      <point x="330" y="490" type="line"/>
      <point x="195" y="490" type="line"/>
      <point x="195" y="610" type="line"/>
      <point x="75" y="610" type="line"/>
      <point x="75" y="490" type="line"/>
      <point x="20" y="490" type="line"/>
      <point x="20" y="415" type="line"/>
      <point x="75" y="415" type="line"/>
      <point x="75" y="160" type="line" smooth="yes"/>
      <point x="75" y="20"/>
      <point x="145" y="-10"/>
    </contour>
  </outline>
</glyph>
<glyph name="v" format="2">
  <advance width="470"/>
  <unicode hex="0076"/>
  <outline>
    <contour>
      <point x="160" y="0" type="line"/>
      <point x="310" y="0" type="line"/>
      <point x="455" y="500" type="line"/>
      <point x="335" y="500" type="line"/>
      <point x="237" y="125" type="line"/>
      <point x="233" y="125" type="line"/>
      <point x="135" y="500" type="line"/>
      <point x="15" y="500" type="line"/>
    </contour>
  </outline>
</glyph>
<glyph name="w" format="2">
  <advance width="650"/>
  <unicode hex="0077"/>
  <outline>
    <contour>
      <point x="115" y="0" type="line"/>
      <point x="245" y="0" type="line"/>
      <point x="323" y="245" type="line"/>
      <point x="327" y="245" type="line"/>
      <point x="405" y="0" type="line"/>
      <point x="535" y="0" type="line"/>
      <point x="635" y="500" type="line"/>
      <point x="515" y="500" type="line"/>
      <point x="454" y="150" type="line"/>
      <point x="450" y="150" type="line"/>
      <point x="370" y="400" type="line"/>
      <point x="280" y="400" type="line"/>
      <point x="200" y="150" type="line"/>
      <point x="196" y="150" type="line"/>
      <point x="135" y="500" type="line"/>
      <point x="15" y="500" type="line"/>
    </contour>
  </outline>
</glyph>
<glyph name="x" format="2">
  <advance width="430"/>
  <unicode hex="0078"/>
  <outline>
    <contour>
      <point x="10" y="0" type="line"/>
      <point x="135" y="0" type="line"/>
      <point x="215" y="185" type="line"/>
      <point x="295" y="0" type="line"/>
      <point x="420" y="0" type="line"/>
      <point x="300" y="255" type="line"/>
      <point x="415" y="500" type="line"/>
      <point x="290" y="500" type="line"/>
      <point x="215" y="325" type="line"/>
      <point x="140" y="500" type="line"/>
      <point x="15" y="500" type="line"/>
      <point x="130" y="255" type="line"/>
    </contour>
  </outline>
</glyph>
<glyph name="y" format="2">
  <advance width="505"/>
  <unicode hex="0079"/>
  <anchor x="516" y="0" name="bottom"/>
  <anchor x="253" y="500" name="top"/>
  <outline>
    <contour>
      <point x="225" y="-210" type="curve" smooth="yes"/>
      <point x="370" y="-210"/>
      <point x="440" y="-140"/>
      <point x="440" y="40" type="curve" smooth="yes"/>
      <point x="440" y="500" type="line"/>
      <point x="320" y="500" type="line"/>
      <point x="320" y="80" type="line"/>
      <point x="310" y="70"/>
      <point x="290" y="60"/>
      <point x="265" y="60" type="curve" smooth="yes"/>
      <point x="225" y="60"/>
      <point x="185" y="80"/>
      <point x="185" y="150" type="curve"/>
      <point x="185" y="500" type="line"/>
      <point x="65" y="500" type="line"/>
      <point x="65" y="150" type="line" smooth="yes"/>
      <point x="65" y="20"/>
      <point x="135" y="-10"/>
      <point x="220" y="-10" type="curve" smooth="yes"/>
      <point x="260" y="-10"/>
      <point x="295" y="0"/>
      <point x="320" y="20" type="curve"/>
      <point x="320" y="-100"/>
      <point x="280" y="-140"/>
      <point x="205" y="-140" type="curve" smooth="yes"/>
      <point x="95" y="-140" type="line"/>
      <point x="95" y="-190" type="line"/>
      <point x="125" y="-200"/>
      <point x="175" y="-210"/>
    </contour>
  </outline>
</glyph>
<glyph name="braceleft" format="2">
  <advance width="300"/>
  <unicode hex="007B"/>
  <outline>
    <contour>
      <point x="300" y="-180" type="curve"/>
      <point x="300" y="-110" type="line"/>
      <point x="255" y="-110"/>
      <point x="215" y="-99"/>
      <point x="215" y="-10" type="curve" smooth="yes"/>
      <point x="215" y="100" type="line" smooth="yes"/>
      <point x="215" y="210"/>
      <point x="175" y="245"/>
      <point x="125" y="278" type="curve"/>
      <point x="125" y="282" type="line"/>
      <point x="175" y="315"/>
      <point x="215" y="350"/>
      <point x="215" y="460" type="curve" smooth="yes"/>
      <point x="215" y="570" type="line"/>
      <point x="215" y="650"/>
      <point x="255" y="670"/>
      <point x="300" y="670" type="curve"/>
      <point x="300" y="740" type="line"/>
      <point x="165" y="740"/>
      <point x="95" y="710"/>
      <point x="95" y="570" type="curve" smooth="yes"/>
      <point x="95" y="440" type="line" smooth="yes"/>
      <point x="95" y="360"/>
      <point x="65" y="330"/>
      <point x="20" y="315" type="curve"/>
      <point x="20" y="245" type="line"/>
      <point x="65" y="230"/>
      <point x="95" y="200"/>
      <point x="95" y="120" type="curve" smooth="yes"/>
      <point x="95" y="-10" type="line" smooth="yes"/>
      <point x="95" y="-150"/>
      <point x="165" y="-180"/>
    </contour>
  </outline>
</glyph>
<glyph name="braceright" format="2">
  <advance width="300"/>
  <unicode hex="007D"/>
  <outline>
    <contour>
      <point x="0" y="-180" type="line"/>
      <point x="135" y="-180"/>
      <point x="205" y="-150"/>
      <point x="205" y="-10" type="curve" smooth="yes"/>
      <point x="205" y="120" type="line" smooth="yes"/>
      <point x="205" y="200"/>
      <point x="235" y="230"/>
      <point x="280" y="245" type="curve"/>
      <point x="280" y="315" type="line"/>
      <point x="235" y="330"/>
      <point x="205" y="360"/>
      <point x="205" y="440" type="curve" smooth="yes"/>
      <point x="205" y="570" type="line" smooth="yes"/>
      <point x="205" y="710"/>
      <point x="135" y="740"/>
      <point x="0" y="740" type="curve"/>
      <point x="0" y="670" type="line"/>
      <point x="45" y="670"/>
      <point x="85" y="650"/>
      <point x="85" y="570" type="curve"/>
      <point x="85" y="460" type="line" smooth="yes"/>
      <point x="85" y="350"/>
      <point x="125" y="315"/>
      <point x="175" y="282" type="curve"/>
      <point x="175" y="278" type="line"/>
      <point x="125" y="245"/>
      <point x="85" y="210"/>
      <point x="85" y="100" type="curve" smooth="yes"/>
      <point x="85" y="-10" type="line" smooth="yes"/>
      <point x="85" y="-99"/>
      <point x="45" y="-110"/>
      <point x="0" y="-110" type="curve"/>
    </contour>
  </outline>
</glyph>
<glyph name="asciitilde" format="2">
  <advance width="460"/>
  <unicode hex="007E"/>
  <outline>
    <contour>
      <point x="155" y="185" type="curve" smooth="yes"/>
      <point x="245" y="185"/>
      <point x="260" y="265"/>
      <point x="305" y="265" type="curve" smooth="yes"/>
      <point x="335" y="265"/>
      <point x="350" y="235"/>
      <point x="350" y="190" type="curve"/>
      <point x="430" y="190" type="line"/>
      <point x="430" y="305"/>
      <point x="400" y="375"/>
      <point x="305" y="375" type="curve" smooth="yes"/>
      <point x="215" y="375"/>
      <point x="200" y="295"/>
      <point x="155" y="295" type="curve" smooth="yes"/>
      <point x="125" y="295"/>
      <point x="110" y="325"/>
      <point x="110" y="370" type="curve"/>
      <point x="30" y="370" type="line"/>
      <point x="30" y="255"/>
      <point x="60" y="185"/>
    </contour>
  </outline>
</glyph>
<glyph name="exclamdown" format="2">
  <advance width="260"/>
  <unicode hex="00A1"/>
  <outline>
    <contour>
      <point x="60" y="0" type="line"/>
      <point x="200" y="0" type="line"/>
      <point x="180" y="515" type="line"/>
      <point x="80" y="515" type="line"/>
    </contour>
    <contour>
      <point x="70" y="590" type="line"/>
      <point x="190" y="590" type="line"/>
      <point x="190" y="710" type="line"/>
      <point x="70" y="710" type="line"/>
    </contour>
  </outline>
</glyph>
<glyph name="cent" format="2">
  <advance width="395"/>
  <unicode hex="00A2"/>
  <outline>
    <contour>
      <point x="225" y="-60" type="line"/>
      <point x="295" y="-60" type="line"/>
      <point x="295" y="-7" type="line"/>
      <point x="328" y="-4"/>
      <point x="359" y="3"/>
      <point x="380" y="10" type="curve"/>
      <point x="380" y="60" type="line"/>
      <point x="295" y="60" type="line"/>
      <point x="295" y="440" type="line"/>
      <point x="370" y="440" type="line"/>
      <point x="370" y="490" type="line"/>
      <point x="351" y="496"/>
      <point x="324" y="502"/>
      <point x="295" y="506" type="curve"/>
      <point x="295" y="570" type="line"/>
      <point x="225" y="570" type="line"/>
      <point x="225" y="509" type="line"/>
      <point x="104" y="504"/>
      <point x="40" y="432"/>
      <point x="40" y="250" type="curve" smooth="yes"/>
      <point x="40" y="71"/>
      <point x="101" y="-1"/>
      <point x="225" y="-9" type="curve"/>
    </contour>
    <contour>
      <point x="225" y="68" type="line"/>
      <point x="183" y="85"/>
      <point x="160" y="136"/>
      <point x="160" y="250" type="curve" smooth="yes"/>
      <point x="160" y="368"/>
      <point x="185" y="418"/>
      <point x="225" y="434" type="curve"/>
    </contour>
  </outline>
</glyph>
<glyph name="sterling" format="2">
  <advance width="435"/>
  <unicode hex="00A3"/>
  <outline>
    <contour>
      <point x="45" y="0" type="line"/>
      <point x="415" y="0" type="line"/>
      <point x="415" y="80" type="line"/>
      <point x="160" y="80" type="line"/>
      <point x="160" y="84" type="line"/>
      <point x="185" y="105"/>
      <point x="210" y="144"/>
      <point x="210" y="234" type="curve" smooth="yes"/>
      <point x="210" y="315" type="line"/>
      <point x="355" y="315" type="line"/>
      <point x="355" y="395" type="line"/>
      <point x="210" y="395" type="line"/>
      <point x="210" y="500" type="line" smooth="yes"/>
      <point x="210" y="615"/>
      <point x="250" y="635"/>
      <point x="305" y="635" type="curve" smooth="yes"/>
      <point x="405" y="635" type="line"/>
      <point x="405" y="690" type="line"/>
      <point x="380" y="700"/>
      <point x="345" y="710"/>
      <point x="305" y="710" type="curve" smooth="yes"/>
      <point x="160" y="710"/>
      <point x="90" y="680"/>
      <point x="90" y="500" type="curve" smooth="yes"/>
      <point x="90" y="395" type="line"/>
      <point x="35" y="395" type="line"/>
      <point x="35" y="315" type="line"/>
      <point x="90" y="315" type="line"/>
      <point x="90" y="210" type="line" smooth="yes"/>
      <point x="90" y="110"/>
      <point x="75" y="80"/>
      <point x="45" y="60" type="curve"/>
    </contour>
  </outline>
</glyph>
<glyph name="currency" format="2">
  <advance width="520"/>
  <unicode hex="00A4"/>
  <outline>
    <contour>
      <point x="80" y="125" type="line"/>
      <point x="150" y="190" type="line"/>
      <point x="170" y="175"/>
      <point x="210" y="160"/>
      <point x="260" y="160" type="curve"/>
      <point x="310" y="160"/>
      <point x="350" y="175"/>
      <point x="370" y="190" type="curve"/>
      <point x="440" y="125" type="line"/>
      <point x="500" y="185" type="line"/>
      <point x="430" y="255" type="line"/>
      <point x="445" y="275"/>
      <point x="455" y="315"/>
      <point x="455" y="350" type="curve"/>
      <point x="455" y="385"/>
      <point x="445" y="425"/>
      <point x="430" y="445" type="curve"/>
      <point x="500" y="515" type="line"/>
      <point x="440" y="575" type="line"/>
      <point x="370" y="510" type="line"/>
      <point x="350" y="525"/>
      <point x="310" y="540"/>
      <point x="260" y="540" type="curve" smooth="yes"/>
      <point x="210" y="540"/>
      <point x="170" y="525"/>
      <point x="150" y="510" type="curve"/>
      <point x="80" y="575" type="line"/>
      <point x="20" y="515" type="line"/>
      <point x="90" y="445" type="line"/>
      <point x="75" y="425"/>
      <point x="65" y="385"/>
      <point x="65" y="350" type="curve"/>
      <point x="65" y="315"/>
      <point x="75" y="275"/>
      <point x="90" y="255" type="curve"/>
      <point x="20" y="185" type="line"/>
    </contour>
    <contour>
      <point x="260" y="235" type="curve"/>
      <point x="220" y="235"/>
      <point x="180" y="275"/>
      <point x="180" y="350" type="curve"/>
      <point x="180" y="425"/>
      <point x="220" y="465"/>
      <point x="260" y="465" type="curve" smooth="yes"/>
      <point x="300" y="465"/>
      <point x="340" y="425"/>
      <point x="340" y="350" type="curve"/>
      <point x="340" y="275"/>
      <point x="300" y="235"/>
    </contour>
  </outline>
</glyph>
<glyph name="section" format="2">
  <advance width="465"/>
  <unicode hex="00A7"/>
  <outline>
    <contour>
      <point x="205" y="-210" type="curve" smooth="yes"/>
      <point x="355" y="-210"/>
      <point x="425" y="-140"/>
      <point x="425" y="-50" type="curve" smooth="yes"/>
      <point x="425" y="30"/>
      <point x="380" y="70"/>
      <point x="330" y="100" type="curve"/>
      <point x="380" y="125"/>
      <point x="425" y="174"/>
      <point x="425" y="250" type="curve" smooth="yes"/>
      <point x="425" y="455"/>
      <point x="170" y="425"/>
      <point x="170" y="550" type="curve" smooth="yes"/>
      <point x="170" y="600"/>
      <point x="210" y="640"/>
      <point x="280" y="640" type="curve" smooth="yes"/>
      <point x="405" y="640" type="line"/>
      <point x="405" y="690" type="line"/>
      <point x="375" y="700"/>
      <point x="320" y="710"/>
      <point x="260" y="710" type="curve" smooth="yes"/>
      <point x="120" y="710"/>
      <point x="50" y="640"/>
      <point x="50" y="550" type="curve" smooth="yes"/>
      <point x="50" y="470"/>
      <point x="90" y="435"/>
      <point x="140" y="405" type="curve"/>
      <point x="85" y="375"/>
      <point x="40" y="324"/>
      <point x="40" y="250" type="curve" smooth="yes"/>
      <point x="40" y="45"/>
      <point x="305" y="75"/>
      <point x="305" y="-50" type="curve" smooth="yes"/>
      <point x="305" y="-100"/>
      <point x="265" y="-140"/>
      <point x="185" y="-140" type="curve" smooth="yes"/>
      <point x="60" y="-140" type="line"/>
      <point x="60" y="-190" type="line"/>
      <point x="90" y="-200"/>
      <point x="145" y="-210"/>
    </contour>
    <contour>
      <point x="255" y="135" type="curve"/>
      <point x="205" y="160"/>
      <point x="160" y="195"/>
      <point x="160" y="250" type="curve" smooth="yes"/>
      <point x="160" y="310"/>
      <point x="180" y="345"/>
      <point x="210" y="365" type="curve"/>
      <point x="260" y="340"/>
      <point x="305" y="305"/>
      <point x="305" y="250" type="curve" smooth="yes"/>
      <point x="305" y="190"/>
      <point x="285" y="155"/>
    </contour>
  </outline>
</glyph>
<glyph name="dieresis" format="2">
  <advance width="310"/>
  <unicode hex="00A8"/>
  <outline>
    <contour>
      <point x="180" y="570" type="line"/>
      <point x="290" y="570" type="line"/>
      <point x="290" y="690" type="line"/>
      <point x="180" y="690" type="line"/>
    </contour>
    <contour>
      <point x="20" y="570" type="line"/>
      <point x="130" y="570" type="line"/>
      <point x="130" y="690" type="line"/>
      <point x="20" y="690" type="line"/>
    </contour>
  </outline>
</glyph>
<glyph name="copyright" format="2">
  <advance width="840"/>
  <unicode hex="00A9"/>
  <outline>
    <contour>
      <point x="420" y="-20" type="curve" smooth="yes"/>
      <point x="645" y="-20"/>
      <point x="795" y="130"/>
      <point x="795" y="350" type="curve" smooth="yes"/>
      <point x="795" y="570"/>
      <point x="645" y="720"/>
      <point x="420" y="720" type="curve" smooth="yes"/>
      <point x="195" y="720"/>
      <point x="45" y="570"/>
      <point x="45" y="350" type="curve" smooth="yes"/>
      <point x="45" y="130"/>
      <point x="195" y="-20"/>
    </contour>
    <contour>
      <point x="430" y="130" type="curve" smooth="yes"/>
      <point x="485" y="130"/>
      <point x="535" y="140"/>
      <point x="565" y="150" type="curve"/>
      <point x="565" y="200" type="line"/>
      <point x="450" y="200" type="line" smooth="yes"/>
      <point x="395" y="200"/>
      <point x="355" y="220"/>
      <point x="355" y="350" type="curve" smooth="yes"/>
      <point x="355" y="480"/>
      <point x="395" y="500"/>
      <point x="450" y="500" type="curve" smooth="yes"/>
      <point x="555" y="500" type="line"/>
      <point x="555" y="550" type="line"/>
      <point x="525" y="560"/>
      <point x="485" y="570"/>
      <point x="430" y="570" type="curve" smooth="yes"/>
      <point x="315" y="570"/>
      <point x="245" y="530"/>
      <point x="245" y="350" type="curve" smooth="yes"/>
      <point x="245" y="170"/>
      <point x="315" y="130"/>
    </contour>
    <contour>
      <point x="420" y="50" type="curve" smooth="yes"/>
      <point x="255" y="50"/>
      <point x="145" y="160"/>
      <point x="145" y="350" type="curve" smooth="yes"/>
      <point x="145" y="540"/>
      <point x="255" y="650"/>
      <point x="420" y="650" type="curve" smooth="yes"/>
      <point x="585" y="650"/>
      <point x="695" y="540"/>
      <point x="695" y="350" type="curve" smooth="yes"/>
      <point x="695" y="160"/>
      <point x="585" y="50"/>
    </contour>
  </outline>
</glyph>
<glyph name="guillemetleft" format="2">
  <advance width="510"/>
  <unicode hex="00AB"/>
  <outline>
    <contour>
      <point x="395" y="20" type="line"/>
      <point x="480" y="75" type="line"/>
      <point x="350" y="247" type="line"/>
      <point x="350" y="253" type="line"/>
      <point x="480" y="425" type="line"/>
      <point x="395" y="480" type="line"/>
      <point x="220" y="250" type="line"/>
    </contour>
    <contour>
      <point x="195" y="20" type="line"/>
      <point x="280" y="75" type="line"/>
      <point x="150" y="247" type="line"/>
      <point x="150" y="253" type="line"/>
      <point x="280" y="425" type="line"/>
      <point x="195" y="480" type="line"/>
      <point x="20" y="250" type="line"/>
    </contour>
  </outline>
</glyph>
<glyph name="logicalnot" format="2">
  <advance width="445"/>
  <unicode hex="00AC"/>
  <outline>
    <contour>
      <point x="330" y="240" type="line"/>
      <point x="415" y="240" type="line"/>
      <point x="415" y="415" type="line"/>
      <point x="30" y="415" type="line"/>
      <point x="30" y="335" type="line"/>
      <point x="315" y="335" type="line"/>
    </contour>
  </outline>
</glyph>
<glyph name="softhyphen" format="2">
  <advance width="360"/>
  <unicode hex="00AD"/>
  <outline>
    <contour>
      <point x="30" y="260" type="line"/>
      <point x="330" y="260" type="line"/>
      <point x="330" y="340" type="line"/>
      <point x="30" y="340" type="line"/>
    </contour>
  </outline>
</glyph>
<glyph name="registered" format="2">
  <advance width="840"/>
  <unicode hex="00AE"/>
  <outline>
    <contour>
      <point x="420" y="-20" type="curve"/>
      <point x="645" y="-20"/>
      <point x="795" y="130"/>
      <point x="795" y="350" type="curve"/>
      <point x="795" y="570"/>
      <point x="645" y="720"/>
      <point x="420" y="720" type="curve" smooth="yes"/>
      <point x="195" y="720"/>
      <point x="45" y="570"/>
      <point x="45" y="350" type="curve"/>
      <point x="45" y="130"/>
      <point x="195" y="-20"/>
    </contour>
    <contour>
      <point x="420" y="50" type="curve"/>
      <point x="255" y="50"/>
      <point x="145" y="160"/>
      <point x="145" y="350" type="curve"/>
      <point x="145" y="540"/>
      <point x="255" y="650"/>
      <point x="420" y="650" type="curve" smooth="yes"/>
      <point x="585" y="650"/>
      <point x="695" y="540"/>
      <point x="695" y="350" type="curve"/>
      <point x="695" y="160"/>
      <point x="585" y="50"/>
    </contour>
    <contour>
      <point x="265" y="140" type="line"/>
      <point x="375" y="140" type="line"/>
      <point x="375" y="285" type="line"/>
      <point x="415" y="285" type="line"/>
      <point x="485" y="140" type="line"/>
      <point x="600" y="140" type="line"/>
      <point x="515" y="305" type="line"/>
      <point x="546" y="320"/>
      <point x="590" y="345"/>
      <point x="590" y="430" type="curve" smooth="yes"/>
      <point x="590" y="530"/>
      <point x="530" y="570"/>
      <point x="410" y="570" type="curve" smooth="yes"/>
      <point x="340" y="570"/>
      <point x="300" y="560"/>
      <point x="265" y="550" type="curve"/>
    </contour>
    <contour>
      <point x="375" y="355" type="line"/>
      <point x="375" y="500" type="line"/>
      <point x="410" y="500" type="line" smooth="yes"/>
      <point x="450" y="500"/>
      <point x="480" y="480"/>
      <point x="480" y="430" type="curve" smooth="yes"/>
      <point x="480" y="375"/>
      <point x="450" y="355"/>
      <point x="410" y="355" type="curve" smooth="yes"/>
    </contour>
  </outline>
</glyph>
<glyph name="macron" format="2">
  <advance width="280"/>
  <unicode hex="00AF"/>
  <outline>
    <contour>
      <point x="20" y="630" type="line"/>
      <point x="260" y="630" type="line"/>
      <point x="260" y="700" type="line"/>
      <point x="20" y="700" type="line"/>
    </contour>
  </outline>
</glyph>
<glyph name="plusminus" format="2">
  <advance width="450"/>
  <unicode hex="00B1"/>
  <outline>
    <contour>
      <point x="180" y="150" type="line"/>
      <point x="270" y="150" type="line"/>
      <point x="270" y="300" type="line"/>
      <point x="420" y="300" type="line"/>
      <point x="420" y="380" type="line"/>
      <point x="270" y="380" type="line"/>
      <point x="270" y="540" type="line"/>
      <point x="180" y="540" type="line"/>
      <point x="180" y="380" type="line"/>
      <point x="30" y="380" type="line"/>
      <point x="30" y="300" type="line"/>
      <point x="180" y="300" type="line"/>
    </contour>
    <contour>
      <point x="30" y="45" type="line"/>
      <point x="420" y="45" type="line"/>
      <point x="420" y="125" type="line"/>
      <point x="30" y="125" type="line"/>
    </contour>
  </outline>
</glyph>
<glyph name="twosuperior" format="2">
  <advance width="270"/>
  <unicode hex="00B2"/>
  <outline>
    <contour>
      <point x="30" y="400" type="line"/>
      <point x="240" y="400" type="line"/>
      <point x="240" y="460" type="line"/>
      <point x="125" y="460" type="line"/>
      <point x="205" y="520"/>
      <point x="240" y="560"/>
      <point x="240" y="605" type="curve" smooth="yes"/>
      <point x="240" y="670"/>
      <point x="205" y="705"/>
      <point x="125" y="705" type="curve" smooth="yes"/>
      <point x="95" y="705"/>
      <point x="60" y="700"/>
      <point x="40" y="694" type="curve"/>
      <point x="40" y="645" type="line"/>
      <point x="110" y="645" type="line" smooth="yes"/>
      <point x="140" y="645"/>
      <point x="155" y="625"/>
      <point x="155" y="605" type="curve" smooth="yes"/>
      <point x="155" y="570"/>
      <point x="100" y="520"/>
      <point x="30" y="465" type="curve"/>
    </contour>
  </outline>
</glyph>
<glyph name="threesuperior" format="2">
  <advance width="270"/>
  <unicode hex="00B3"/>
  <outline>
    <contour>
      <point x="110" y="395" type="curve" smooth="yes"/>
      <point x="195" y="395"/>
      <point x="240" y="415"/>
      <point x="240" y="485" type="curve" smooth="yes"/>
      <point x="240" y="530"/>
      <point x="210" y="555"/>
      <point x="185" y="560" type="curve"/>
      <point x="205" y="565"/>
      <point x="230" y="585"/>
      <point x="230" y="620" type="curve" smooth="yes"/>
      <point x="230" y="685"/>
      <point x="185" y="705"/>
      <point x="115" y="705" type="curve" smooth="yes"/>
      <point x="80" y="705"/>
      <point x="49" y="700"/>
      <point x="30" y="694" type="curve"/>
      <point x="30" y="645" type="line"/>
      <point x="104" y="645" type="line" smooth="yes"/>
      <point x="135" y="645"/>
      <point x="145" y="630"/>
      <point x="145" y="615" type="curve" smooth="yes"/>
      <point x="145" y="600"/>
      <point x="135" y="585"/>
      <point x="110" y="585" type="curve" smooth="yes"/>
      <point x="65" y="585" type="line"/>
      <point x="65" y="525" type="line"/>
      <point x="115" y="525" type="line" smooth="yes"/>
      <point x="140" y="525"/>
      <point x="155" y="510"/>
      <point x="155" y="490" type="curve" smooth="yes"/>
      <point x="155" y="470"/>
      <point x="140" y="455"/>
      <point x="110" y="455" type="curve" smooth="yes"/>
      <point x="30" y="455" type="line"/>
      <point x="30" y="406" type="line"/>
      <point x="50" y="400"/>
      <point x="80" y="395"/>
    </contour>
  </outline>
</glyph>
<glyph name="paragraph" format="2">
  <advance width="565"/>
  <unicode hex="00B6"/>
  <outline>
    <contour>
      <point x="225" y="-200" type="line"/>
      <point x="335" y="-200" type="line"/>
      <point x="335" y="620" type="line"/>
      <point x="375" y="620" type="line"/>
      <point x="375" y="-200" type="line"/>
      <point x="485" y="-200" type="line"/>
      <point x="485" y="620" type="line"/>
      <point x="545" y="620" type="line"/>
      <point x="545" y="700" type="line"/>
      <point x="225" y="700" type="line" smooth="yes"/>
      <point x="100" y="700"/>
      <point x="30" y="610"/>
      <point x="30" y="515" type="curve" smooth="yes"/>
      <point x="30" y="400"/>
      <point x="100" y="330"/>
      <point x="225" y="330" type="curve"/>
    </contour>
  </outline>
</glyph>
<glyph name="periodcentered" format="2">
  <advance width="280"/>
  <unicode hex="00B7"/>
  <outline>
    <contour>
      <point x="80" y="290" type="line"/>
      <point x="200" y="290" type="line"/>
      <point x="200" y="410" type="line"/>
      <point x="80" y="410" type="line"/>
    </contour>
  </outline>
</glyph>
<glyph name="cedilla" format="2">
  <advance width="215"/>
  <unicode hex="00B8"/>
  <outline>
    <contour>
      <point x="95" y="-170" type="curve" smooth="yes"/>
      <point x="160" y="-170"/>
      <point x="195" y="-140"/>
      <point x="195" y="-100" type="curve" smooth="yes"/>
      <point x="195" y="-60"/>
      <point x="165" y="-30"/>
      <point x="105" y="-30" type="curve" smooth="yes"/>
      <point x="90" y="-30" type="line"/>
      <point x="90" y="15" type="line"/>
      <point x="35" y="15" type="line"/>
      <point x="35" y="-79" type="line"/>
      <point x="90" y="-79" type="line" smooth="yes"/>
      <point x="115" y="-79"/>
      <point x="120" y="-90"/>
      <point x="120" y="-100" type="curve" smooth="yes"/>
      <point x="120" y="-111"/>
      <point x="115" y="-121"/>
      <point x="85" y="-121" type="curve" smooth="yes"/>
      <point x="20" y="-121" type="line"/>
      <point x="20" y="-155" type="line"/>
      <point x="20" y="-155"/>
      <point x="45" y="-170"/>
    </contour>
  </outline>
</glyph>
<glyph name="onesuperior" format="2">
  <advance width="200"/>
  <unicode hex="00B9"/>
  <outline>
    <contour>
      <point x="85" y="400" type="line"/>
      <point x="170" y="400" type="line"/>
      <point x="170" y="700" type="line"/>
      <point x="130" y="700" type="line"/>
      <point x="90" y="700"/>
      <point x="50" y="695"/>
      <point x="30" y="688" type="curve"/>
      <point x="30" y="640" type="line"/>
      <point x="85" y="640" type="line"/>
    </contour>
  </outline>
</glyph>
<glyph name="ordmasculine" format="2">
  <advance width="320"/>
  <unicode hex="00BA"/>
  <outline>
    <contour>
      <point x="160" y="395" type="curve"/>
      <point x="235" y="395"/>
      <point x="290" y="445"/>
      <point x="290" y="550" type="curve" smooth="yes"/>
      <point x="290" y="655"/>
      <point x="235" y="705"/>
      <point x="160" y="705" type="curve"/>
      <point x="85" y="705"/>
      <point x="30" y="655"/>
      <point x="30" y="550" type="curve" smooth="yes"/>
      <point x="30" y="445"/>
      <point x="85" y="395"/>
    </contour>
    <contour>
      <point x="160" y="455" type="curve"/>
      <point x="135" y="455"/>
      <point x="115" y="480"/>
      <point x="115" y="550" type="curve" smooth="yes"/>
      <point x="115" y="620"/>
      <point x="135" y="645"/>
      <point x="160" y="645" type="curve"/>
      <point x="185" y="645"/>
      <point x="205" y="620"/>
      <point x="205" y="550" type="curve" smooth="yes"/>
      <point x="205" y="480"/>
      <point x="185" y="455"/>
    </contour>
  </outline>
</glyph>
<glyph name="guillemetright" format="2">
  <advance width="510"/>
  <unicode hex="00BB"/>
  <outline>
    <contour>
      <point x="315" y="20" type="line"/>
      <point x="490" y="250" type="line"/>
      <point x="315" y="480" type="line"/>
      <point x="230" y="425" type="line"/>
      <point x="360" y="253" type="line"/>
      <point x="360" y="247" type="line"/>
      <point x="230" y="75" type="line"/>
    </contour>
    <contour>
      <point x="115" y="20" type="line"/>
      <point x="290" y="250" type="line"/>
      <point x="115" y="480" type="line"/>
      <point x="30" y="425" type="line"/>
      <point x="160" y="253" type="line"/>
      <point x="160" y="247" type="line"/>
      <point x="30" y="75" type="line"/>
    </contour>
  </outline>
</glyph>
<glyph name="onequarter" format="2">
  <advance width="590"/>
  <unicode hex="00BC"/>
  <outline>
    <contour>
      <point x="40" y="0" type="line"/>
      <point x="150" y="0" type="line"/>
      <point x="540" y="700" type="line"/>
      <point x="430" y="700" type="line"/>
    </contour>
    <contour>
      <point x="425" y="0" type="line"/>
      <point x="510" y="0" type="line"/>
      <point x="510" y="55" type="line"/>
      <point x="535" y="55" type="line"/>
      <point x="535" y="115" type="line"/>
      <point x="510" y="115" type="line"/>
      <point x="510" y="300" type="line"/>
      <point x="425" y="300" type="line"/>
      <point x="285" y="115" type="line"/>
      <point x="285" y="55" type="line"/>
      <point x="425" y="55" type="line"/>
    </contour>
    <contour>
      <point x="360" y="115" type="line"/>
      <point x="425" y="200" type="line"/>
      <point x="425" y="115" type="line"/>
    </contour>
    <contour>
      <point x="105" y="400" type="line"/>
      <point x="190" y="400" type="line"/>
      <point x="190" y="700" type="line"/>
      <point x="150" y="700" type="line" smooth="yes"/>
      <point x="110" y="700"/>
      <point x="70" y="695"/>
      <point x="50" y="688" type="curve"/>
      <point x="50" y="640" type="line"/>
      <point x="105" y="640" type="line"/>
    </contour>
  </outline>
</glyph>
<glyph name="onehalf" format="2">
  <advance width="620"/>
  <unicode hex="00BD"/>
  <outline>
    <contour>
      <point x="50" y="0" type="line"/>
      <point x="160" y="0" type="line"/>
      <point x="550" y="700" type="line"/>
      <point x="440" y="700" type="line"/>
    </contour>
    <contour>
      <point x="350" y="0" type="line"/>
      <point x="560" y="0" type="line"/>
      <point x="560" y="60" type="line"/>
      <point x="445" y="60" type="line"/>
      <point x="525" y="120"/>
      <point x="560" y="160"/>
      <point x="560" y="205" type="curve" smooth="yes"/>
      <point x="560" y="270"/>
      <point x="525" y="305"/>
      <point x="445" y="305" type="curve" smooth="yes"/>
      <point x="415" y="305"/>
      <point x="380" y="300"/>
      <point x="360" y="294" type="curve"/>
      <point x="360" y="245" type="line"/>
      <point x="430" y="245" type="line" smooth="yes"/>
      <point x="460" y="245"/>
      <point x="475" y="225"/>
      <point x="475" y="205" type="curve" smooth="yes"/>
      <point x="475" y="170"/>
      <point x="420" y="120"/>
      <point x="350" y="65" type="curve"/>
    </contour>
    <contour>
      <point x="120" y="400" type="line"/>
      <point x="205" y="400" type="line"/>
      <point x="205" y="700" type="line"/>
      <point x="165" y="700" type="line" smooth="yes"/>
      <point x="125" y="700"/>
      <point x="85" y="695"/>
      <point x="65" y="688" type="curve"/>
      <point x="65" y="640" type="line"/>
      <point x="120" y="640" type="line"/>
    </contour>
  </outline>
</glyph>
<glyph name="threequarters" format="2">
  <advance width="605"/>
  <unicode hex="00BE"/>
  <outline>
    <contour>
      <point x="55" y="0" type="line"/>
      <point x="165" y="0" type="line"/>
      <point x="555" y="700" type="line"/>
      <point x="445" y="700" type="line"/>
    </contour>
    <contour>
      <point x="440" y="0" type="line"/>
      <point x="525" y="0" type="line"/>
      <point x="525" y="55" type="line"/>
      <point x="550" y="55" type="line"/>
      <point x="550" y="115" type="line"/>
      <point x="525" y="115" type="line"/>
      <point x="525" y="300" type="line"/>
      <point x="440" y="300" type="line"/>
      <point x="300" y="115" type="line"/>
      <point x="300" y="55" type="line"/>
      <point x="440" y="55" type="line"/>
    </contour>
    <contour>
      <point x="375" y="115" type="line"/>
      <point x="440" y="200" type="line"/>
      <point x="440" y="115" type="line"/>
    </contour>
    <contour>
      <point x="120" y="395" type="curve" smooth="yes"/>
      <point x="205" y="395"/>
      <point x="250" y="415"/>
      <point x="250" y="485" type="curve" smooth="yes"/>
      <point x="250" y="530"/>
      <point x="220" y="555"/>
      <point x="195" y="560" type="curve"/>
      <point x="215" y="565"/>
      <point x="240" y="585"/>
      <point x="240" y="620" type="curve" smooth="yes"/>
      <point x="240" y="685"/>
      <point x="195" y="705"/>
      <point x="125" y="705" type="curve" smooth="yes"/>
      <point x="90" y="705"/>
      <point x="59" y="700"/>
      <point x="40" y="694" type="curve"/>
      <point x="40" y="645" type="line"/>
      <point x="114" y="645" type="line" smooth="yes"/>
      <point x="145" y="645"/>
      <point x="155" y="630"/>
      <point x="155" y="615" type="curve" smooth="yes"/>
      <point x="155" y="600"/>
      <point x="145" y="585"/>
      <point x="120" y="585" type="curve" smooth="yes"/>
      <point x="75" y="585" type="line"/>
      <point x="75" y="525" type="line"/>
      <point x="125" y="525" type="line" smooth="yes"/>
      <point x="150" y="525"/>
      <point x="165" y="510"/>
      <point x="165" y="490" type="curve" smooth="yes"/>
      <point x="165" y="470"/>
      <point x="150" y="455"/>
      <point x="120" y="455" type="curve" smooth="yes"/>
      <point x="40" y="455" type="line"/>
      <point x="40" y="406" type="line"/>
      <point x="60" y="400"/>
      <point x="90" y="395"/>
    </contour>
  </outline>
</glyph>
<glyph name="questiondown" format="2">
  <advance width="395"/>
  <unicode hex="00BF"/>
  <outline>
    <contour>
      <point x="225" y="-10" type="curve" smooth="yes"/>
      <point x="295" y="-10"/>
      <point x="355" y="0"/>
      <point x="385" y="10" type="curve"/>
      <point x="385" y="65" type="line"/>
      <point x="255" y="65" type="line" smooth="yes"/>
      <point x="190" y="65"/>
      <point x="150" y="105"/>
      <point x="150" y="180" type="curve" smooth="yes"/>
      <point x="150" y="320"/>
      <point x="290" y="330"/>
      <point x="290" y="515" type="curve"/>
      <point x="190" y="515" type="line"/>
      <point x="180" y="370"/>
      <point x="30" y="350"/>
      <point x="30" y="180" type="curve" smooth="yes"/>
      <point x="30" y="60"/>
      <point x="100" y="-10"/>
    </contour>
    <contour>
      <point x="180" y="590" type="line"/>
      <point x="300" y="590" type="line"/>
      <point x="300" y="710" type="line"/>
      <point x="180" y="710" type="line"/>
    </contour>
  </outline>
</glyph>
<glyph name="Aacute" format="2">
  <advance width="540"/>
  <unicode hex="00C1"/>
  <outline>
    <contour>
      <point x="15" y="0" type="line"/>
      <point x="140" y="0" type="line"/>
      <point x="184" y="175" type="line"/>
      <point x="356" y="175" type="line"/>
      <point x="400" y="0" type="line"/>
      <point x="525" y="0" type="line"/>
      <point x="345" y="700" type="line"/>
      <point x="195" y="700" type="line"/>
    </contour>
    <contour>
      <point x="200" y="255" type="line"/>
      <point x="268" y="540" type="line"/>
      <point x="272" y="540" type="line"/>
      <point x="339" y="255" type="line"/>
    </contour>
    <contour>
      <point x="230" y="750" type="line"/>
      <point x="305" y="750" type="line"/>
      <point x="380" y="880" type="line"/>
      <point x="265" y="880" type="line"/>
    </contour>
  </outline>
</glyph>
<glyph name="Acircumflex" format="2">
  <advance width="540"/>
  <unicode hex="00C2"/>
  <outline>
    <contour>
      <point x="15" y="0" type="line"/>
      <point x="140" y="0" type="line"/>
      <point x="184" y="175" type="line"/>
      <point x="356" y="175" type="line"/>
      <point x="400" y="0" type="line"/>
      <point x="525" y="0" type="line"/>
      <point x="345" y="700" type="line"/>
      <point x="195" y="700" type="line"/>
    </contour>
    <contour>
      <point x="200" y="255" type="line"/>
      <point x="268" y="540" type="line"/>
      <point x="272" y="540" type="line"/>
      <point x="339" y="255" type="line"/>
    </contour>
    <contour>
      <point x="138" y="750" type="line"/>
      <point x="214" y="750" type="line"/>
      <point x="270" y="820" type="line"/>
      <point x="326" y="750" type="line"/>
      <point x="403" y="750" type="line"/>
      <point x="323" y="880" type="line"/>
      <point x="218" y="880" type="line"/>
    </contour>
  </outline>
</glyph>
<glyph name="Adieresis" format="2">
  <advance width="540"/>
  <unicode hex="00C4"/>
  <outline>
    <contour>
      <point x="15" y="0" type="line"/>
      <point x="140" y="0" type="line"/>
      <point x="184" y="175" type="line"/>
      <point x="356" y="175" type="line"/>
      <point x="400" y="0" type="line"/>
      <point x="525" y="0" type="line"/>
      <point x="345" y="700" type="line"/>
      <point x="195" y="700" type="line"/>
    </contour>
    <contour>
      <point x="200" y="255" type="line"/>
      <point x="268" y="540" type="line"/>
      <point x="272" y="540" type="line"/>
      <point x="339" y="255" type="line"/>
    </contour>
    <contour>
      <point x="135" y="750" type="line"/>
      <point x="245" y="750" type="line"/>
      <point x="245" y="870" type="line"/>
      <point x="135" y="870" type="line"/>
    </contour>
    <contour>
      <point x="295" y="750" type="line"/>
      <point x="405" y="750" type="line"/>
      <point x="405" y="870" type="line"/>
      <point x="295" y="870" type="line"/>
    </contour>
  </outline>
</glyph>
<glyph name="Eacute" format="2">
  <advance width="475"/>
  <unicode hex="00C9"/>
  <outline>
    <contour>
      <point x="70" y="0" type="line"/>
      <point x="435" y="0" type="line"/>
      <point x="435" y="80" type="line"/>
      <point x="190" y="80" type="line"/>
      <point x="190" y="325" type="line"/>
      <point x="405" y="325" type="line"/>
      <point x="405" y="405" type="line"/>
      <point x="190" y="405" type="line"/>
      <point x="190" y="620" type="line"/>
      <point x="435" y="620" type="line"/>
      <point x="435" y="700" type="line"/>
      <point x="70" y="700" type="line"/>
    </contour>
    <contour>
      <point x="215" y="750" type="line"/>
      <point x="290" y="750" type="line"/>
      <point x="365" y="880" type="line"/>
      <point x="250" y="880" type="line"/>
    </contour>
  </outline>
</glyph>
<glyph name="Ecircumflex" format="2">
  <advance width="475"/>
  <unicode hex="00CA"/>
  <outline>
    <contour>
      <point x="70" y="0" type="line"/>
      <point x="435" y="0" type="line"/>
      <point x="435" y="80" type="line"/>
      <point x="190" y="80" type="line"/>
      <point x="190" y="325" type="line"/>
      <point x="405" y="325" type="line"/>
      <point x="405" y="405" type="line"/>
      <point x="190" y="405" type="line"/>
      <point x="190" y="620" type="line"/>
      <point x="435" y="620" type="line"/>
      <point x="435" y="700" type="line"/>
      <point x="70" y="700" type="line"/>
    </contour>
    <contour>
      <point x="120" y="750" type="line"/>
      <point x="196" y="750" type="line"/>
      <point x="252" y="820" type="line"/>
      <point x="308" y="750" type="line"/>
      <point x="385" y="750" type="line"/>
      <point x="305" y="880" type="line"/>
      <point x="200" y="880" type="line"/>
    </contour>
  </outline>
</glyph>
<glyph name="Igrave" format="2">
  <advance width="260"/>
  <unicode hex="00CC"/>
  <outline>
    <contour>
      <point x="70" y="0" type="line"/>
      <point x="190" y="0" type="line"/>
      <point x="190" y="700" type="line"/>
      <point x="70" y="700" type="line"/>
    </contour>
    <contour>
      <point x="90" y="750" type="line"/>
      <point x="165" y="750" type="line"/>
      <point x="130" y="880" type="line"/>
      <point x="15" y="880" type="line"/>
    </contour>
  </outline>
</glyph>
<glyph name="Iacute" format="2">
  <advance width="260"/>
  <unicode hex="00CD"/>
  <outline>
    <contour>
      <point x="70" y="0" type="line"/>
      <point x="190" y="0" type="line"/>
      <point x="190" y="700" type="line"/>
      <point x="70" y="700" type="line"/>
    </contour>
    <contour>
      <point x="90" y="750" type="line"/>
      <point x="165" y="750" type="line"/>
      <point x="240" y="880" type="line"/>
      <point x="125" y="880" type="line"/>
    </contour>
  </outline>
</glyph>
<glyph name="Icircumflex" format="2">
  <advance width="260"/>
  <unicode hex="00CE"/>
  <anchor x="130" y="0" name="bottom"/>
  <anchor x="234" y="10" name="ogonek"/>
  <anchor x="130" y="700" name="top"/>
  <anchor x="20" y="700" name="topleft"/>
  <outline>
    <contour>
      <point x="70" y="0" type="line"/>
      <point x="190" y="0" type="line"/>
      <point x="190" y="700" type="line"/>
      <point x="70" y="700" type="line"/>
    </contour>
    <contour>
      <point x="-5" y="750" type="line"/>
      <point x="71" y="750" type="line"/>
      <point x="127" y="820" type="line"/>
      <point x="183" y="750" type="line"/>
      <point x="260" y="750" type="line"/>
      <point x="180" y="880" type="line"/>
      <point x="75" y="880" type="line"/>
    </contour>
  </outline>
</glyph>
<glyph name="Ntilde" format="2">
  <advance width="570"/>
  <unicode hex="00D1"/>
  <outline>
    <contour>
      <point x="70" y="0" type="line"/>
      <point x="185" y="0" type="line"/>
      <point x="185" y="460" type="line"/>
      <point x="190" y="460" type="line"/>
      <point x="380" y="0" type="line"/>
      <point x="500" y="0" type="line"/>
      <point x="500" y="700" type="line"/>
      <point x="385" y="700" type="line"/>
      <point x="385" y="240" type="line"/>
      <point x="380" y="240" type="line"/>
      <point x="190" y="700" type="line"/>
      <point x="70" y="700" type="line"/>
    </contour>
    <contour>
      <point x="225" y="745" type="curve" smooth="yes"/>
      <point x="270" y="745"/>
      <point x="290" y="795"/>
      <point x="315" y="795" type="curve" smooth="yes"/>
      <point x="330" y="795"/>
      <point x="340" y="780"/>
      <point x="340" y="755" type="curve"/>
      <point x="400" y="755" type="line"/>
      <point x="400" y="845"/>
      <point x="370" y="875"/>
      <point x="325" y="875" type="curve" smooth="yes"/>
      <point x="280" y="875"/>
      <point x="260" y="825"/>
      <point x="235" y="825" type="curve" smooth="yes"/>
      <point x="220" y="825"/>
      <point x="210" y="840"/>
      <point x="210" y="865" type="curve"/>
      <point x="150" y="865" type="line"/>
      <point x="150" y="775"/>
      <point x="180" y="745"/>
    </contour>
  </outline>
</glyph>
<glyph name="Ograve" format="2">
  <advance width="550"/>
  <unicode hex="00D2"/>
  <outline>
    <contour>
      <point x="275" y="-10" type="curve"/>
      <point x="415" y="-10"/>
      <point x="505" y="80"/>
      <point x="505" y="350" type="curve" smooth="yes"/>
      <point x="505" y="620"/>
      <point x="415" y="710"/>
      <point x="275" y="710" type="curve"/>
      <point x="135" y="710"/>
      <point x="45" y="620"/>
      <point x="45" y="350" type="curve"/>
      <point x="45" y="80"/>
      <point x="135" y="-10"/>
    </contour>
    <contour>
      <point x="275" y="60" type="curve" smooth="yes"/>
      <point x="220" y="60"/>
      <point x="165" y="120"/>
      <point x="165" y="350" type="curve"/>
      <point x="165" y="580"/>
      <point x="220" y="640"/>
      <point x="275" y="640" type="curve"/>
      <point x="330" y="640"/>
      <point x="385" y="580"/>
      <point x="385" y="350" type="curve" smooth="yes"/>
      <point x="385" y="120"/>
      <point x="330" y="60"/>
    </contour>
    <contour>
      <point x="240" y="760" type="line"/>
      <point x="315" y="760" type="line"/>
      <point x="280" y="890" type="line"/>
      <point x="165" y="890" type="line"/>
    </contour>
  </outline>
</glyph>
<glyph name="Oacute" format="2">
  <advance width="550"/>
  <unicode hex="00D3"/>
  <outline>
    <contour>
      <point x="275" y="-10" type="curve"/>
      <point x="415" y="-10"/>
      <point x="505" y="80"/>
      <point x="505" y="350" type="curve" smooth="yes"/>
      <point x="505" y="620"/>
      <point x="415" y="710"/>
      <point x="275" y="710" type="curve"/>
      <point x="135" y="710"/>
      <point x="45" y="620"/>
      <point x="45" y="350" type="curve"/>
      <point x="45" y="80"/>
      <point x="135" y="-10"/>
    </contour>
    <contour>
      <point x="275" y="60" type="curve" smooth="yes"/>
      <point x="220" y="60"/>
      <point x="165" y="120"/>
      <point x="165" y="350" type="curve"/>
      <point x="165" y="580"/>
      <point x="220" y="640"/>
      <point x="275" y="640" type="curve"/>
      <point x="330" y="640"/>
      <point x="385" y="580"/>
      <point x="385" y="350" type="curve" smooth="yes"/>
      <point x="385" y="120"/>
      <point x="330" y="60"/>
    </contour>
    <contour>
      <point x="230" y="760" type="line"/>
      <point x="305" y="760" type="line"/>
      <point x="380" y="890" type="line"/>
      <point x="265" y="890" type="line"/>
    </contour>
  </outline>
</glyph>
<glyph name="multiply" format="2">
  <advance width="420"/>
  <unicode hex="00D7"/>
  <outline>
    <contour>
      <point x="100" y="160" type="line"/>
      <point x="210" y="270" type="line"/>
      <point x="320" y="160" type="line"/>
      <point x="380" y="220" type="line"/>
      <point x="270" y="330" type="line"/>
      <point x="380" y="440" type="line"/>
      <point x="320" y="500" type="line"/>
      <point x="210" y="390" type="line"/>
      <point x="100" y="500" type="line"/>
      <point x="40" y="440" type="line"/>
      <point x="150" y="330" type="line"/>
      <point x="40" y="220" type="line"/>
    </contour>
  </outline>
</glyph>
<glyph name="Oslash" format="2">
  <advance width="550"/>
  <unicode hex="00D8"/>
  <outline>
    <contour>
      <point x="275" y="-10" type="curve" smooth="yes"/>
      <point x="415" y="-10"/>
      <point x="505" y="80"/>
      <point x="505" y="350" type="curve" smooth="yes"/>
      <point x="505" y="447"/>
      <point x="493" y="520"/>
      <point x="472" y="575" type="curve"/>
      <point x="525" y="650" type="line"/>
      <point x="475" y="690" type="line"/>
      <point x="438" y="637" type="line"/>
      <point x="398" y="689"/>
      <point x="342" y="710"/>
      <point x="275" y="710" type="curve" smooth="yes"/>
      <point x="135" y="710"/>
      <point x="45" y="620"/>
      <point x="45" y="350" type="curve" smooth="yes"/>
      <point x="45" y="253"/>
      <point x="57" y="180"/>
      <point x="78" y="125" type="curve"/>
      <point x="25" y="50" type="line"/>
      <point x="75" y="10" type="line"/>
      <point x="112" y="62" type="line"/>
      <point x="152" y="11"/>
      <point x="207" y="-10"/>
    </contour>
    <contour>
      <point x="275" y="60" type="curve" smooth="yes"/>
      <point x="239" y="60"/>
      <point x="204" y="85"/>
      <point x="183" y="164" type="curve"/>
      <point x="381" y="445" type="line"/>
      <point x="383" y="417"/>
      <point x="385" y="386"/>
      <point x="385" y="350" type="curve" smooth="yes"/>
      <point x="385" y="120"/>
      <point x="330" y="60"/>
    </contour>
    <contour>
      <point x="169" y="254" type="line"/>
      <point x="166" y="282"/>
      <point x="165" y="314"/>
      <point x="165" y="350" type="curve" smooth="yes"/>
      <point x="165" y="580"/>
      <point x="220" y="640"/>
      <point x="275" y="640" type="curve" smooth="yes"/>
      <point x="310" y="640"/>
      <point x="346" y="615"/>
      <point x="366" y="535" type="curve"/>
    </contour>
  </outline>
</glyph>
<glyph name="Ugrave" format="2">
  <advance width="550"/>
  <unicode hex="00D9"/>
  <outline>
    <contour>
      <point x="275" y="-10" type="curve" smooth="yes"/>
      <point x="420" y="-10"/>
      <point x="490" y="60"/>
      <point x="490" y="240" type="curve" smooth="yes"/>
      <point x="490" y="700" type="line"/>
      <point x="370" y="700" type="line"/>
      <point x="370" y="240" type="line" smooth="yes"/>
      <point x="370" y="100"/>
      <point x="330" y="60"/>
      <point x="275" y="60" type="curve" smooth="yes"/>
      <point x="220" y="60"/>
      <point x="180" y="100"/>
      <point x="180" y="240" type="curve" smooth="yes"/>
      <point x="180" y="700" type="line"/>
      <point x="60" y="700" type="line"/>
      <point x="60" y="240" type="line" smooth="yes"/>
      <point x="60" y="60"/>
      <point x="130" y="-10"/>
    </contour>
    <contour>
      <point x="245" y="740" type="line"/>
      <point x="320" y="740" type="line"/>
      <point x="285" y="870" type="line"/>
      <point x="170" y="870" type="line"/>
    </contour>
  </outline>
</glyph>
<glyph name="Ucircumflex" format="2">
  <advance width="550"/>
  <unicode hex="00DB"/>
  <outline>
    <contour>
      <point x="275" y="-10" type="curve" smooth="yes"/>
      <point x="420" y="-10"/>
      <point x="490" y="60"/>
      <point x="490" y="240" type="curve" smooth="yes"/>
      <point x="490" y="700" type="line"/>
      <point x="370" y="700" type="line"/>
      <point x="370" y="240" type="line" smooth="yes"/>
      <point x="370" y="100"/>
      <point x="330" y="60"/>
      <point x="275" y="60" type="curve" smooth="yes"/>
      <point x="220" y="60"/>
      <point x="180" y="100"/>
      <point x="180" y="240" type="curve" smooth="yes"/>
      <point x="180" y="700" type="line"/>
      <point x="60" y="700" type="line"/>
      <point x="60" y="240" type="line" smooth="yes"/>
      <point x="60" y="60"/>
      <point x="130" y="-10"/>
    </contour>
    <contour>
      <point x="143" y="740" type="line"/>
      <point x="219" y="740" type="line"/>
      <point x="275" y="810" type="line"/>
      <point x="331" y="740" type="line"/>
      <point x="408" y="740" type="line"/>
      <point x="328" y="870" type="line"/>
      <point x="223" y="870" type="line"/>
    </contour>
  </outline>
</glyph>
<glyph name="Yacute" format="2">
  <advance width="480"/>
  <unicode hex="00DD"/>
  <outline>
    <contour>
      <point x="180" y="0" type="line"/>
      <point x="300" y="0" type="line"/>
      <point x="300" y="210" type="line"/>
      <point x="475" y="700" type="line"/>
      <point x="350" y="700" type="line"/>
      <point x="240" y="359" type="line"/>
      <point x="130" y="700" type="line"/>
      <point x="5" y="700" type="line"/>
      <point x="180" y="210" type="line"/>
    </contour>
    <contour>
      <point x="199" y="740" type="line"/>
      <point x="274" y="740" type="line"/>
      <point x="349" y="870" type="line"/>
      <point x="234" y="870" type="line"/>
    </contour>
  </outline>
</glyph>
<glyph name="Thorn" format="2">
  <advance width="525"/>
  <unicode hex="00DE"/>
  <outline>
    <contour>
      <point x="70" y="-10" type="line"/>
      <point x="190" y="-10" type="line"/>
      <point x="190" y="65" type="line"/>
      <point x="400" y="75"/>
      <point x="490" y="175"/>
      <point x="490" y="350" type="curve" smooth="yes"/>
      <point x="490" y="525"/>
      <point x="400" y="625"/>
      <point x="190" y="635" type="curve"/>
      <point x="190" y="710" type="line"/>
      <point x="70" y="710" type="line"/>
    </contour>
    <contour>
      <point x="190" y="140" type="curve"/>
      <point x="190" y="560" type="line"/>
      <point x="300" y="555"/>
      <point x="370" y="480"/>
      <point x="370" y="350" type="curve" smooth="yes"/>
      <point x="370" y="220"/>
      <point x="300" y="145"/>
    </contour>
  </outline>
</glyph>
<glyph name="germandbls" format="2">
  <advance width="550"/>
  <unicode hex="00DF"/>
  <outline>
    <contour>
      <point x="340" y="-10" type="curve" smooth="yes"/>
      <point x="455" y="-10"/>
      <point x="525" y="20"/>
      <point x="525" y="135" type="curve" smooth="yes"/>
      <point x="525" y="275"/>
      <point x="360" y="295"/>
      <point x="360" y="365" type="curve" smooth="yes"/>
      <point x="360" y="435"/>
      <point x="465" y="445"/>
      <point x="465" y="550" type="curve" smooth="yes"/>
      <point x="465" y="640"/>
      <point x="395" y="710"/>
      <point x="270" y="710" type="curve" smooth="yes"/>
      <point x="135" y="710"/>
      <point x="65" y="640"/>
      <point x="65" y="495" type="curve" smooth="yes"/>
      <point x="65" y="0" type="line"/>
      <point x="185" y="0" type="line"/>
      <point x="185" y="495" type="line" smooth="yes"/>
      <point x="185" y="595"/>
      <point x="225" y="635"/>
      <point x="270" y="635" type="curve" smooth="yes"/>
      <point x="305" y="635"/>
      <point x="345" y="610"/>
      <point x="345" y="550" type="curve" smooth="yes"/>
      <point x="345" y="475"/>
      <point x="240" y="455"/>
      <point x="240" y="365" type="curve" smooth="yes"/>
      <point x="240" y="235"/>
      <point x="405" y="235"/>
      <point x="405" y="135" type="curve" smooth="yes"/>
      <point x="405" y="80"/>
      <point x="365" y="60"/>
      <point x="320" y="60" type="curve" smooth="yes"/>
      <point x="235" y="60" type="line"/>
      <point x="235" y="10" type="line"/>
      <point x="265" y="0"/>
      <point x="310" y="-10"/>
    </contour>
  </outline>
</glyph>
<glyph name="aring" format="2">
  <advance width="475"/>
  <unicode hex="00E5"/>
  <outline>
    <contour>
      <point x="195" y="-10" type="curve" smooth="yes"/>
      <point x="250" y="-10"/>
      <point x="284" y="10"/>
      <point x="305" y="30" type="curve"/>
      <point x="310" y="30" type="line"/>
      <point x="325" y="0" type="line"/>
      <point x="410" y="0" type="line"/>
      <point x="410" y="340" type="line" smooth="yes"/>
      <point x="410" y="480"/>
      <point x="340" y="510"/>
      <point x="205" y="510" type="curve" smooth="yes"/>
      <point x="165" y="510"/>
      <point x="115" y="500"/>
      <point x="85" y="490" type="curve"/>
      <point x="85" y="440" type="line"/>
      <point x="185" y="440" type="line" smooth="yes"/>
      <point x="250" y="440"/>
      <point x="290" y="420"/>
      <point x="290" y="340" type="curve" smooth="yes"/>
      <point x="290" y="300" type="line"/>
      <point x="265" y="305"/>
      <point x="235" y="310"/>
      <point x="205" y="310" type="curve" smooth="yes"/>
      <point x="110" y="310"/>
      <point x="40" y="280"/>
      <point x="40" y="150" type="curve" smooth="yes"/>
      <point x="40" y="20"/>
      <point x="110" y="-10"/>
    </contour>
    <contour>
      <point x="235" y="60" type="curve" smooth="yes"/>
      <point x="200" y="60"/>
      <point x="160" y="80"/>
      <point x="160" y="150" type="curve" smooth="yes"/>
      <point x="160" y="220"/>
      <point x="200" y="240"/>
      <point x="235" y="240" type="curve" smooth="yes"/>
      <point x="290" y="240" type="line"/>
      <point x="290" y="80" type="line"/>
      <point x="280" y="70"/>
      <point x="260" y="60"/>
    </contour>
    <contour>
      <point x="240" y="535" type="curve" smooth="yes"/>
      <point x="295" y="535"/>
      <point x="335" y="570"/>
      <point x="335" y="620" type="curve" smooth="yes"/>
      <point x="335" y="670"/>
      <point x="295" y="705"/>
      <point x="240" y="705" type="curve" smooth="yes"/>
      <point x="185" y="705"/>
      <point x="145" y="670"/>
      <point x="145" y="620" type="curve" smooth="yes"/>
      <point x="145" y="570"/>
      <point x="185" y="535"/>
    </contour>
    <contour>
      <point x="240" y="590" type="curve" smooth="yes"/>
      <point x="225" y="590"/>
      <point x="210" y="600"/>
      <point x="210" y="620" type="curve" smooth="yes"/>
      <point x="210" y="640"/>
      <point x="225" y="650"/>
      <point x="240" y="650" type="curve" smooth="yes"/>
      <point x="255" y="650"/>
      <point x="270" y="640"/>
      <point x="270" y="620" type="curve" smooth="yes"/>
      <point x="270" y="600"/>
      <point x="255" y="590"/>
    </contour>
  </outline>
</glyph>
<glyph name="ae" format="2">
  <advance width="710"/>
  <unicode hex="00E6"/>
  <outline>
    <contour>
      <point x="205" y="-10" type="curve" smooth="yes"/>
      <point x="285" y="-10"/>
      <point x="325" y="15"/>
      <point x="355" y="50" type="curve"/>
      <point x="385" y="15"/>
      <point x="430" y="-10"/>
      <point x="515" y="-10" type="curve" smooth="yes"/>
      <point x="565" y="-10"/>
      <point x="615" y="0"/>
      <point x="645" y="10" type="curve"/>
      <point x="645" y="60" type="line"/>
      <point x="535" y="60" type="line" smooth="yes"/>
      <point x="452" y="60"/>
      <point x="410" y="98"/>
      <point x="410" y="210" type="curve" smooth="yes"/>
      <point x="410" y="220" type="line"/>
      <point x="670" y="220" type="line"/>
      <point x="670" y="250" type="line" smooth="yes"/>
      <point x="670" y="435"/>
      <point x="600" y="510"/>
      <point x="480" y="510" type="curve" smooth="yes"/>
      <point x="425" y="510"/>
      <point x="385" y="485"/>
      <point x="355" y="450" type="curve"/>
      <point x="325" y="485"/>
      <point x="280" y="510"/>
      <point x="205" y="510" type="curve" smooth="yes"/>
      <point x="165" y="510"/>
      <point x="115" y="500"/>
      <point x="85" y="490" type="curve"/>
      <point x="85" y="440" type="line"/>
      <point x="185" y="440" type="line" smooth="yes"/>
      <point x="250" y="440"/>
      <point x="290" y="420"/>
      <point x="290" y="340" type="curve" smooth="yes"/>
      <point x="290" y="280" type="line"/>
      <point x="265" y="285"/>
      <point x="235" y="290"/>
      <point x="205" y="290" type="curve" smooth="yes"/>
      <point x="110" y="290"/>
      <point x="40" y="260"/>
      <point x="40" y="140" type="curve" smooth="yes"/>
      <point x="40" y="20"/>
      <point x="110" y="-10"/>
    </contour>
    <contour>
      <point x="235" y="60" type="curve" smooth="yes"/>
      <point x="200" y="60"/>
      <point x="160" y="80"/>
      <point x="160" y="140" type="curve" smooth="yes"/>
      <point x="160" y="200"/>
      <point x="200" y="220"/>
      <point x="235" y="220" type="curve" smooth="yes"/>
      <point x="290" y="220" type="line"/>
      <point x="290" y="80" type="line"/>
      <point x="280" y="70"/>
      <point x="260" y="60"/>
    </contour>
    <contour>
      <point x="410" y="290" type="line"/>
      <point x="410" y="415"/>
      <point x="440" y="445"/>
      <point x="480" y="445" type="curve" smooth="yes"/>
      <point x="520" y="445"/>
      <point x="550" y="415"/>
      <point x="550" y="290" type="curve"/>
    </contour>
  </outline>
</glyph>
<glyph name="ccedilla" format="2">
  <advance width="395"/>
  <unicode hex="00E7"/>
  <outline>
    <contour>
      <point x="240" y="-170" type="curve" smooth="yes"/>
      <point x="305" y="-170"/>
      <point x="340" y="-140"/>
      <point x="340" y="-100" type="curve" smooth="yes"/>
      <point x="340" y="-60"/>
      <point x="310" y="-30"/>
      <point x="250" y="-30" type="curve" smooth="yes"/>
      <point x="235" y="-30" type="line"/>
      <point x="235" y="-10" type="line"/>
      <point x="234" y="-9" type="line"/>
      <point x="239" y="-9"/>
      <point x="244" y="-10"/>
      <point x="250" y="-10" type="curve" smooth="yes"/>
      <point x="300" y="-10"/>
      <point x="350" y="0"/>
      <point x="380" y="10" type="curve"/>
      <point x="380" y="60" type="line"/>
      <point x="270" y="60" type="line" smooth="yes"/>
      <point x="200" y="60"/>
      <point x="160" y="100"/>
      <point x="160" y="250" type="curve" smooth="yes"/>
      <point x="160" y="400"/>
      <point x="200" y="440"/>
      <point x="260" y="440" type="curve" smooth="yes"/>
      <point x="370" y="440" type="line"/>
      <point x="370" y="490" type="line"/>
      <point x="340" y="500"/>
      <point x="290" y="510"/>
      <point x="240" y="510" type="curve" smooth="yes"/>
      <point x="110" y="510"/>
      <point x="40" y="440"/>
      <point x="40" y="250" type="curve" smooth="yes"/>
      <point x="40" y="95"/>
      <point x="87" y="20"/>
      <point x="180" y="-2" type="curve"/>
      <point x="180" y="-79" type="line"/>
      <point x="235" y="-79" type="line" smooth="yes"/>
      <point x="260" y="-79"/>
      <point x="265" y="-90"/>
      <point x="265" y="-100" type="curve" smooth="yes"/>
      <point x="265" y="-111"/>
      <point x="260" y="-121"/>
      <point x="230" y="-121" type="curve" smooth="yes"/>
      <point x="165" y="-121" type="line"/>
      <point x="165" y="-155" type="line"/>
      <point x="165" y="-155"/>
      <point x="190" y="-170"/>
    </contour>
  </outline>
</glyph>
<glyph name="eacute" format="2">
  <advance width="460"/>
  <unicode hex="00E9"/>
  <outline>
    <contour>
      <point x="265" y="-10" type="curve" smooth="yes"/>
      <point x="315" y="-10"/>
      <point x="365" y="0"/>
      <point x="395" y="10" type="curve"/>
      <point x="395" y="60" type="line"/>
      <point x="285" y="60" type="line" smooth="yes"/>
      <point x="200" y="60"/>
      <point x="160" y="100"/>
      <point x="160" y="215" type="curve"/>
      <point x="420" y="215" type="line"/>
      <point x="420" y="250" type="line"/>
      <point x="420" y="440"/>
      <point x="350" y="510"/>
      <point x="230" y="510" type="curve" smooth="yes"/>
      <point x="110" y="510"/>
      <point x="40" y="440"/>
      <point x="40" y="250" type="curve" smooth="yes"/>
      <point x="40" y="60"/>
      <point x="110" y="-10"/>
    </contour>
    <contour>
      <point x="160" y="285" type="line"/>
      <point x="160" y="415"/>
      <point x="190" y="445"/>
      <point x="230" y="445" type="curve" smooth="yes"/>
      <point x="270" y="445"/>
      <point x="300" y="415"/>
      <point x="300" y="285" type="curve"/>
    </contour>
    <contour>
      <point x="185" y="560" type="line"/>
      <point x="260" y="560" type="line"/>
      <point x="335" y="690" type="line"/>
      <point x="220" y="690" type="line"/>
    </contour>
  </outline>
</glyph>
<glyph name="igrave" format="2">
  <advance width="260"/>
  <unicode hex="00EC"/>
  <outline>
    <contour>
      <point x="70" y="0" type="line"/>
      <point x="190" y="0" type="line"/>
      <point x="190" y="500" type="line"/>
      <point x="70" y="500" type="line"/>
    </contour>
    <contour>
      <point x="95" y="560" type="line"/>
      <point x="170" y="560" type="line"/>
      <point x="135" y="690" type="line"/>
      <point x="20" y="690" type="line"/>
    </contour>
  </outline>
</glyph>
<glyph name="iacute" format="2">
  <advance width="260"/>
  <unicode hex="00ED"/>
  <outline>
    <contour>
      <point x="70" y="0" type="line"/>
      <point x="190" y="0" type="line"/>
      <point x="190" y="500" type="line"/>
      <point x="70" y="500" type="line"/>
    </contour>
    <contour>
      <point x="90" y="560" type="line"/>
      <point x="165" y="560" type="line"/>
      <point x="240" y="690" type="line"/>
      <point x="125" y="690" type="line"/>
    </contour>
  </outline>
</glyph>
<glyph name="icircumflex" format="2">
  <advance width="245"/>
  <unicode hex="00EE"/>
  <outline>
    <contour>
      <point x="65" y="0" type="line"/>
      <point x="185" y="0" type="line"/>
      <point x="185" y="500" type="line"/>
      <point x="65" y="500" type="line"/>
    </contour>
    <contour>
      <point x="-10" y="550" type="line"/>
      <point x="66" y="550" type="line"/>
      <point x="122" y="620" type="line"/>
      <point x="178" y="550" type="line"/>
      <point x="255" y="550" type="line"/>
      <point x="175" y="680" type="line"/>
      <point x="70" y="680" type="line"/>
    </contour>
  </outline>
</glyph>
<glyph name="idieresis" format="2">
  <advance width="250"/>
  <unicode hex="00EF"/>
  <outline>
    <contour>
      <point x="65" y="0" type="line"/>
      <point x="185" y="0" type="line"/>
      <point x="185" y="500" type="line"/>
      <point x="65" y="500" type="line"/>
    </contour>
    <contour>
      <point x="-10" y="560" type="line"/>
      <point x="100" y="560" type="line"/>
      <point x="100" y="680" type="line"/>
      <point x="-10" y="680" type="line"/>
    </contour>
    <contour>
      <point x="150" y="560" type="line"/>
      <point x="260" y="560" type="line"/>
      <point x="260" y="680" type="line"/>
      <point x="150" y="680" type="line"/>
    </contour>
  </outline>
</glyph>
<glyph name="eth" format="2">
  <advance width="485"/>
  <unicode hex="00F0"/>
  <outline>
    <contour>
      <point x="240" y="-10" type="curve" smooth="yes"/>
      <point x="370" y="-10"/>
      <point x="440" y="60"/>
      <point x="440" y="215" type="curve" smooth="yes"/>
      <point x="440" y="350" type="line" smooth="yes"/>
      <point x="440" y="466"/>
      <point x="405" y="560"/>
      <point x="355" y="611" type="curve"/>
      <point x="410" y="676" type="line"/>
      <point x="360" y="717" type="line"/>
      <point x="305" y="650" type="line"/>
      <point x="255" y="685"/>
      <point x="175" y="705"/>
      <point x="85" y="710" type="curve"/>
      <point x="79" y="660" type="line"/>
      <point x="150" y="650"/>
      <point x="215" y="620"/>
      <point x="250" y="590" type="curve"/>
      <point x="195" y="520" type="line"/>
      <point x="245" y="479" type="line"/>
      <point x="295" y="539" type="line"/>
      <point x="315" y="510"/>
      <point x="320" y="466"/>
      <point x="320" y="415" type="curve"/>
      <point x="300" y="430"/>
      <point x="270" y="440"/>
      <point x="230" y="440" type="curve" smooth="yes"/>
      <point x="110" y="440"/>
      <point x="40" y="370"/>
      <point x="40" y="215" type="curve" smooth="yes"/>
      <point x="40" y="60"/>
      <point x="110" y="-10"/>
    </contour>
    <contour>
      <point x="240" y="55" type="curve" smooth="yes"/>
      <point x="200" y="55"/>
      <point x="160" y="95"/>
      <point x="160" y="215" type="curve" smooth="yes"/>
      <point x="160" y="330"/>
      <point x="200" y="370"/>
      <point x="260" y="370" type="curve" smooth="yes"/>
      <point x="290" y="370"/>
      <point x="310" y="360"/>
      <point x="320" y="350" type="curve"/>
      <point x="320" y="215" type="line" smooth="yes"/>
      <point x="320" y="95"/>
      <point x="280" y="55"/>
    </contour>
  </outline>
</glyph>
<glyph name="ntilde" format="2">
  <advance width="505"/>
  <unicode hex="00F1"/>
  <outline>
    <contour>
      <point x="65" y="0" type="line"/>
      <point x="185" y="0" type="line"/>
      <point x="185" y="420" type="line"/>
      <point x="195" y="430"/>
      <point x="215" y="440"/>
      <point x="240" y="440" type="curve" smooth="yes"/>
      <point x="280" y="440"/>
      <point x="320" y="420"/>
      <point x="320" y="350" type="curve" smooth="yes"/>
      <point x="320" y="0" type="line"/>
      <point x="440" y="0" type="line"/>
      <point x="440" y="350" type="line" smooth="yes"/>
      <point x="440" y="480"/>
      <point x="370" y="510"/>
      <point x="285" y="510" type="curve" smooth="yes"/>
      <point x="225" y="510"/>
      <point x="191" y="490"/>
      <point x="170" y="470" type="curve"/>
      <point x="165" y="470" type="line"/>
      <point x="150" y="500" type="line"/>
      <point x="65" y="500" type="line"/>
    </contour>
    <contour>
      <point x="205" y="560" type="curve" smooth="yes"/>
      <point x="250" y="560"/>
      <point x="270" y="610"/>
      <point x="295" y="610" type="curve" smooth="yes"/>
      <point x="310" y="610"/>
      <point x="320" y="595"/>
      <point x="320" y="570" type="curve"/>
      <point x="380" y="570" type="line"/>
      <point x="380" y="660"/>
      <point x="350" y="690"/>
      <point x="305" y="690" type="curve" smooth="yes"/>
      <point x="260" y="690"/>
      <point x="240" y="640"/>
      <point x="215" y="640" type="curve" smooth="yes"/>
      <point x="200" y="640"/>
      <point x="190" y="655"/>
      <point x="190" y="680" type="curve"/>
      <point x="130" y="680" type="line"/>
      <point x="130" y="590"/>
      <point x="160" y="560"/>
    </contour>
  </outline>
</glyph>
<glyph name="oacute" format="2">
  <advance width="480"/>
  <unicode hex="00F3"/>
  <outline>
    <contour>
      <point x="240" y="-10" type="curve"/>
      <point x="370" y="-10"/>
      <point x="440" y="60"/>
      <point x="440" y="250" type="curve"/>
      <point x="440" y="440"/>
      <point x="370" y="510"/>
      <point x="240" y="510" type="curve"/>
      <point x="110" y="510"/>
      <point x="40" y="440"/>
      <point x="40" y="250" type="curve" smooth="yes"/>
      <point x="40" y="60"/>
      <point x="110" y="-10"/>
    </contour>
    <contour>
      <point x="240" y="55" type="curve"/>
      <point x="195" y="55"/>
      <point x="160" y="95"/>
      <point x="160" y="250" type="curve" smooth="yes"/>
      <point x="160" y="405"/>
      <point x="195" y="445"/>
      <point x="240" y="445" type="curve"/>
      <point x="285" y="445"/>
      <point x="320" y="405"/>
      <point x="320" y="250" type="curve"/>
      <point x="320" y="95"/>
      <point x="285" y="55"/>
    </contour>
    <contour>
      <point x="195" y="560" type="line"/>
      <point x="270" y="560" type="line"/>
      <point x="345" y="690" type="line"/>
      <point x="230" y="690" type="line"/>
    </contour>
  </outline>
</glyph>
<glyph name="ocircumflex" format="2">
  <advance width="480"/>
  <unicode hex="00F4"/>
  <outline>
    <contour>
      <point x="240" y="-10" type="curve"/>
      <point x="370" y="-10"/>
      <point x="440" y="60"/>
      <point x="440" y="250" type="curve"/>
      <point x="440" y="440"/>
      <point x="370" y="510"/>
      <point x="240" y="510" type="curve"/>
      <point x="110" y="510"/>
      <point x="40" y="440"/>
      <point x="40" y="250" type="curve" smooth="yes"/>
      <point x="40" y="60"/>
      <point x="110" y="-10"/>
    </contour>
    <contour>
      <point x="240" y="55" type="curve"/>
      <point x="195" y="55"/>
      <point x="160" y="95"/>
      <point x="160" y="250" type="curve" smooth="yes"/>
      <point x="160" y="405"/>
      <point x="195" y="445"/>
      <point x="240" y="445" type="curve"/>
      <point x="285" y="445"/>
      <point x="320" y="405"/>
      <point x="320" y="250" type="curve"/>
      <point x="320" y="95"/>
      <point x="285" y="55"/>
    </contour>
    <contour>
      <point x="109" y="550" type="line"/>
      <point x="185" y="550" type="line"/>
      <point x="241" y="620" type="line"/>
      <point x="297" y="550" type="line"/>
      <point x="374" y="550" type="line"/>
      <point x="294" y="680" type="line"/>
      <point x="189" y="680" type="line"/>
    </contour>
  </outline>
</glyph>
<glyph name="odieresis" format="2">
  <advance width="480"/>
  <unicode hex="00F6"/>
  <outline>
    <contour>
      <point x="240" y="-10" type="curve"/>
      <point x="370" y="-10"/>
      <point x="440" y="60"/>
      <point x="440" y="250" type="curve"/>
      <point x="440" y="440"/>
      <point x="370" y="510"/>
      <point x="240" y="510" type="curve"/>
      <point x="110" y="510"/>
      <point x="40" y="440"/>
      <point x="40" y="250" type="curve" smooth="yes"/>
      <point x="40" y="60"/>
      <point x="110" y="-10"/>
    </contour>
    <contour>
      <point x="240" y="55" type="curve"/>
      <point x="195" y="55"/>
      <point x="160" y="95"/>
      <point x="160" y="250" type="curve" smooth="yes"/>
      <point x="160" y="405"/>
      <point x="195" y="445"/>
      <point x="240" y="445" type="curve"/>
      <point x="285" y="445"/>
      <point x="320" y="405"/>
      <point x="320" y="250" type="curve"/>
      <point x="320" y="95"/>
      <point x="285" y="55"/>
    </contour>
    <contour>
      <point x="105" y="560" type="line"/>
      <point x="215" y="560" type="line"/>
      <point x="215" y="680" type="line"/>
      <point x="105" y="680" type="line"/>
    </contour>
    <contour>
      <point x="265" y="560" type="line"/>
      <point x="375" y="560" type="line"/>
      <point x="375" y="680" type="line"/>
      <point x="265" y="680" type="line"/>
    </contour>
  </outline>
</glyph>
<glyph name="divide" format="2">
  <advance width="450"/>
  <unicode hex="00F7"/>
  <outline>
    <contour>
      <point x="30" y="255" type="line"/>
      <point x="420" y="255" type="line"/>
      <point x="420" y="345" type="line"/>
      <point x="30" y="345" type="line"/>
    </contour>
    <contour>
      <point x="175" y="85" type="line"/>
      <point x="275" y="85" type="line"/>
      <point x="275" y="195" type="line"/>
      <point x="175" y="195" type="line"/>
    </contour>
    <contour>
      <point x="175" y="405" type="line"/>
      <point x="275" y="405" type="line"/>
      <point x="275" y="515" type="line"/>
      <point x="175" y="515" type="line"/>
    </contour>
  </outline>
</glyph>
<glyph name="oslash" format="2">
  <advance width="490"/>
  <unicode hex="00F8"/>
  <outline>
    <contour>
      <point x="245" y="-10" type="curve" smooth="yes"/>
      <point x="375" y="-10"/>
      <point x="445" y="60"/>
      <point x="445" y="250" type="curve" smooth="yes"/>
      <point x="445" y="310"/>
      <point x="438" y="358"/>
      <point x="424" y="395" type="curve"/>
      <point x="465" y="440" type="line"/>
      <point x="420" y="490" type="line"/>
      <point x="389" y="456" type="line"/>
      <point x="356" y="494"/>
      <point x="307" y="510"/>
      <point x="245" y="510" type="curve" smooth="yes"/>
      <point x="115" y="510"/>
      <point x="45" y="440"/>
      <point x="45" y="250" type="curve" smooth="yes"/>
      <point x="45" y="190"/>
      <point x="52" y="142"/>
      <point x="65" y="104" type="curve"/>
      <point x="25" y="60" type="line"/>
      <point x="70" y="10" type="line"/>
      <point x="100" y="43" type="line"/>
      <point x="134" y="6"/>
      <point x="182" y="-10"/>
    </contour>
    <contour>
      <point x="245" y="55" type="curve" smooth="yes"/>
      <point x="215" y="55"/>
      <point x="190" y="72"/>
      <point x="176" y="126" type="curve"/>
      <point x="324" y="287" type="line"/>
      <point x="325" y="275"/>
      <point x="325" y="263"/>
      <point x="325" y="250" type="curve" smooth="yes"/>
      <point x="325" y="95"/>
      <point x="290" y="55"/>
    </contour>
    <contour>
      <point x="165" y="213" type="line"/>
      <point x="165" y="250" type="line" smooth="yes"/>
      <point x="165" y="405"/>
      <point x="200" y="445"/>
      <point x="245" y="445" type="curve" smooth="yes"/>
      <point x="274" y="445"/>
      <point x="299" y="428"/>
      <point x="313" y="374" type="curve"/>
    </contour>
  </outline>
</glyph>
<glyph name="ucircumflex" format="2">
  <advance width="505"/>
  <unicode hex="00FB"/>
  <outline>
    <contour>
      <point x="220" y="-10" type="curve" smooth="yes"/>
      <point x="280" y="-10"/>
      <point x="314" y="10"/>
      <point x="335" y="30" type="curve"/>
      <point x="340" y="30" type="line"/>
      <point x="355" y="0" type="line"/>
      <point x="440" y="0" type="line"/>
      <point x="440" y="500" type="line"/>
      <point x="320" y="500" type="line"/>
      <point x="320" y="80" type="line"/>
      <point x="310" y="70"/>
      <point x="290" y="60"/>
      <point x="265" y="60" type="curve" smooth="yes"/>
      <point x="225" y="60"/>
      <point x="185" y="80"/>
      <point x="185" y="150" type="curve" smooth="yes"/>
      <point x="185" y="500" type="line"/>
      <point x="65" y="500" type="line"/>
      <point x="65" y="150" type="line" smooth="yes"/>
      <point x="65" y="20"/>
      <point x="135" y="-10"/>
    </contour>
    <contour>
      <point x="123" y="550" type="line"/>
      <point x="199" y="550" type="line"/>
      <point x="255" y="620" type="line"/>
      <point x="311" y="550" type="line"/>
      <point x="388" y="550" type="line"/>
      <point x="308" y="680" type="line"/>
      <point x="203" y="680" type="line"/>
    </contour>
  </outline>
</glyph>
<glyph name="udieresis" format="2">
  <advance width="505"/>
  <unicode hex="00FC"/>
  <outline>
    <contour>
      <point x="220" y="-10" type="curve" smooth="yes"/>
      <point x="280" y="-10"/>
      <point x="314" y="10"/>
      <point x="335" y="30" type="curve"/>
      <point x="340" y="30" type="line"/>
      <point x="355" y="0" type="line"/>
      <point x="440" y="0" type="line"/>
      <point x="440" y="500" type="line"/>
      <point x="320" y="500" type="line"/>
      <point x="320" y="80" type="line"/>
      <point x="310" y="70"/>
      <point x="290" y="60"/>
      <point x="265" y="60" type="curve" smooth="yes"/>
      <point x="225" y="60"/>
      <point x="185" y="80"/>
      <point x="185" y="150" type="curve" smooth="yes"/>
      <point x="185" y="500" type="line"/>
      <point x="65" y="500" type="line"/>
      <point x="65" y="150" type="line" smooth="yes"/>
      <point x="65" y="20"/>
      <point x="135" y="-10"/>
    </contour>
    <contour>
      <point x="120" y="560" type="line"/>
      <point x="230" y="560" type="line"/>
      <point x="230" y="680" type="line"/>
      <point x="120" y="680" type="line"/>
    </contour>
    <contour>
      <point x="280" y="560" type="line"/>
      <point x="390" y="560" type="line"/>
      <point x="390" y="680" type="line"/>
      <point x="280" y="680" type="line"/>
    </contour>
  </outline>
</glyph>
<glyph name="thorn" format="2">
  <advance width="495"/>
  <unicode hex="00FE"/>
  <outline>
    <contour>
      <point x="70" y="-200" type="line"/>
      <point x="190" y="-200" type="line"/>
      <point x="190" y="15" type="line"/>
      <point x="211" y="0"/>
      <point x="240" y="-10"/>
      <point x="275" y="-10" type="curve" smooth="yes"/>
      <point x="385" y="-10"/>
      <point x="455" y="60"/>
      <point x="455" y="250" type="curve" smooth="yes"/>
      <point x="455" y="440"/>
      <point x="385" y="510"/>
      <point x="275" y="510" type="curve" smooth="yes"/>
      <point x="240" y="510"/>
      <point x="211" y="500"/>
      <point x="190" y="485" type="curve"/>
      <point x="190" y="700" type="line"/>
      <point x="70" y="700" type="line"/>
    </contour>
    <contour>
      <point x="245" y="60" type="curve" smooth="yes"/>
      <point x="220" y="60"/>
      <point x="200" y="70"/>
      <point x="190" y="80" type="curve"/>
      <point x="190" y="420" type="line"/>
      <point x="200" y="430"/>
      <point x="220" y="440"/>
      <point x="245" y="440" type="curve" smooth="yes"/>
      <point x="295" y="440"/>
      <point x="335" y="400"/>
      <point x="335" y="250" type="curve" smooth="yes"/>
      <point x="335" y="100"/>
      <point x="295" y="60"/>
    </contour>
  </outline>
</glyph>
<glyph name="ydieresis" format="2">
  <advance width="505"/>
  <unicode hex="00FF"/>
  <outline>
    <contour>
      <point x="225" y="-210" type="curve" smooth="yes"/>
      <point x="370" y="-210"/>
      <point x="440" y="-140"/>
      <point x="440" y="40" type="curve" smooth="yes"/>
      <point x="440" y="500" type="line"/>
      <point x="320" y="500" type="line"/>
      <point x="320" y="80" type="line"/>
      <point x="310" y="70"/>
      <point x="290" y="60"/>
      <point x="265" y="60" type="curve" smooth="yes"/>
      <point x="225" y="60"/>
      <point x="185" y="80"/>
      <point x="185" y="150" type="curve"/>
      <point x="185" y="500" type="line"/>
      <point x="65" y="500" type="line"/>
      <point x="65" y="150" type="line" smooth="yes"/>
      <point x="65" y="20"/>
      <point x="135" y="-10"/>
      <point x="220" y="-10" type="curve" smooth="yes"/>
      <point x="260" y="-10"/>
      <point x="295" y="0"/>
      <point x="320" y="20" type="curve"/>
      <point x="320" y="-100"/>
      <point x="280" y="-140"/>
      <point x="205" y="-140" type="curve" smooth="yes"/>
      <point x="95" y="-140" type="line"/>
      <point x="95" y="-190" type="line"/>
      <point x="125" y="-200"/>
      <point x="175" y="-210"/>
    </contour>
    <contour>
      <point x="120" y="560" type="line"/>
      <point x="230" y="560" type="line"/>
      <point x="230" y="680" type="line"/>
      <point x="120" y="680" type="line"/>
    </contour>
    <contour>
      <point x="280" y="560" type="line"/>
      <point x="390" y="560" type="line"/>
      <point x="390" y="680" type="line"/>
      <point x="280" y="680" type="line"/>
    </contour>
  </outline>
</glyph>
<glyph name="Aogonek" format="2">
  <advance width="540"/>
  <unicode hex="0104"/>
  <outline>
    <contour>
      <point x="483" y="-160" type="curve" smooth="yes"/>
      <point x="528" y="-160"/>
      <point x="559" y="-145"/>
      <point x="559" y="-145" type="curve"/>
      <point x="559" y="-100" type="line"/>
      <point x="523" y="-100" type="line" smooth="yes"/>
      <point x="488" y="-100"/>
      <point x="469" y="-80"/>
      <point x="469" y="-45" type="curve" smooth="yes"/>
      <point x="469" y="0" type="line"/>
      <point x="524" y="0" type="line"/>
      <point x="344" y="700" type="line"/>
      <point x="194" y="700" type="line"/>
      <point x="14" y="0" type="line"/>
      <point x="139" y="0" type="line"/>
      <point x="183" y="175" type="line"/>
      <point x="355" y="175" type="line"/>
      <point x="399" y="0" type="line"/>
      <point x="419" y="0" type="line"/>
      <point x="419" y="0"/>
      <point x="393" y="-30"/>
      <point x="393" y="-80" type="curve" smooth="yes"/>
      <point x="393" y="-125"/>
      <point x="428" y="-160"/>
    </contour>
    <contour>
      <point x="199" y="255" type="line"/>
      <point x="267" y="540" type="line"/>
      <point x="271" y="540" type="line"/>
      <point x="338" y="255" type="line"/>
    </contour>
  </outline>
</glyph>
<glyph name="Ccaron" format="2">
  <advance width="455"/>
  <unicode hex="010C"/>
  <outline>
    <contour>
      <point x="280" y="-10" type="curve" smooth="yes"/>
      <point x="350" y="-10"/>
      <point x="410" y="0"/>
      <point x="440" y="10" type="curve"/>
      <point x="440" y="65" type="line"/>
      <point x="320" y="65" type="line" smooth="yes"/>
      <point x="225" y="65"/>
      <point x="165" y="125"/>
      <point x="165" y="350" type="curve" smooth="yes"/>
      <point x="165" y="575"/>
      <point x="225" y="635"/>
      <point x="310" y="635" type="curve" smooth="yes"/>
      <point x="430" y="635" type="line"/>
      <point x="430" y="690" type="line"/>
      <point x="400" y="700"/>
      <point x="340" y="710"/>
      <point x="270" y="710" type="curve" smooth="yes"/>
      <point x="125" y="710"/>
      <point x="45" y="630"/>
      <point x="45" y="350" type="curve" smooth="yes"/>
      <point x="45" y="70"/>
      <point x="125" y="-10"/>
    </contour>
    <contour>
      <point x="213" y="760" type="line"/>
      <point x="318" y="760" type="line"/>
      <point x="398" y="890" type="line"/>
      <point x="321" y="890" type="line"/>
      <point x="265" y="820" type="line"/>
      <point x="209" y="890" type="line"/>
      <point x="133" y="890" type="line"/>
    </contour>
  </outline>
</glyph>
<glyph name="Emacron" format="2">
  <advance width="475"/>
  <unicode hex="0112"/>
  <outline>
    <contour>
      <point x="70" y="0" type="line"/>
      <point x="435" y="0" type="line"/>
      <point x="435" y="80" type="line"/>
      <point x="190" y="80" type="line"/>
      <point x="190" y="325" type="line"/>
      <point x="405" y="325" type="line"/>
      <point x="405" y="405" type="line"/>
      <point x="190" y="405" type="line"/>
      <point x="190" y="620" type="line"/>
      <point x="435" y="620" type="line"/>
      <point x="435" y="700" type="line"/>
      <point x="70" y="700" type="line"/>
    </contour>
    <contour>
      <point x="135" y="760" type="line"/>
      <point x="375" y="760" type="line"/>
      <point x="375" y="830" type="line"/>
      <point x="135" y="830" type="line"/>
    </contour>
  </outline>
</glyph>
<glyph name="Edotaccent" format="2">
  <advance width="475"/>
  <unicode hex="0116"/>
  <outline>
    <contour>
      <point x="70" y="0" type="line"/>
      <point x="435" y="0" type="line"/>
      <point x="435" y="80" type="line"/>
      <point x="190" y="80" type="line"/>
      <point x="190" y="325" type="line"/>
      <point x="405" y="325" type="line"/>
      <point x="405" y="405" type="line"/>
      <point x="190" y="405" type="line"/>
      <point x="190" y="620" type="line"/>
      <point x="435" y="620" type="line"/>
      <point x="435" y="700" type="line"/>
      <point x="70" y="700" type="line"/>
    </contour>
    <contour>
      <point x="205" y="760" type="line"/>
      <point x="315" y="760" type="line"/>
      <point x="315" y="880" type="line"/>
      <point x="205" y="880" type="line"/>
    </contour>
  </outline>
</glyph>
<glyph name="Eogonek" format="2">
  <advance width="465"/>
  <unicode hex="0118"/>
  <outline>
    <contour>
      <point x="399" y="-160" type="curve" smooth="yes"/>
      <point x="444" y="-160"/>
      <point x="475" y="-145"/>
      <point x="475" y="-145" type="curve"/>
      <point x="475" y="-100" type="line"/>
      <point x="439" y="-100" type="line" smooth="yes"/>
      <point x="404" y="-100"/>
      <point x="385" y="-80"/>
      <point x="385" y="-45" type="curve" smooth="yes"/>
      <point x="385" y="0" type="line"/>
      <point x="435" y="0" type="line"/>
      <point x="435" y="80" type="line"/>
      <point x="190" y="80" type="line"/>
      <point x="190" y="325" type="line"/>
      <point x="405" y="325" type="line"/>
      <point x="405" y="405" type="line"/>
      <point x="190" y="405" type="line"/>
      <point x="190" y="620" type="line"/>
      <point x="435" y="620" type="line"/>
      <point x="435" y="700" type="line"/>
      <point x="70" y="700" type="line"/>
      <point x="70" y="0" type="line"/>
      <point x="335" y="0" type="line"/>
      <point x="335" y="0"/>
      <point x="309" y="-30"/>
      <point x="309" y="-80" type="curve" smooth="yes"/>
      <point x="309" y="-125"/>
      <point x="344" y="-160"/>
    </contour>
  </outline>
</glyph>
<glyph name="Gbreve" format="2">
  <advance width="525"/>
  <unicode hex="011E"/>
  <outline>
    <contour>
      <point x="300" y="-10" type="curve" smooth="yes"/>
      <point x="375" y="-10"/>
      <point x="435" y="0"/>
      <point x="465" y="10" type="curve"/>
      <point x="465" y="380" type="line"/>
      <point x="345" y="380" type="line"/>
      <point x="345" y="65" type="line"/>
      <point x="320" y="65" type="line" smooth="yes"/>
      <point x="225" y="65"/>
      <point x="165" y="125"/>
      <point x="165" y="350" type="curve" smooth="yes"/>
      <point x="165" y="575"/>
      <point x="225" y="635"/>
      <point x="310" y="635" type="curve" smooth="yes"/>
      <point x="440" y="635" type="line"/>
      <point x="440" y="690" type="line"/>
      <point x="410" y="700"/>
      <point x="350" y="710"/>
      <point x="280" y="710" type="curve" smooth="yes"/>
      <point x="125" y="710"/>
      <point x="45" y="630"/>
      <point x="45" y="350" type="curve" smooth="yes"/>
      <point x="45" y="70"/>
      <point x="125" y="-10"/>
    </contour>
    <contour>
      <point x="280" y="755" type="curve" smooth="yes"/>
      <point x="345" y="755"/>
      <point x="395" y="785"/>
      <point x="425" y="835" type="curve"/>
      <point x="375" y="885" type="line"/>
      <point x="355" y="865"/>
      <point x="320" y="840"/>
      <point x="280" y="840" type="curve" smooth="yes"/>
      <point x="240" y="840"/>
      <point x="205" y="865"/>
      <point x="185" y="885" type="curve"/>
      <point x="135" y="835" type="line"/>
      <point x="165" y="785"/>
      <point x="215" y="755"/>
    </contour>
  </outline>
</glyph>
<glyph name="gbreve" format="2">
  <advance width="490"/>
  <unicode hex="011F"/>
  <outline>
    <contour>
      <point x="210" y="-210" type="curve" smooth="yes"/>
      <point x="355" y="-210"/>
      <point x="425" y="-140"/>
      <point x="425" y="40" type="curve" smooth="yes"/>
      <point x="425" y="480" type="line"/>
      <point x="375" y="500"/>
      <point x="330" y="510"/>
      <point x="260" y="510" type="curve" smooth="yes"/>
      <point x="110" y="510"/>
      <point x="40" y="440"/>
      <point x="40" y="250" type="curve" smooth="yes"/>
      <point x="40" y="60"/>
      <point x="110" y="-10"/>
      <point x="220" y="-10" type="curve" smooth="yes"/>
      <point x="255" y="-10"/>
      <point x="285" y="0"/>
      <point x="305" y="15" type="curve"/>
      <point x="305" y="-100"/>
      <point x="265" y="-140"/>
      <point x="190" y="-140" type="curve" smooth="yes"/>
      <point x="80" y="-140" type="line"/>
      <point x="80" y="-190" type="line"/>
      <point x="110" y="-200"/>
      <point x="160" y="-210"/>
    </contour>
    <contour>
      <point x="250" y="60" type="curve" smooth="yes"/>
      <point x="200" y="60"/>
      <point x="160" y="100"/>
      <point x="160" y="250" type="curve" smooth="yes"/>
      <point x="160" y="400"/>
      <point x="200" y="440"/>
      <point x="260" y="440" type="curve" smooth="yes"/>
      <point x="305" y="440" type="line"/>
      <point x="305" y="80" type="line"/>
      <point x="295" y="70"/>
      <point x="275" y="60"/>
    </contour>
    <contour>
      <point x="240" y="565" type="curve" smooth="yes"/>
      <point x="305" y="565"/>
      <point x="350" y="595"/>
      <point x="380" y="640" type="curve"/>
      <point x="330" y="690" type="line"/>
      <point x="310" y="670"/>
      <point x="280" y="650"/>
      <point x="240" y="650" type="curve" smooth="yes"/>
      <point x="200" y="650"/>
      <point x="170" y="670"/>
      <point x="150" y="690" type="curve"/>
      <point x="100" y="640" type="line"/>
      <point x="130" y="595"/>
      <point x="175" y="565"/>
    </contour>
  </outline>
</glyph>
<glyph name="hbar" format="2">
  <advance width="515"/>
  <unicode hex="0127"/>
  <outline>
    <contour>
      <point x="75" y="0" type="line"/>
      <point x="195" y="0" type="line"/>
      <point x="195" y="390" type="line"/>
      <point x="205" y="400"/>
      <point x="225" y="410"/>
      <point x="250" y="410" type="curve" smooth="yes"/>
      <point x="290" y="410"/>
      <point x="330" y="390"/>
      <point x="330" y="320" type="curve" smooth="yes"/>
      <point x="330" y="0" type="line"/>
      <point x="450" y="0" type="line"/>
      <point x="450" y="320" type="line" smooth="yes"/>
      <point x="450" y="450"/>
      <point x="380" y="480"/>
      <point x="295" y="480" type="curve" smooth="yes"/>
      <point x="255" y="480"/>
      <point x="220" y="470"/>
      <point x="195" y="450" type="curve"/>
      <point x="195" y="536" type="line"/>
      <point x="215" y="536" type="line" smooth="yes"/>
      <point x="250" y="536"/>
      <point x="300" y="546"/>
      <point x="330" y="556" type="curve"/>
      <point x="330" y="610" type="line"/>
      <point x="195" y="610" type="line"/>
      <point x="195" y="700" type="line"/>
      <point x="75" y="700" type="line"/>
      <point x="75" y="610" type="line"/>
      <point x="20" y="610" type="line"/>
      <point x="20" y="536" type="line"/>
      <point x="75" y="536" type="line"/>
    </contour>
  </outline>
</glyph>
<glyph name="Imacron" format="2">
  <advance width="260"/>
  <unicode hex="012A"/>
  <outline>
    <contour>
      <point x="70" y="0" type="line"/>
      <point x="190" y="0" type="line"/>
      <point x="190" y="700" type="line"/>
      <point x="70" y="700" type="line"/>
    </contour>
    <contour>
      <point x="10" y="750" type="line"/>
      <point x="250" y="750" type="line"/>
      <point x="250" y="820" type="line"/>
      <point x="10" y="820" type="line"/>
    </contour>
  </outline>
</glyph>
<glyph name="imacron" format="2">
  <advance width="240"/>
  <unicode hex="012B"/>
  <outline>
    <contour>
      <point x="60" y="0" type="line"/>
      <point x="180" y="0" type="line"/>
      <point x="180" y="500" type="line"/>
      <point x="60" y="500" type="line"/>
    </contour>
    <contour>
      <point x="0" y="570" type="line"/>
      <point x="240" y="570" type="line"/>
      <point x="240" y="640" type="line"/>
      <point x="0" y="640" type="line"/>
    </contour>
  </outline>
</glyph>
<glyph name="Iogonek" format="2">
  <advance width="226"/>
  <unicode hex="012E"/>
  <outline>
    <contour>
      <point x="140" y="-160" type="curve" smooth="yes"/>
      <point x="185" y="-160"/>
      <point x="216" y="-145"/>
      <point x="216" y="-145" type="curve"/>
      <point x="216" y="-100" type="line"/>
      <point x="180" y="-100" type="line" smooth="yes"/>
      <point x="145" y="-100"/>
      <point x="126" y="-80"/>
      <point x="126" y="-45" type="curve" smooth="yes"/>
      <point x="126" y="0" type="line"/>
      <point x="176" y="0" type="line"/>
      <point x="176" y="700" type="line"/>
      <point x="56" y="700" type="line"/>
      <point x="56" y="0" type="line"/>
      <point x="76" y="0" type="line"/>
      <point x="76" y="0"/>
      <point x="50" y="-30"/>
      <point x="50" y="-80" type="curve" smooth="yes"/>
      <point x="50" y="-125"/>
      <point x="85" y="-160"/>
    </contour>
  </outline>
</glyph>
<glyph name="iogonek" format="2">
  <advance width="226"/>
  <unicode hex="012F"/>
  <outline>
    <contour>
      <point x="140" y="-160" type="curve" smooth="yes"/>
      <point x="185" y="-160"/>
      <point x="216" y="-145"/>
      <point x="216" y="-145" type="curve"/>
      <point x="216" y="-100" type="line"/>
      <point x="180" y="-100" type="line" smooth="yes"/>
      <point x="145" y="-100"/>
      <point x="126" y="-80"/>
      <point x="126" y="-45" type="curve" smooth="yes"/>
      <point x="126" y="0" type="line"/>
      <point x="176" y="0" type="line"/>
      <point x="176" y="500" type="line"/>
      <point x="56" y="500" type="line"/>
      <point x="56" y="0" type="line"/>
      <point x="76" y="0" type="line"/>
      <point x="76" y="0"/>
      <point x="50" y="-30"/>
      <point x="50" y="-80" type="curve" smooth="yes"/>
      <point x="50" y="-125"/>
      <point x="85" y="-160"/>
    </contour>
    <contour>
      <point x="56" y="560" type="line"/>
      <point x="176" y="560" type="line"/>
      <point x="176" y="680" type="line"/>
      <point x="56" y="680" type="line"/>
    </contour>
  </outline>
</glyph>
<glyph name="Idotaccent" format="2">
  <advance width="260"/>
  <unicode hex="0130"/>
  <outline>
    <contour>
      <point x="70" y="0" type="line"/>
      <point x="190" y="0" type="line"/>
      <point x="190" y="700" type="line"/>
      <point x="70" y="700" type="line"/>
    </contour>
    <contour>
      <point x="75" y="760" type="line"/>
      <point x="185" y="760" type="line"/>
      <point x="185" y="880" type="line"/>
      <point x="75" y="880" type="line"/>
    </contour>
  </outline>
</glyph>
<glyph name="idotless" format="2">
  <advance width="260"/>
  <unicode hex="0131"/>
  <anchor x="130" y="0" name="bottom"/>
  <anchor x="234" y="10" name="ogonek"/>
  <anchor x="130" y="500" name="top"/>
  <outline>
    <contour>
      <point x="70" y="0" type="line"/>
      <point x="190" y="0" type="line"/>
      <point x="190" y="500" type="line"/>
      <point x="70" y="500" type="line"/>
    </contour>
  </outline>
</glyph>
<glyph name="ij" format="2">
  <advance width="490"/>
  <unicode hex="0133"/>
  <outline>
    <contour>
      <point x="265" y="-210" type="curve" smooth="yes"/>
      <point x="350" y="-210"/>
      <point x="420" y="-180"/>
      <point x="420" y="-40" type="curve"/>
      <point x="420" y="500" type="line"/>
      <point x="70" y="500" type="line"/>
      <point x="70" y="0" type="line"/>
      <point x="190" y="0" type="line"/>
      <point x="190" y="425" type="line"/>
      <point x="300" y="425" type="line"/>
      <point x="300" y="-40" type="line"/>
      <point x="300" y="-110"/>
      <point x="270" y="-140"/>
      <point x="235" y="-140" type="curve"/>
      <point x="165" y="-140" type="line"/>
      <point x="165" y="-190" type="line"/>
      <point x="190" y="-200"/>
      <point x="225" y="-210"/>
    </contour>
    <contour>
      <point x="70" y="560" type="line"/>
      <point x="190" y="560" type="line"/>
      <point x="190" y="680" type="line"/>
      <point x="70" y="680" type="line"/>
    </contour>
    <contour>
      <point x="300" y="560" type="line"/>
      <point x="420" y="560" type="line"/>
      <point x="420" y="680" type="line"/>
      <point x="300" y="680" type="line"/>
    </contour>
  </outline>
</glyph>
<glyph name="Jcircumflex" format="2">
  <advance width="375"/>
  <unicode hex="0134"/>
  <outline>
    <contour>
      <point x="100" y="-10" type="curve" smooth="yes"/>
      <point x="245" y="-10"/>
      <point x="315" y="60"/>
      <point x="315" y="240" type="curve" smooth="yes"/>
      <point x="315" y="700" type="line"/>
      <point x="195" y="700" type="line"/>
      <point x="195" y="240" type="line" smooth="yes"/>
      <point x="195" y="105"/>
      <point x="155" y="65"/>
      <point x="100" y="65" type="curve" smooth="yes"/>
      <point x="0" y="65" type="line"/>
      <point x="0" y="10" type="line"/>
      <point x="25" y="0"/>
      <point x="60" y="-10"/>
    </contour>
    <contour>
      <point x="123" y="740" type="line"/>
      <point x="199" y="740" type="line"/>
      <point x="255" y="810" type="line"/>
      <point x="311" y="740" type="line"/>
      <point x="388" y="740" type="line"/>
      <point x="308" y="870" type="line"/>
      <point x="203" y="870" type="line"/>
    </contour>
  </outline>
</glyph>
<glyph name="jcircumflex" format="2">
  <advance width="260"/>
  <unicode hex="0135"/>
  <outline>
    <contour>
      <point x="40" y="-210" type="curve" smooth="yes"/>
      <point x="125" y="-210"/>
      <point x="195" y="-180"/>
      <point x="195" y="-40" type="curve" smooth="yes"/>
      <point x="195" y="500" type="line"/>
      <point x="75" y="500" type="line"/>
      <point x="75" y="-40" type="line" smooth="yes"/>
      <point x="75" y="-110"/>
      <point x="45" y="-140"/>
      <point x="10" y="-140" type="curve" smooth="yes"/>
      <point x="-60" y="-140" type="line"/>
      <point x="-60" y="-190" type="line"/>
      <point x="-35" y="-200"/>
      <point x="0" y="-210"/>
    </contour>
    <contour>
      <point x="0" y="550" type="line"/>
      <point x="76" y="550" type="line"/>
      <point x="132" y="620" type="line"/>
      <point x="188" y="550" type="line"/>
      <point x="265" y="550" type="line"/>
      <point x="185" y="680" type="line"/>
      <point x="80" y="680" type="line"/>
    </contour>
  </outline>
</glyph>
<glyph name="Kcommaaccent" format="2">
  <advance width="520"/>
  <unicode hex="0136"/>
  <outline>
    <contour>
      <point x="70" y="0" type="line"/>
      <point x="190" y="0" type="line"/>
      <point x="190" y="330" type="line"/>
      <point x="375" y="0" type="line"/>
      <point x="510" y="0" type="line"/>
      <point x="305" y="355" type="line"/>
      <point x="490" y="700" type="line"/>
      <point x="355" y="700" type="line"/>
      <point x="190" y="380" type="line"/>
      <point x="190" y="700" type="line"/>
      <point x="70" y="700" type="line"/>
    </contour>
    <contour>
      <point x="215" y="-200" type="line"/>
      <point x="290" y="-200" type="line"/>
      <point x="325" y="-50" type="line"/>
      <point x="215" y="-50" type="line"/>
    </contour>
  </outline>
</glyph>
<glyph name="kcommaaccent" format="2">
  <advance width="460"/>
  <unicode hex="0137"/>
  <outline>
    <contour>
      <point x="70" y="0" type="line"/>
      <point x="190" y="0" type="line"/>
      <point x="190" y="245" type="line"/>
      <point x="320" y="0" type="line"/>
      <point x="450" y="0" type="line"/>
      <point x="305" y="265" type="line"/>
      <point x="440" y="500" type="line"/>
      <point x="310" y="500" type="line"/>
      <point x="190" y="285" type="line"/>
      <point x="190" y="700" type="line"/>
      <point x="70" y="700" type="line"/>
    </contour>
    <contour>
      <point x="195" y="-210" type="line"/>
      <point x="270" y="-210" type="line"/>
      <point x="305" y="-60" type="line"/>
      <point x="195" y="-60" type="line"/>
    </contour>
  </outline>
</glyph>
<glyph name="Lcommaaccent" format="2">
  <advance width="445"/>
  <unicode hex="013B"/>
  <outline>
    <contour>
      <point x="70" y="0" type="line"/>
      <point x="435" y="0" type="line"/>
      <point x="435" y="80" type="line"/>
      <point x="190" y="80" type="line"/>
      <point x="190" y="700" type="line"/>
      <point x="70" y="700" type="line"/>
    </contour>
    <contour>
      <point x="205" y="-210" type="line"/>
      <point x="280" y="-210" type="line"/>
      <point x="315" y="-60" type="line"/>
      <point x="205" y="-60" type="line"/>
    </contour>
  </outline>
</glyph>
<glyph name="lcommaaccent" format="2">
  <advance width="260"/>
  <unicode hex="013C"/>
  <outline>
    <contour>
      <point x="70" y="0" type="line"/>
      <point x="190" y="0" type="line"/>
      <point x="190" y="700" type="line"/>
      <point x="70" y="700" type="line"/>
    </contour>
    <contour>
      <point x="75" y="-210" type="line"/>
      <point x="150" y="-210" type="line"/>
      <point x="185" y="-60" type="line"/>
      <point x="75" y="-60" type="line"/>
    </contour>
  </outline>
</glyph>
<glyph name="Lslash" format="2">
  <advance width="445"/>
  <unicode hex="0141"/>
  <outline>
    <contour>
      <point x="70" y="0" type="line"/>
      <point x="435" y="0" type="line"/>
      <point x="435" y="80" type="line"/>
      <point x="190" y="80" type="line"/>
      <point x="190" y="355" type="line"/>
      <point x="280" y="420" type="line"/>
      <point x="235" y="480" type="line"/>
      <point x="190" y="448" type="line"/>
      <point x="190" y="700" type="line"/>
      <point x="70" y="700" type="line"/>
      <point x="70" y="362" type="line"/>
      <point x="-10" y="305" type="line"/>
      <point x="35" y="245" type="line"/>
      <point x="70" y="270" type="line"/>
    </contour>
  </outline>
</glyph>
<glyph name="lslash" format="2">
  <advance width="290"/>
  <unicode hex="0142"/>
  <outline>
    <contour>
      <point x="80" y="0" type="line"/>
      <point x="200" y="0" type="line"/>
      <point x="200" y="355" type="line"/>
      <point x="290" y="420" type="line"/>
      <point x="245" y="480" type="line"/>
      <point x="200" y="448" type="line"/>
      <point x="200" y="700" type="line"/>
      <point x="80" y="700" type="line"/>
      <point x="80" y="362" type="line"/>
      <point x="0" y="305" type="line"/>
      <point x="45" y="245" type="line"/>
      <point x="80" y="270" type="line"/>
    </contour>
  </outline>
</glyph>
<glyph name="Nacute" format="2">
  <advance width="570"/>
  <unicode hex="0143"/>
  <outline>
    <contour>
      <point x="70" y="0" type="line"/>
      <point x="185" y="0" type="line"/>
      <point x="185" y="460" type="line"/>
      <point x="190" y="460" type="line"/>
      <point x="380" y="0" type="line"/>
      <point x="500" y="0" type="line"/>
      <point x="500" y="700" type="line"/>
      <point x="385" y="700" type="line"/>
      <point x="385" y="240" type="line"/>
      <point x="380" y="240" type="line"/>
      <point x="190" y="700" type="line"/>
      <point x="70" y="700" type="line"/>
    </contour>
    <contour>
      <point x="245" y="750" type="line"/>
      <point x="320" y="750" type="line"/>
      <point x="395" y="880" type="line"/>
      <point x="280" y="880" type="line"/>
    </contour>
  </outline>
</glyph>
<glyph name="nacute" format="2">
  <advance width="505"/>
  <unicode hex="0144"/>
  <outline>
    <contour>
      <point x="65" y="0" type="line"/>
      <point x="185" y="0" type="line"/>
      <point x="185" y="420" type="line"/>
      <point x="195" y="430"/>
      <point x="215" y="440"/>
      <point x="240" y="440" type="curve" smooth="yes"/>
      <point x="280" y="440"/>
      <point x="320" y="420"/>
      <point x="320" y="350" type="curve" smooth="yes"/>
      <point x="320" y="0" type="line"/>
      <point x="440" y="0" type="line"/>
      <point x="440" y="350" type="line" smooth="yes"/>
      <point x="440" y="480"/>
      <point x="370" y="510"/>
      <point x="285" y="510" type="curve" smooth="yes"/>
      <point x="225" y="510"/>
      <point x="191" y="490"/>
      <point x="170" y="470" type="curve"/>
      <point x="165" y="470" type="line"/>
      <point x="150" y="500" type="line"/>
      <point x="65" y="500" type="line"/>
    </contour>
    <contour>
      <point x="210" y="560" type="line"/>
      <point x="285" y="560" type="line"/>
      <point x="360" y="690" type="line"/>
      <point x="245" y="690" type="line"/>
    </contour>
  </outline>
</glyph>
<glyph name="Ncommaaccent" format="2">
  <advance width="570"/>
  <unicode hex="0145"/>
  <outline>
    <contour>
      <point x="70" y="0" type="line"/>
      <point x="185" y="0" type="line"/>
      <point x="185" y="460" type="line"/>
      <point x="190" y="460" type="line"/>
      <point x="380" y="0" type="line"/>
      <point x="500" y="0" type="line"/>
      <point x="500" y="700" type="line"/>
      <point x="385" y="700" type="line"/>
      <point x="385" y="240" type="line"/>
      <point x="380" y="240" type="line"/>
      <point x="190" y="700" type="line"/>
      <point x="70" y="700" type="line"/>
    </contour>
    <contour>
      <point x="225" y="-200" type="line"/>
      <point x="300" y="-200" type="line"/>
      <point x="335" y="-50" type="line"/>
      <point x="225" y="-50" type="line"/>
    </contour>
  </outline>
</glyph>
<glyph name="ncommaaccent" format="2">
  <advance width="505"/>
  <unicode hex="0146"/>
  <outline>
    <contour>
      <point x="65" y="0" type="line"/>
      <point x="185" y="0" type="line"/>
      <point x="185" y="420" type="line"/>
      <point x="195" y="430"/>
      <point x="215" y="440"/>
      <point x="240" y="440" type="curve" smooth="yes"/>
      <point x="280" y="440"/>
      <point x="320" y="420"/>
      <point x="320" y="350" type="curve" smooth="yes"/>
      <point x="320" y="0" type="line"/>
      <point x="440" y="0" type="line"/>
      <point x="440" y="350" type="line" smooth="yes"/>
      <point x="440" y="480"/>
      <point x="370" y="510"/>
      <point x="285" y="510" type="curve" smooth="yes"/>
      <point x="225" y="510"/>
      <point x="191" y="490"/>
      <point x="170" y="470" type="curve"/>
      <point x="165" y="470" type="line"/>
      <point x="150" y="500" type="line"/>
      <point x="65" y="500" type="line"/>
    </contour>
    <contour>
      <point x="201" y="-210" type="line"/>
      <point x="276" y="-210" type="line"/>
      <point x="311" y="-60" type="line"/>
      <point x="201" y="-60" type="line"/>
    </contour>
  </outline>
</glyph>
<glyph name="OE" format="2">
  <advance width="765"/>
  <unicode hex="0152"/>
  <outline>
    <contour>
      <point x="345" y="0" type="curve" smooth="yes"/>
      <point x="725" y="0" type="line"/>
      <point x="725" y="80" type="line"/>
      <point x="480" y="80" type="line"/>
      <point x="480" y="325" type="line"/>
      <point x="695" y="325" type="line"/>
      <point x="695" y="405" type="line"/>
      <point x="480" y="405" type="line"/>
      <point x="480" y="620" type="line"/>
      <point x="725" y="620" type="line"/>
      <point x="725" y="700" type="line"/>
      <point x="345" y="700" type="line"/>
      <point x="150" y="700"/>
      <point x="40" y="590"/>
      <point x="40" y="350" type="curve"/>
      <point x="40" y="110"/>
      <point x="150" y="0"/>
    </contour>
    <contour>
      <point x="345" y="80" type="line" smooth="yes"/>
      <point x="230" y="80"/>
      <point x="160" y="150"/>
      <point x="160" y="350" type="curve"/>
      <point x="160" y="550"/>
      <point x="230" y="620"/>
      <point x="345" y="620" type="curve" smooth="yes"/>
      <point x="360" y="620" type="line"/>
      <point x="360" y="80" type="line"/>
    </contour>
  </outline>
</glyph>
<glyph name="oe" format="2">
  <advance width="740"/>
  <unicode hex="0153"/>
  <outline>
    <contour>
      <point x="240" y="-10" type="curve" smooth="yes"/>
      <point x="305" y="-10"/>
      <point x="345" y="15"/>
      <point x="375" y="50" type="curve"/>
      <point x="405" y="15"/>
      <point x="450" y="-10"/>
      <point x="545" y="-10" type="curve" smooth="yes"/>
      <point x="595" y="-10"/>
      <point x="645" y="0"/>
      <point x="675" y="10" type="curve"/>
      <point x="675" y="60" type="line"/>
      <point x="565" y="60" type="line" smooth="yes"/>
      <point x="480" y="60"/>
      <point x="440" y="100"/>
      <point x="440" y="215" type="curve"/>
      <point x="700" y="215" type="line"/>
      <point x="700" y="250" type="line" smooth="yes"/>
      <point x="700" y="440"/>
      <point x="630" y="510"/>
      <point x="510" y="510" type="curve" smooth="yes"/>
      <point x="450" y="510"/>
      <point x="405" y="485"/>
      <point x="375" y="450" type="curve"/>
      <point x="345" y="485"/>
      <point x="305" y="510"/>
      <point x="240" y="510" type="curve" smooth="yes"/>
      <point x="110" y="510"/>
      <point x="40" y="440"/>
      <point x="40" y="250" type="curve" smooth="yes"/>
      <point x="40" y="60"/>
      <point x="110" y="-10"/>
    </contour>
    <contour>
      <point x="240" y="55" type="curve" smooth="yes"/>
      <point x="195" y="55"/>
      <point x="160" y="95"/>
      <point x="160" y="250" type="curve" smooth="yes"/>
      <point x="160" y="405"/>
      <point x="195" y="445"/>
      <point x="240" y="445" type="curve" smooth="yes"/>
      <point x="285" y="445"/>
      <point x="320" y="405"/>
      <point x="320" y="250" type="curve" smooth="yes"/>
      <point x="320" y="95"/>
      <point x="285" y="55"/>
    </contour>
    <contour>
      <point x="440" y="285" type="line"/>
      <point x="440" y="415"/>
      <point x="470" y="445"/>
      <point x="510" y="445" type="curve" smooth="yes"/>
      <point x="550" y="445"/>
      <point x="580" y="415"/>
      <point x="580" y="285" type="curve"/>
    </contour>
  </outline>
</glyph>
<glyph name="Racute" format="2">
  <advance width="535"/>
  <unicode hex="0154"/>
  <outline>
    <contour>
      <point x="70" y="0" type="line"/>
      <point x="190" y="0" type="line"/>
      <point x="190" y="225" type="line"/>
      <point x="255" y="225" type="line"/>
      <point x="370" y="0" type="line"/>
      <point x="505" y="0" type="line"/>
      <point x="370" y="250" type="line"/>
      <point x="435" y="280"/>
      <point x="480" y="335"/>
      <point x="480" y="470" type="curve" smooth="yes"/>
      <point x="480" y="640"/>
      <point x="410" y="710"/>
      <point x="245" y="710" type="curve" smooth="yes"/>
      <point x="170" y="710"/>
      <point x="120" y="705"/>
      <point x="70" y="690" type="curve"/>
    </contour>
    <contour>
      <point x="190" y="305" type="line"/>
      <point x="190" y="635" type="line"/>
      <point x="245" y="635" type="line" smooth="yes"/>
      <point x="320" y="635"/>
      <point x="360" y="595"/>
      <point x="360" y="470" type="curve" smooth="yes"/>
      <point x="360" y="345"/>
      <point x="320" y="305"/>
      <point x="245" y="305" type="curve" smooth="yes"/>
    </contour>
    <contour>
      <point x="205" y="750" type="line"/>
      <point x="280" y="750" type="line"/>
      <point x="355" y="880" type="line"/>
      <point x="240" y="880" type="line"/>
    </contour>
  </outline>
</glyph>
<glyph name="rcommaaccent" format="2">
  <advance width="360"/>
  <unicode hex="0157"/>
  <outline>
    <contour>
      <point x="65" y="0" type="line"/>
      <point x="185" y="0" type="line"/>
      <point x="185" y="395" type="line"/>
      <point x="195" y="405"/>
      <point x="215" y="415"/>
      <point x="240" y="415" type="curve" smooth="yes"/>
      <point x="350" y="415" type="line"/>
      <point x="350" y="500" type="line"/>
      <point x="285" y="500" type="line"/>
      <point x="225" y="500"/>
      <point x="191" y="480"/>
      <point x="170" y="460" type="curve"/>
      <point x="165" y="460" type="line"/>
      <point x="150" y="500" type="line"/>
      <point x="65" y="500" type="line"/>
    </contour>
    <contour>
      <point x="71" y="-210" type="line"/>
      <point x="146" y="-210" type="line"/>
      <point x="181" y="-60" type="line"/>
      <point x="71" y="-60" type="line"/>
    </contour>
  </outline>
</glyph>
<glyph name="rcaron" format="2">
  <advance width="360"/>
  <unicode hex="0159"/>
  <outline>
    <contour>
      <point x="65" y="0" type="line"/>
      <point x="185" y="0" type="line"/>
      <point x="185" y="395" type="line"/>
      <point x="195" y="405"/>
      <point x="215" y="415"/>
      <point x="240" y="415" type="curve" smooth="yes"/>
      <point x="350" y="415" type="line"/>
      <point x="350" y="500" type="line"/>
      <point x="285" y="500" type="line" smooth="yes"/>
      <point x="225" y="500"/>
      <point x="191" y="480"/>
      <point x="170" y="460" type="curve"/>
      <point x="165" y="460" type="line"/>
      <point x="150" y="500" type="line"/>
      <point x="65" y="500" type="line"/>
    </contour>
    <contour>
      <point x="155" y="550" type="line"/>
      <point x="260" y="550" type="line"/>
      <point x="340" y="680" type="line"/>
      <point x="263" y="680" type="line"/>
      <point x="207" y="610" type="line"/>
      <point x="151" y="680" type="line"/>
      <point x="75" y="680" type="line"/>
    </contour>
  </outline>
</glyph>
<glyph name="Sacute" format="2">
  <advance width="465"/>
  <unicode hex="015A"/>
  <outline>
    <contour>
      <point x="195" y="-10" type="curve" smooth="yes"/>
      <point x="365" y="-10"/>
      <point x="435" y="60"/>
      <point x="435" y="180" type="curve" smooth="yes"/>
      <point x="435" y="425"/>
      <point x="150" y="355"/>
      <point x="150" y="530" type="curve" smooth="yes"/>
      <point x="150" y="595"/>
      <point x="190" y="635"/>
      <point x="255" y="635" type="curve" smooth="yes"/>
      <point x="395" y="635" type="line"/>
      <point x="395" y="690" type="line"/>
      <point x="365" y="700"/>
      <point x="305" y="710"/>
      <point x="235" y="710" type="curve" smooth="yes"/>
      <point x="100" y="710"/>
      <point x="30" y="640"/>
      <point x="30" y="530" type="curve" smooth="yes"/>
      <point x="30" y="275"/>
      <point x="315" y="345"/>
      <point x="315" y="180" type="curve" smooth="yes"/>
      <point x="315" y="105"/>
      <point x="275" y="65"/>
      <point x="175" y="65" type="curve" smooth="yes"/>
      <point x="35" y="65" type="line"/>
      <point x="35" y="10" type="line"/>
      <point x="65" y="0"/>
      <point x="125" y="-10"/>
    </contour>
    <contour>
      <point x="190" y="760" type="line"/>
      <point x="265" y="760" type="line"/>
      <point x="340" y="890" type="line"/>
      <point x="225" y="890" type="line"/>
    </contour>
  </outline>
</glyph>
<glyph name="Scedilla" format="2">
  <advance width="465"/>
  <unicode hex="015E"/>
  <outline>
    <contour>
      <point x="245" y="-170" type="curve" smooth="yes"/>
      <point x="310" y="-170"/>
      <point x="345" y="-140"/>
      <point x="345" y="-100" type="curve" smooth="yes"/>
      <point x="345" y="-60"/>
      <point x="315" y="-30"/>
      <point x="255" y="-30" type="curve" smooth="yes"/>
      <point x="240" y="-30" type="line"/>
      <point x="240" y="-8" type="line"/>
      <point x="377" y="3"/>
      <point x="435" y="71"/>
      <point x="435" y="180" type="curve" smooth="yes"/>
      <point x="435" y="425"/>
      <point x="150" y="355"/>
      <point x="150" y="530" type="curve" smooth="yes"/>
      <point x="150" y="595"/>
      <point x="190" y="635"/>
      <point x="255" y="635" type="curve" smooth="yes"/>
      <point x="395" y="635" type="line"/>
      <point x="395" y="690" type="line"/>
      <point x="365" y="700"/>
      <point x="305" y="710"/>
      <point x="235" y="710" type="curve" smooth="yes"/>
      <point x="100" y="710"/>
      <point x="30" y="640"/>
      <point x="30" y="530" type="curve" smooth="yes"/>
      <point x="30" y="275"/>
      <point x="315" y="345"/>
      <point x="315" y="180" type="curve" smooth="yes"/>
      <point x="315" y="105"/>
      <point x="275" y="65"/>
      <point x="175" y="65" type="curve" smooth="yes"/>
      <point x="35" y="65" type="line"/>
      <point x="35" y="10" type="line"/>
      <point x="63" y="0"/>
      <point x="119" y="-9"/>
      <point x="185" y="-10" type="curve"/>
      <point x="185" y="-79" type="line"/>
      <point x="240" y="-79" type="line" smooth="yes"/>
      <point x="265" y="-79"/>
      <point x="270" y="-90"/>
      <point x="270" y="-100" type="curve" smooth="yes"/>
      <point x="270" y="-111"/>
      <point x="265" y="-121"/>
      <point x="235" y="-121" type="curve" smooth="yes"/>
      <point x="170" y="-121" type="line"/>
      <point x="170" y="-155" type="line"/>
      <point x="170" y="-155"/>
      <point x="195" y="-170"/>
    </contour>
  </outline>
</glyph>
<glyph name="scedilla" format="2">
  <advance width="415"/>
  <unicode hex="015F"/>
  <outline>
    <contour>
      <point x="225" y="-170" type="curve" smooth="yes"/>
      <point x="290" y="-170"/>
      <point x="325" y="-140"/>
      <point x="325" y="-100" type="curve" smooth="yes"/>
      <point x="325" y="-60"/>
      <point x="295" y="-30"/>
      <point x="235" y="-30" type="curve" smooth="yes"/>
      <point x="220" y="-30" type="line"/>
      <point x="220" y="-8" type="line"/>
      <point x="331" y="-1"/>
      <point x="385" y="34"/>
      <point x="385" y="140" type="curve" smooth="yes"/>
      <point x="385" y="310"/>
      <point x="150" y="275"/>
      <point x="150" y="380" type="curve" smooth="yes"/>
      <point x="150" y="420"/>
      <point x="190" y="440"/>
      <point x="245" y="440" type="curve" smooth="yes"/>
      <point x="355" y="440" type="line"/>
      <point x="355" y="490" type="line"/>
      <point x="325" y="500"/>
      <point x="275" y="510"/>
      <point x="225" y="510" type="curve" smooth="yes"/>
      <point x="100" y="510"/>
      <point x="30" y="480"/>
      <point x="30" y="370" type="curve" smooth="yes"/>
      <point x="30" y="200"/>
      <point x="265" y="235"/>
      <point x="265" y="130" type="curve" smooth="yes"/>
      <point x="265" y="80"/>
      <point x="225" y="60"/>
      <point x="150" y="60" type="curve" smooth="yes"/>
      <point x="40" y="60" type="line"/>
      <point x="40" y="10" type="line"/>
      <point x="69" y="0"/>
      <point x="116" y="-9"/>
      <point x="165" y="-10" type="curve"/>
      <point x="165" y="-79" type="line"/>
      <point x="220" y="-79" type="line" smooth="yes"/>
      <point x="245" y="-79"/>
      <point x="250" y="-90"/>
      <point x="250" y="-100" type="curve" smooth="yes"/>
      <point x="250" y="-111"/>
      <point x="245" y="-121"/>
      <point x="215" y="-121" type="curve" smooth="yes"/>
      <point x="150" y="-121" type="line"/>
      <point x="150" y="-155" type="line"/>
      <point x="150" y="-155"/>
      <point x="175" y="-170"/>
    </contour>
  </outline>
</glyph>
<glyph name="scaron" format="2">
  <advance width="415"/>
  <unicode hex="0161"/>
  <outline>
    <contour>
      <point x="170" y="-10" type="curve" smooth="yes"/>
      <point x="315" y="-10"/>
      <point x="385" y="20"/>
      <point x="385" y="140" type="curve" smooth="yes"/>
      <point x="385" y="310"/>
      <point x="150" y="275"/>
      <point x="150" y="380" type="curve" smooth="yes"/>
      <point x="150" y="420"/>
      <point x="190" y="440"/>
      <point x="245" y="440" type="curve" smooth="yes"/>
      <point x="355" y="440" type="line"/>
      <point x="355" y="490" type="line"/>
      <point x="325" y="500"/>
      <point x="275" y="510"/>
      <point x="225" y="510" type="curve" smooth="yes"/>
      <point x="100" y="510"/>
      <point x="30" y="480"/>
      <point x="30" y="370" type="curve" smooth="yes"/>
      <point x="30" y="200"/>
      <point x="265" y="235"/>
      <point x="265" y="130" type="curve" smooth="yes"/>
      <point x="265" y="80"/>
      <point x="225" y="60"/>
      <point x="150" y="60" type="curve" smooth="yes"/>
      <point x="40" y="60" type="line"/>
      <point x="40" y="10" type="line"/>
      <point x="70" y="0"/>
      <point x="120" y="-10"/>
    </contour>
    <contour>
      <point x="148" y="560" type="line"/>
      <point x="253" y="560" type="line"/>
      <point x="333" y="690" type="line"/>
      <point x="256" y="690" type="line"/>
      <point x="200" y="620" type="line"/>
      <point x="144" y="690" type="line"/>
      <point x="68" y="690" type="line"/>
    </contour>
  </outline>
</glyph>
<glyph name="uogonek" format="2">
  <advance width="505"/>
  <unicode hex="0173"/>
  <outline>
    <contour>
      <point x="429" y="-160" type="curve" smooth="yes"/>
      <point x="474" y="-160"/>
      <point x="505" y="-145"/>
      <point x="505" y="-145" type="curve"/>
      <point x="505" y="-100" type="line"/>
      <point x="469" y="-100" type="line" smooth="yes"/>
      <point x="434" y="-100"/>
      <point x="415" y="-80"/>
      <point x="415" y="-45" type="curve" smooth="yes"/>
      <point x="415" y="0" type="line"/>
      <point x="440" y="0" type="line"/>
      <point x="440" y="500" type="line"/>
      <point x="320" y="500" type="line"/>
      <point x="320" y="80" type="line"/>
      <point x="310" y="70"/>
      <point x="290" y="60"/>
      <point x="265" y="60" type="curve" smooth="yes"/>
      <point x="225" y="60"/>
      <point x="185" y="80"/>
      <point x="185" y="150" type="curve" smooth="yes"/>
      <point x="185" y="500" type="line"/>
      <point x="65" y="500" type="line"/>
      <point x="65" y="150" type="line" smooth="yes"/>
      <point x="65" y="20"/>
      <point x="135" y="-10"/>
      <point x="220" y="-10" type="curve" smooth="yes"/>
      <point x="280" y="-10"/>
      <point x="314" y="10"/>
      <point x="335" y="30" type="curve"/>
      <point x="340" y="30" type="line"/>
      <point x="355" y="0" type="line"/>
      <point x="365" y="0" type="line"/>
      <point x="365" y="0"/>
      <point x="339" y="-30"/>
      <point x="339" y="-80" type="curve" smooth="yes"/>
      <point x="339" y="-125"/>
      <point x="374" y="-160"/>
    </contour>
  </outline>
</glyph>
<glyph name="Zdotaccent" format="2">
  <advance width="435"/>
  <unicode hex="017B"/>
  <outline>
    <contour>
      <point x="20" y="0" type="line"/>
      <point x="410" y="0" type="line"/>
      <point x="410" y="80" type="line"/>
      <point x="155" y="80" type="line"/>
      <point x="415" y="625" type="line"/>
      <point x="415" y="700" type="line"/>
      <point x="25" y="700" type="line"/>
      <point x="25" y="620" type="line"/>
      <point x="280" y="620" type="line"/>
      <point x="20" y="75" type="line"/>
    </contour>
    <contour>
      <point x="165" y="760" type="line"/>
      <point x="275" y="760" type="line"/>
      <point x="275" y="880" type="line"/>
      <point x="165" y="880" type="line"/>
    </contour>
  </outline>
</glyph>
<glyph name="zdotaccent" format="2">
  <advance width="400"/>
  <unicode hex="017C"/>
  <outline>
    <contour>
      <point x="20" y="0" type="line"/>
      <point x="375" y="0" type="line"/>
      <point x="375" y="75" type="line"/>
      <point x="160" y="75" type="line"/>
      <point x="380" y="430" type="line"/>
      <point x="380" y="500" type="line"/>
      <point x="30" y="500" type="line"/>
      <point x="30" y="425" type="line"/>
      <point x="240" y="425" type="line"/>
      <point x="20" y="70" type="line"/>
    </contour>
    <contour>
      <point x="155" y="560" type="line"/>
      <point x="265" y="560" type="line"/>
      <point x="265" y="680" type="line"/>
      <point x="155" y="680" type="line"/>
    </contour>
  </outline>
</glyph>
<glyph name="Zcaron" format="2">
  <advance width="435"/>
  <unicode hex="017D"/>
  <outline>
    <contour>
      <point x="20" y="0" type="line"/>
      <point x="410" y="0" type="line"/>
      <point x="410" y="80" type="line"/>
      <point x="155" y="80" type="line"/>
      <point x="415" y="625" type="line"/>
      <point x="415" y="700" type="line"/>
      <point x="25" y="700" type="line"/>
      <point x="25" y="620" type="line"/>
      <point x="280" y="620" type="line"/>
      <point x="20" y="75" type="line"/>
    </contour>
    <contour>
      <point x="178" y="760" type="line"/>
      <point x="283" y="760" type="line"/>
      <point x="363" y="890" type="line"/>
      <point x="286" y="890" type="line"/>
      <point x="230" y="820" type="line"/>
      <point x="174" y="890" type="line"/>
      <point x="98" y="890" type="line"/>
    </contour>
  </outline>
</glyph>
<glyph name="circumflex" format="2">
  <advance width="305"/>
  <unicode hex="02C6"/>
  <outline>
    <contour>
      <point x="20" y="550" type="line"/>
      <point x="96" y="550" type="line"/>
      <point x="152" y="620" type="line"/>
      <point x="208" y="550" type="line"/>
      <point x="285" y="550" type="line"/>
      <point x="205" y="680" type="line"/>
      <point x="100" y="680" type="line"/>
    </contour>
  </outline>
</glyph>
<glyph name="caron" format="2">
  <advance width="305"/>
  <unicode hex="02C7"/>
  <outline>
    <contour>
      <point x="100" y="560" type="line"/>
      <point x="205" y="560" type="line"/>
      <point x="285" y="690" type="line"/>
      <point x="208" y="690" type="line"/>
      <point x="152" y="620" type="line"/>
      <point x="96" y="690" type="line"/>
      <point x="20" y="690" type="line"/>
    </contour>
  </outline>
</glyph>
<glyph name="dotaccent" format="2">
  <advance width="150"/>
  <unicode hex="02D9"/>
  <outline>
    <contour>
      <point x="20" y="560" type="line"/>
      <point x="130" y="560" type="line"/>
      <point x="130" y="680" type="line"/>
      <point x="20" y="680" type="line"/>
    </contour>
  </outline>
</glyph>
<glyph name="ring" format="2">
  <advance width="290"/>
  <unicode hex="02DA"/>
  <outline>
    <contour>
      <point x="145" y="535" type="curve" smooth="yes"/>
      <point x="200" y="535"/>
      <point x="240" y="570"/>
      <point x="240" y="620" type="curve" smooth="yes"/>
      <point x="240" y="670"/>
      <point x="200" y="705"/>
      <point x="145" y="705" type="curve" smooth="yes"/>
      <point x="90" y="705"/>
      <point x="50" y="670"/>
      <point x="50" y="620" type="curve" smooth="yes"/>
      <point x="50" y="570"/>
      <point x="90" y="535"/>
    </contour>
    <contour>
      <point x="145" y="590" type="curve" smooth="yes"/>
      <point x="130" y="590"/>
      <point x="115" y="600"/>
      <point x="115" y="620" type="curve" smooth="yes"/>
      <point x="115" y="640"/>
      <point x="130" y="650"/>
      <point x="145" y="650" type="curve" smooth="yes"/>
      <point x="160" y="650"/>
      <point x="175" y="640"/>
      <point x="175" y="620" type="curve" smooth="yes"/>
      <point x="175" y="600"/>
      <point x="160" y="590"/>
    </contour>
  </outline>
</glyph>
<glyph name="ogonek" format="2">
  <advance width="206"/>
  <unicode hex="02DB"/>
  <outline>
    <contour>
      <point x="110" y="-160" type="curve" smooth="yes"/>
      <point x="155" y="-160"/>
      <point x="186" y="-145"/>
      <point x="186" y="-145" type="curve"/>
      <point x="186" y="-100" type="line"/>
      <point x="150" y="-100" type="line" smooth="yes"/>
      <point x="115" y="-100"/>
      <point x="96" y="-80"/>
      <point x="96" y="-45" type="curve" smooth="yes"/>
      <point x="96" y="0" type="line"/>
      <point x="46" y="0" type="line"/>
      <point x="46" y="0"/>
      <point x="20" y="-30"/>
      <point x="20" y="-80" type="curve" smooth="yes"/>
      <point x="20" y="-125"/>
      <point x="55" y="-160"/>
    </contour>
  </outline>
</glyph>
<glyph name="tilde" format="2">
  <advance width="290"/>
  <unicode hex="02DC"/>
  <outline>
    <contour>
      <point x="195" y="560" type="curve" smooth="yes"/>
      <point x="240" y="560"/>
      <point x="270" y="590"/>
      <point x="270" y="680" type="curve"/>
      <point x="210" y="680" type="line"/>
      <point x="210" y="655"/>
      <point x="200" y="640"/>
      <point x="185" y="640" type="curve" smooth="yes"/>
      <point x="160" y="640"/>
      <point x="140" y="690"/>
      <point x="95" y="690" type="curve" smooth="yes"/>
      <point x="50" y="690"/>
      <point x="20" y="660"/>
      <point x="20" y="570" type="curve"/>
      <point x="80" y="570" type="line"/>
      <point x="80" y="595"/>
      <point x="90" y="610"/>
      <point x="105" y="610" type="curve" smooth="yes"/>
      <point x="130" y="610"/>
      <point x="150" y="560"/>
    </contour>
  </outline>
</glyph>
<glyph name="brevecomb" format="2">
  <unicode hex="0306"/>
  <anchor x="240" y="500" name="_top"/>
  <anchor x="240" y="690" name="top"/>
  <outline>
    <contour>
      <point x="240" y="565" type="curve" smooth="yes"/>
      <point x="305" y="565"/>
      <point x="350" y="595"/>
      <point x="380" y="640" type="curve"/>
      <point x="330" y="690" type="line"/>
      <point x="310" y="670"/>
      <point x="280" y="650"/>
      <point x="240" y="650" type="curve" smooth="yes"/>
      <point x="200" y="650"/>
      <point x="170" y="670"/>
      <point x="150" y="690" type="curve"/>
      <point x="100" y="640" type="line"/>
      <point x="130" y="595"/>
      <point x="175" y="565"/>
    </contour>
  </outline>
</glyph>
<glyph name="hookabovecomb" format="2">
  <unicode hex="0309"/>
  <anchor x="187" y="500" name="_top"/>
  <anchor x="187" y="736" name="top"/>
  <outline>
    <contour>
      <point x="148" y="543" type="curve"/>
      <point x="215" y="543" type="line"/>
      <point x="215" y="574"/>
      <point x="274" y="595"/>
      <point x="274" y="632" type="curve" smooth="yes"/>
      <point x="274" y="726"/>
      <point x="228" y="736"/>
      <point x="157" y="736" type="curve" smooth="yes"/>
      <point x="134" y="736"/>
      <point x="111" y="732"/>
      <point x="100" y="728" type="curve"/>
      <point x="100" y="665" type="line"/>
      <point x="150" y="665" type="line" smooth="yes"/>
      <point x="176" y="665"/>
      <point x="192" y="654"/>
      <point x="192" y="628" type="curve" smooth="yes"/>
      <point x="192" y="602"/>
      <point x="148" y="585"/>
    </contour>
  </outline>
</glyph>
<glyph name="hungarumlautcomb" format="2">
  <unicode hex="030B"/>
  <anchor x="134" y="500" name="_top"/>
  <anchor x="170" y="690" name="top"/>
  <outline>
    <contour>
      <point x="160" y="560" type="line"/>
      <point x="225" y="560" type="line"/>
      <point x="310" y="690" type="line"/>
      <point x="205" y="690" type="line"/>
    </contour>
    <contour>
      <point x="30" y="560" type="line"/>
      <point x="95" y="560" type="line"/>
      <point x="180" y="690" type="line"/>
      <point x="75" y="690" type="line"/>
    </contour>
  </outline>
</glyph>
<glyph name="commaturnedabovecomb" format="2">
  <unicode hex="0312"/>
  <anchor x="91" y="500" name="_top"/>
  <outline>
    <contour>
      <point x="40" y="570" type="line"/>
      <point x="150" y="570" type="line"/>
      <point x="150" y="720" type="line"/>
      <point x="75" y="720" type="line"/>
    </contour>
  </outline>
</glyph>
<glyph name="horncomb" format="2">
  <unicode hex="031B"/>
  <anchor x="190" y="500" name="_topright"/>
  <anchor x="190" y="500" name="topright"/>
  <outline>
    <contour>
      <point x="100" y="435" type="line"/>
      <point x="179" y="435"/>
      <point x="279" y="475"/>
      <point x="279" y="574" type="curve"/>
      <point x="179" y="574" type="line"/>
      <point x="179" y="516"/>
      <point x="146" y="500"/>
      <point x="100" y="500" type="curve"/>
    </contour>
  </outline>
</glyph>
<glyph name="dotbelowcomb" format="2">
  <unicode hex="0323"/>
  <anchor x="99" y="0" name="_bottom"/>
  <anchor x="99" y="-151" name="bottom"/>
  <outline>
    <contour>
      <point x="49.996" y="-151.249" type="line"/>
      <point x="148.984" y="-151.249" type="line"/>
      <point x="148.984" y="-52.261" type="line"/>
      <point x="49.996" y="-52.261" type="line"/>
    </contour>
  </outline>
</glyph>
<glyph name="commaaccentcomb" format="2">
  <unicode hex="0326"/>
  <anchor x="100" y="0" name="_bottom"/>
  <anchor x="88" y="-210" name="bottom"/>
  <outline>
    <contour>
      <point x="45" y="-210" type="line"/>
      <point x="120" y="-210" type="line"/>
      <point x="155" y="-60" type="line"/>
      <point x="45" y="-60" type="line"/>
    </contour>
  </outline>
</glyph>
<glyph name="strokeshortcomb" format="2">
  <unicode hex="0335"/>
  <anchor x="175" y="573" name="_center"/>
  <outline>
    <contour>
      <point x="20" y="536" type="line"/>
      <point x="215" y="536" type="line"/>
      <point x="250" y="536"/>
      <point x="300" y="546"/>
      <point x="330" y="556" type="curve"/>
      <point x="330" y="610" type="line"/>
      <point x="20" y="610" type="line"/>
    </contour>
  </outline>
</glyph>
<glyph name="Gje-cy" format="2">
  <advance width="435"/>
  <unicode hex="0403"/>
  <outline>
    <contour>
      <point x="70" y="0" type="line"/>
      <point x="190" y="0" type="line"/>
      <point x="190" y="620" type="line"/>
      <point x="415" y="620" type="line"/>
      <point x="415" y="700" type="line"/>
      <point x="70" y="700" type="line"/>
    </contour>
    <contour>
      <point x="195" y="750" type="line"/>
      <point x="270" y="750" type="line"/>
      <point x="345" y="880" type="line"/>
      <point x="230" y="880" type="line"/>
    </contour>
  </outline>
</glyph>
<glyph name="E-cy" format="2">
  <advance width="455"/>
  <unicode hex="0404"/>
  <outline>
    <contour>
      <point x="280" y="-10" type="curve" smooth="yes"/>
      <point x="350" y="-10"/>
      <point x="410" y="0"/>
      <point x="440" y="10" type="curve"/>
      <point x="440" y="65" type="line"/>
      <point x="320" y="65" type="line" smooth="yes"/>
      <point x="230" y="65"/>
      <point x="170" y="120"/>
      <point x="166" y="320" type="curve"/>
      <point x="370" y="320" type="line"/>
      <point x="370" y="400" type="line"/>
      <point x="166" y="400" type="line"/>
      <point x="175" y="585"/>
      <point x="230" y="635"/>
      <point x="310" y="635" type="curve" smooth="yes"/>
      <point x="430" y="635" type="line"/>
      <point x="430" y="690" type="line"/>
      <point x="400" y="700"/>
      <point x="340" y="710"/>
      <point x="270" y="710" type="curve" smooth="yes"/>
      <point x="125" y="710"/>
      <point x="45" y="630"/>
      <point x="45" y="350" type="curve" smooth="yes"/>
      <point x="45" y="70"/>
      <point x="125" y="-10"/>
    </contour>
  </outline>
</glyph>
<glyph name="Yi-cy" format="2">
  <advance width="250"/>
  <unicode hex="0407"/>
  <outline>
    <contour>
      <point x="65" y="0" type="line"/>
      <point x="185" y="0" type="line"/>
      <point x="185" y="700" type="line"/>
      <point x="65" y="700" type="line"/>
    </contour>
    <contour>
      <point x="-10" y="760" type="line"/>
      <point x="100" y="760" type="line"/>
      <point x="100" y="880" type="line"/>
      <point x="-10" y="880" type="line"/>
    </contour>
    <contour>
      <point x="150" y="760" type="line"/>
      <point x="260" y="760" type="line"/>
      <point x="260" y="880" type="line"/>
      <point x="150" y="880" type="line"/>
    </contour>
  </outline>
</glyph>
<glyph name="Lje-cy" format="2">
  <advance width="810"/>
  <unicode hex="0409"/>
  <outline>
    <contour>
      <point x="70" y="-10" type="curve" smooth="yes"/>
      <point x="150" y="-10"/>
      <point x="207" y="50"/>
      <point x="215" y="210" type="curve" smooth="yes"/>
      <point x="236" y="620" type="line"/>
      <point x="365" y="620" type="line"/>
      <point x="365" y="10" type="line"/>
      <point x="415" y="-5"/>
      <point x="465" y="-10"/>
      <point x="540" y="-10" type="curve" smooth="yes"/>
      <point x="705" y="-10"/>
      <point x="775" y="60"/>
      <point x="775" y="205" type="curve" smooth="yes"/>
      <point x="775" y="360"/>
      <point x="705" y="430"/>
      <point x="570" y="430" type="curve" smooth="yes"/>
      <point x="555" y="430"/>
      <point x="510" y="425"/>
      <point x="485" y="420" type="curve"/>
      <point x="485" y="700" type="line"/>
      <point x="120" y="700" type="line"/>
      <point x="95" y="210" type="line" smooth="yes"/>
      <point x="89" y="95"/>
      <point x="50" y="55"/>
      <point x="0" y="55" type="curve"/>
      <point x="0" y="0" type="line"/>
      <point x="0" y="0"/>
      <point x="25" y="-10"/>
    </contour>
    <contour>
      <point x="485" y="65" type="line"/>
      <point x="485" y="350" type="line"/>
      <point x="540" y="350" type="line" smooth="yes"/>
      <point x="615" y="350"/>
      <point x="655" y="315"/>
      <point x="655" y="205" type="curve" smooth="yes"/>
      <point x="655" y="105"/>
      <point x="615" y="65"/>
      <point x="540" y="65" type="curve" smooth="yes"/>
    </contour>
  </outline>
</glyph>
<glyph name="Nje-cy" format="2">
  <advance width="815"/>
  <unicode hex="040A"/>
  <outline>
    <contour>
      <point x="545" y="-10" type="curve" smooth="yes"/>
      <point x="710" y="-10"/>
      <point x="780" y="60"/>
      <point x="780" y="195" type="curve" smooth="yes"/>
      <point x="780" y="340"/>
      <point x="710" y="410"/>
      <point x="575" y="410" type="curve" smooth="yes"/>
      <point x="560" y="410"/>
      <point x="515" y="405"/>
      <point x="490" y="400" type="curve"/>
      <point x="490" y="700" type="line"/>
      <point x="370" y="700" type="line"/>
      <point x="370" y="410" type="line"/>
      <point x="190" y="410" type="line"/>
      <point x="190" y="700" type="line"/>
      <point x="70" y="700" type="line"/>
      <point x="70" y="0" type="line"/>
      <point x="190" y="0" type="line"/>
      <point x="190" y="330" type="line"/>
      <point x="370" y="330" type="line"/>
      <point x="370" y="10" type="line"/>
      <point x="420" y="-5"/>
      <point x="470" y="-10"/>
    </contour>
    <contour>
      <point x="490" y="65" type="line"/>
      <point x="490" y="330" type="line"/>
      <point x="545" y="330" type="line" smooth="yes"/>
      <point x="620" y="330"/>
      <point x="660" y="295"/>
      <point x="660" y="195" type="curve" smooth="yes"/>
      <point x="660" y="105"/>
      <point x="620" y="65"/>
      <point x="545" y="65" type="curve" smooth="yes"/>
    </contour>
  </outline>
</glyph>
<glyph name="Tshe-cy" format="2">
  <advance width="580"/>
  <unicode hex="040B"/>
  <outline>
    <contour>
      <point x="120" y="0" type="line"/>
      <point x="240" y="0" type="line"/>
      <point x="240" y="365" type="line"/>
      <point x="295" y="365" type="line" smooth="yes"/>
      <point x="375" y="365"/>
      <point x="415" y="325"/>
      <point x="415" y="245" type="curve" smooth="yes"/>
      <point x="415" y="0" type="line"/>
      <point x="535" y="0" type="line"/>
      <point x="535" y="245" type="line" smooth="yes"/>
      <point x="535" y="385"/>
      <point x="475" y="445"/>
      <point x="335" y="445" type="curve" smooth="yes"/>
      <point x="310" y="445"/>
      <point x="265" y="440"/>
      <point x="240" y="435" type="curve"/>
      <point x="240" y="620" type="line"/>
      <point x="380" y="620" type="line"/>
      <point x="380" y="700" type="line"/>
      <point x="0" y="700" type="line"/>
      <point x="0" y="620" type="line"/>
      <point x="120" y="620" type="line"/>
    </contour>
  </outline>
</glyph>
